<svg xmlns="http://www.w3.org/2000/svg" viewBox="0 0 839.12 317.37"><defs><style>.cls-1{fill:#a8a9a5;}</style></defs><g id="Capa_2" data-name="Capa 2"><g id="Capa_1-2" data-name="Capa 1"><path class="cls-1" d="M419.06,186.9q-206.44,0-412.91.14C.91,187-.12,185.59,0,180.71c.35-13,.22-26,0-39,0-3.35.69-5.08,4.35-4.51a20,20,0,0,0,3,0H831.74c7.27,0,7.27,0,7.27,7.5,0,12.16-.2,24.33.1,36.49.11,4.43-.91,5.81-5.63,5.8q-97.74-.26-195.46-.12Z"/><path class="cls-1" d="M375.1,290.38l-33.69-51.64-1,.24v4.71c0,22.16-.08,44.32.07,66.48,0,3.45-.81,4.56-4.39,4.46-9.49-.25-19-.27-28.48,0-3.71.11-4.27-1.25-4.26-4.54q.17-52.49.05-105c0-3.32-.12-6.66-.35-10-.18-2.44.44-3.56,3.2-3.54q21.48.1,43-.12c2.65,0,3.3,1.77,4.32,3.41q10.71,17.42,21.39,34.79c1.84-.06,2-1.63,2.69-2.67,6.57-10.59,13.17-21.16,19.56-31.86,1.53-2.56,3.09-3.73,6.21-3.69,13.49.19,27,.17,40.48,0,3,0,3.93.61,3.92,3.79q-.19,57.74,0,115.46c0,3.09-.84,3.93-3.92,3.87-9.82-.2-19.66-.23-29.48,0-3.56.09-4.43-1-4.41-4.45.15-22,.08-44,.08-66v-5.29l-1.08-.39Z"/><path class="cls-1" d="M699,252.9c0-19.15.1-38.3-.1-57.45,0-3.65,1.45-3.93,4.38-3.93q50.48.12,100.94,0c3.26,0,4.41.78,4.16,4.12-.33,4.64,1.57,10.84-.76,13.56-2.72,3.17-9.1,1-13.87,1-17.49.14-35,.22-52.47-.06-4.34-.07-5.45,1.27-5,5.28.56,5.06-2.18,12.07,1.1,14.73s9.85.74,15,.75c15.15,0,30.31.13,45.46-.07,3.32-.05,3.78,1.18,3.71,4-.17,7.15-.27,14.33,0,21.48.16,3.64-.69,4.72-4.55,4.67-18.48-.23-37,.09-55.46-.23-4.63-.08-5.72,1.33-5.3,5.55a45.91,45.91,0,0,1,0,10.48c-.65,4.87,1.5,5.56,5.77,5.52,20.65-.21,41.31.05,62-.21,4.41-.05,5.69,1,5.45,5.48-.41,7.47-.26,15,0,22.48.1,3.3-.56,4.59-4.27,4.58q-51.23-.22-102.44,0c-3.42,0-4.1-1.12-4.07-4.27.13-19.15.06-38.31.06-57.46Z"/><path class="cls-1" d="M164.78,229.7c0-12.87.09-23.7-.06-34.52,0-2.8.73-3.72,3.6-3.67,10.33.16,20.67.19,31,0,3.15-.07,3.89.93,3.87,3.95-.13,18.66-.1,37.32-.05,56a53.21,53.21,0,0,0,1.36,13.36c3.26,12.49,12.51,18.83,26.22,17.89,12.25-.85,20.49-8.78,21.88-21.26,1.06-9.46.4-19,.48-28.46.11-12.49.06-25,0-37.48,0-2.39,0-4,3.29-4,10.66.2,21.32.13,32,0,2.38,0,3.18.7,3.13,3.13-.47,23.47,1,47-.82,70.42-2.28,28.88-21.56,48.31-50.43,51.61a93.67,93.67,0,0,1-32.7-1.76c-24.73-5.9-39.64-23.38-42-48.83C164.36,253.29,165.11,240.47,164.78,229.7Z"/><path class="cls-1" d="M444.18,51.57c8.51-15,17.06-30.06,25.45-45.15,1.43-2.57,2.91-3.8,6.1-3.74,12.49.23,25,.09,37.44.09.93,1.69-.48,2.59-1.1,3.59q-23.39,38.58-46.93,77.08a16.61,16.61,0,0,0-2.64,9.35c.16,11.66-.15,23.33.17,35,.12,4-1.19,4.62-4.75,4.57-9.81-.15-19.64,0-29.46.28-2.7.07-3.84-.52-3.82-3.5.1-12.16-.1-24.32,0-36.47a14.4,14.4,0,0,0-2.14-8Q399.26,46.61,376.19,8.41c-1-1.66-2-3.36-3.29-5.63,14.26,0,27.86,0,41.46,0,2.5,0,2.83,2.07,3.65,3.52C425.8,20,433.5,33.75,441.25,47.5,442.05,48.92,442.53,50.59,444.18,51.57Z"/><path class="cls-1" d="M589,254.35c0-19,.09-38-.07-56.94,0-3.5.5-4.93,4.51-4.78,9.64.34,19.31.29,29,0,3.7-.1,4.74.79,4.7,4.61-.3,26.79-.25,53.59-.52,80.39,0,3.81.77,5.07,4.86,5,19-.24,38,0,56.94-.17,3.11,0,4.3.55,4.2,4-.28,8.65-.19,17.32,0,26,0,2.61-.69,3.33-3.31,3.32q-48.45-.13-96.91,0c-3.31,0-3.73-1.15-3.72-4,.12-19.14.06-38.29.06-57.43Z"/><path class="cls-1" d="M637.69,67.17c0-19.81.15-39.63-.11-59.43-.06-4.32,1.21-5.2,5.25-5.07,9.31.32,18.65.38,28,0,4.39-.19,5,1.3,5,5.25-.17,31,0,61.93-.2,92.9,0,4.1.93,5.28,5.13,5.22,18.81-.24,37.62,0,56.43-.18,3.42,0,4.65.69,4.45,4.31-.35,6.31-.27,12.65-.19,19,0,2.45-.5,3.53-3.29,3.52q-48.68-.3-97.37-.33c-3.55,0-3-2-3-4.21Q637.71,97.64,637.69,67.17Z"/><path class="cls-1" d="M219,89.58c30.12-15.43,28.53-57.71,9.59-73.71C217,6.05,203.22,3.1,188.7,2.86c-21.15-.34-42.31,0-63.47-.14-2.67,0-3.68.48-3.67,3.46q.15,61.22,0,122.44c0,3.36,1.26,3.7,4.06,3.69,10.15,0,20.31.09,30.46.31,2.57.06,3.52-.65,3.45-3.34-.18-6.5-.06-13-.06-19.49,0-11.91,0-11.75,11.77-12,3.47-.06,5.37,1.15,7.17,4,5.9,9.24,12.15,18.26,18.08,27.49a5.79,5.79,0,0,0,5.64,3c11.83-.14,23.66,0,35.49-.1,1.19,0,2.64.69,3.77-.92L214.79,92.2C215.89,90.71,217.58,90.33,219,89.58Zm-14.6-37c-.42,8.17-6.24,14.17-15.07,15.18-9.11,1-18.27.32-27.4.57-2.51.07-2.56-1.29-2.54-3.12.06-4.49,0-9,0-14.38.44-4.33-2.31-11.54,1-14.31s10.11-.87,15.4-.85c5.14,0,10.32-.51,15.4.71C200,38.43,204.85,44.45,204.44,52.54Z"/><path class="cls-1" d="M386.43,40C371.53,9.75,338.62-5.4,303.32,1.75a70.81,70.81,0,0,0-24.89,128.51,12.51,12.51,0,0,0,7.43,2.16c11.16-.16,22.32-.07,33.48-.07,11.49,0,23,0,34.47,0a12.65,12.65,0,0,0,7.06-1.93C390.73,111.6,402,71.7,386.43,40ZM352.55,83.37c-5.31,16.79-18.6,25.41-35,24.39-18.45-1.15-32.46-17.4-32.31-37.23.22-27.82,27.06-44.8,50.84-32.18C350.9,46.2,358.28,65.26,352.55,83.37Z"/><path class="cls-1" d="M564.7,247c-2.66-1.27-5.38-2.44-8.36-3.79,1.9-1.17,3.6-2.18,5.26-3.24,14.55-9.26,19.16-29,10.39-43.92-1.87-3.17-4-4.61-7.89-4.59q-49,.27-97.92,0c-4.72,0-5.72,1.39-5.71,5.8q.24,56.44,0,112.9c0,3.35.62,4.52,4.27,4.49,23-.18,46,.1,69-.17,12.44-.14,24.37-2.63,35-9.88C586.82,292.16,588.36,258.29,564.7,247Zm-64.41-38.32c4.15.16,8.31,0,13.24,0,4.69.24,10.2-.53,15.62.85,6.38,1.62,9.79,5.33,9.83,10.83s-3.45,9.77-9.61,11.06c-9.85,2.06-19.89.78-29.84,1.1-2,.07-2-1.23-2-2.62,0-6.15.09-12.31,0-18.45C497.46,209.33,498.08,208.6,500.29,208.69Zm43,67.78c-2.56,5.22-7.56,6.81-12.83,7.16s-10.29.08-15.44.08v.17c-4.81,0-9.63-.12-14.44.05-2.4.09-3.13-.64-3.07-3.05.16-6.31.08-12.62,0-18.93,0-1.68.13-2.81,2.33-2.75,10.78.3,21.6-.7,32.35.54C542,260.86,547.08,268.72,543.28,276.47Z"/><path class="cls-1" d="M130.55,267.15l4.56-2.42c24.13-12.76,31.09-47.75,13.82-69a10.19,10.19,0,0,0-8.82-4.27c-30.82.19-61.64.1-92.47.1-10,0-10,0-10,10,0,36.15.07,72.3-.1,108.46,0,3.81,1,4.71,4.69,4.6,9.49-.28,19-.33,28.48,0,4.17.15,5-1.3,4.84-5.06-.26-8.49-.08-17-.08-25.49,0-10.92,0-10.75,10.94-11,4-.09,6.27,1.19,8.41,4.55,7.21,11.36,14.78,22.5,22.26,33.69,1,1.43,1.56,3.23,4,3.21,13.58-.09,27.15,0,41.73,0Zm-23.9-24.39c-9.58,1.73-19.28.42-28.92.82-2.26.09-2.28-1.3-2.27-2.9,0-4.5,0-9,0-13.5s0-9,0-13.49c0-1.69.19-2.91,2.38-2.81,9.63.44,19.33-.93,28.9.81,8.63,1.56,13.58,7.22,13.72,15.26S115.33,241.19,106.65,242.76Z"/><path class="cls-1" d="M626.81,129Q600.5,66.73,574.42,4.35a3.68,3.68,0,0,0-4.06-2.63c-10.32.12-20.65.14-31,0-2.33,0-3.11,1-3.89,2.85q-26,62.18-52.17,124.29c-1.47,3.49,0,3.48,2.62,3.43,6.81-.14,13.6.57,20.43,0,4.94-.4,10.85,1.34,14.62-.83s4.34-8.61,6-13.26c1.06-3,2.64-3.57,5.47-3.53,11.32.14,22.64,0,34,.07,4.64,0,10.13-1.37,13.7.63s3.79,8.1,5.65,12.32a7.42,7.42,0,0,1,.6,1.36c.51,2.59,2,3.33,4.63,3.24,5.48-.2,11-.06,16.48-.06,5.66,0,11.32-.07,17,0C627.09,132.33,628.09,132,626.81,129ZM542,84.94c-1.67,0-2.06-.67-1.49-2.11l14.15-35.47c4.82,12.18,9.19,23.2,13.53,34.23.35.91.53,1.89.93,3.33C559.89,84.92,551,84.9,542,84.94Z"/></g></g></svg>