<svg xmlns="http://www.w3.org/2000/svg" viewBox="0 0 1535.98 475.03"><defs><style>.cls-1{fill:#a8a9a5;}</style></defs><g id="Capa_2" data-name="Capa 2"><g id="Capa_1-2" data-name="Capa 1"><path class="cls-1" d="M292.47,59.46q-110.22,0-220.43,0c-18.65,0-37.31,1.25-55.95-.29C9.76,58.68,9,58,8.9,51.61c-.15-14.49-.13-29-.07-43.48,0-5.57,1.6-6.89,7.84-7.07,37-1.09,74-.6,111-.64Q321.82.18,516,0c12.66,0,25.32,0,38,.76,4.63.28,6.94,2.42,7.94,6.71,3.47,14.91,7.09,29.78,10.51,44.71,1.25,5.47.07,6.62-6.54,6.64q-59,.24-118,.38-77.73.09-155.46,0Z"/><path class="cls-1" d="M651.18,92.26c5.67,0,11.34-.08,17,0,4.5.09,7.39,2,8.42,6.83q9.39,43.19,19,86.32Q707,236.1,718.73,286.72c.56,2.42.43,6.6,3.43,6.45,2.84-.14,2.34-4.23,2.86-6.74q7.88-37.85,15.69-75.72,11-53.28,22-106.57c2.19-10.63,3-11.16,13.94-11,12.66.13,25.33.16,38,.23,4.74,0,6,1.55,4.81,6.12Q800.57,173,781.7,246.5c-9.4,36.6-18.92,73.17-28.25,109.79-8.4,32.91-16.6,65.87-24.93,98.79-1.39,5.49-3,10.91-4.5,16.37-.44,1.58-.59,3.67-2.75,3.58s-2.15-2.24-2.57-3.8c-9.17-33.73-16.75-67.86-25.6-101.66-7.8-29.79-15.39-59.64-23.4-89.37C660,244,651.33,207.56,641.78,171.34c-6.15-23.34-11.86-46.79-17.63-70.22-1.47-6-.55-7.24,5.58-8.23C636.86,91.73,644,92.48,651.18,92.26Z"/><path class="cls-1" d="M883.32,473.89c-38.63,0-66.77,0-94.9-.05-4.82,0-9.63-.55-14.45-.88-5.31-.37-6.34-1.39-5.22-6.42,3-13.47,5.74-27,9.81-40.22.59-1.91,1.2-3.81,1.69-5.75,2.15-8.49,2.48-9.12,11.44-9.23q44.44-.54,88.9-.62c24.63-.06,49.27.24,73.91.18,5.34,0,8.13,1.93,9.57,7.23,4.36,16.06,8.53,32.16,11.91,48.45,1.15,5.57.39,6.34-5.29,6.64C938.08,474.93,905.44,473.31,883.32,473.89Z"/><path class="cls-1" d="M1342.22,442.13c0-7.66.16-15.32-.06-23-.12-4.23,1.4-6.19,5.72-6.12,3.32,0,6.64-.26,10-.42s5.12,1.29,5.13,4.62q0,24.72,0,49.43c0,3.39-1.85,4.81-5.17,4.31a40.25,40.25,0,0,0-10.46,0c-3.75.43-5.08-1.27-5-4.87.12-8,0-16,0-24Z"/><path class="cls-1" d="M1501.1,412.25c8.16,0,16.31,0,24.47,0,4.82,0,6.35,2.6,6.07,7.06-.33,5.25-1.92,6.9-6.92,6.87-10.81-.08-21.63-.11-32.45-.16a16.55,16.55,0,0,0-2,.07c-3.35.4-5.08,2.23-4.91,5.67.17,3.24,2.26,4.12,5.08,4.21,11.14.35,22.28.94,33.43,1,4.86,0,7.19,1.68,7,6.63-.3,6.82-.43,13.64-.76,20.45-.19,4.06-2.15,6.27-6.53,6.56-18.3,1.21-36.61.39-54.91.66-4.2.06-4.74-2.84-5.06-6-.77-7.58-.32-7.68,6.94-7.48,12.14.35,24.3.12,36.45.15,2.84,0,3.75-1.61,3.75-4.15s-.53-4.82-3.56-5c-4.15-.3-8.31-.4-12.47-.47-8.32-.13-16.64.2-24.93-.9-3-.4-4.5-1.73-4.68-4.7-.53-8.32,0-16.62.35-24.93.15-3.47,2.52-4.63,5.73-5C1481.13,411.63,1491.12,412,1501.1,412.25Z"/><path class="cls-1" d="M29.81,365.9c-.42-3-3.16-4.08-5.07-5.78A77.89,77.89,0,0,1,.36,319.39c-1-4.35.2-7.2,3.88-9.08,7-3.58,14.1-7,21.16-10.43a4.39,4.39,0,0,1,3.07-.13c.65,2.83-1.85,3.19-3.41,3.95-5.08,2.49-10.22,4.85-15.3,7.35C3.7,314,2.6,315.69,4.58,322c8.15,26,24.78,43.55,51.5,50.9,10.81,3,21.86,4.47,33,5.59,6.48.65,13-.64,19.33-1.79,17.31-3.12,33.5-8.79,46.58-21.23,1.2-1.14,2.45-2.35,4.38-1.78,1.53,2.12-1.22,2.34-1.61,3.62-8.37,9.07-19.15,14.43-30.51,18.2-14.74,4.9-30,7.8-45.69,5.67-1.08-.15-2.33-.61-3.23.56-9.26-1.49-18.58-2.51-27.53-5.65a138.75,138.75,0,0,1-18.13-8Z"/><path class="cls-1" d="M344.31,473q-155.43,0-310.88,0c-6,0-12-.61-18-.73-3.75-.07-5.55-1.78-5.54-5.47q0-25,.1-50c0-3.45,1.82-5.2,5.27-5.25,5.66-.07,11.33-.29,17-.2,70.47,1.08,140.94.41,211.41.5q200.93.25,401.84.06c13,0,13.3,0,16.66,12.51,3.75,14,6.88,28.12,10.36,42.18,1.1,4.41-.83,5.44-4.88,5.54-32,.81-64,0-95.95.08q-113.7.19-227.41,0Z"/><path class="cls-1" d="M1253.59,2.11h261.88c1.67,0,3.34.06,5,.08,3.22,0,5,1.52,5,4.85.08,15.32.15,30.63-.81,45.94-.23,3.79-2.52,4-5.42,4.17-17.64,1-35.27.55-52.92.28-25.65-.39-51.31-.16-77-.15-26.95,0-53.91.12-80.86.1q-163.9-.1-327.8-.3c-4.64,0-9.29-.68-13.94-.81-2.73-.08-3.67-1.3-3-3.76,2.58-9.8,5.16-19.61,7.89-29.37,1.39-5,3.23-9.79,4.61-14.76,1-3.48,2.7-5.21,6.54-5.56,6.82-.64,13.64-.6,20.46-.6q125.19-.06,250.38,0Z"/><path class="cls-1" d="M1321.65,419.46c-.15-4.23-2.56-6.22-6.74-6.43-19.31-1-38.61-1-57.92-.08-4.39.2-6.25,2.2-6.18,6.55.13,7.83,0,15.65,0,23.48h-.41c0,7,.07,14,0,21s0,7.06,6.84,7c12-.2,12.11-.19,14.28-12.16.67-3.69,2.54-5.11,6.23-4.56,3.12.47,6.28.75,9.43.92,9.07.47,9.17.42,10.48,9.56.63,4.31,2.39,6.67,7.16,6.18a54.68,54.68,0,0,1,8,.22c7.21.32,7.69-.36,5.2-7-1.7-4.56-2.89-9,2.57-12.18,1.51-.88,1.85-2.72,1.81-4.45C1322.17,438.09,1322,428.77,1321.65,419.46Zm-21,22.54c-1.24,1.14-2.78.95-4.25.9-7-.22-13.89-1.14-20.86-.17-.92.13-2.31.06-2.81-.5-3.27-3.71-2.14-8.12-1.4-12.3.54-3.07,2.57-4.9,6-4.83s6.63,0,10,0v.33c2.31-.14,4.63-.32,7-.42,2.84-.12,5.77-.37,7.23,2.94C1302.87,431.12,1302.34,440.49,1300.7,442Z"/><path class="cls-1" d="M288.61,3.19H549.53c8.79,0,9.22.65,11.1,9.18,2.77,12.63,6,25.18,8.94,37.78,1.26,5.3.21,6.57-5.14,6.57l-528.7.46c-6,0-12-.16-18,0-4.14.07-6.14-1.51-6.1-5.86q.15-21.24,0-42.47C11.57,5,13.32,4.16,16.78,4,50.4,2.28,84,3.4,117.67,3.26,174.65,3,231.63,3.19,288.61,3.19Z"/><path class="cls-1" d="M725.57,457l-4.24,12.05c-2.21-6.89-4.29-12.39-5.72-18.05-6.22-24.59-12.21-49.23-18.2-73.88-7.53-30.94-16.32-61.58-24.34-92.4-5-19.27-9.52-38.67-14.43-58-6.27-24.6-12.4-49.25-19.18-73.71-4.62-16.62-8.37-33.43-12.39-50.18-1.38-5.76-.49-7.44,5.46-7.59,12.15-.32,24.32-.16,36.47-.11,4.28,0,5.49,3.32,6.2,6.66,2.47,11.52,4.74,23.08,7.2,34.59s5,23,7.59,34.47q8.31,37.16,16.67,74.31c3.31,14.81,6.53,29.64,9.91,44.43.35,1.53.56,3.28,1.9,4.46,3.33,3.48,3.92,3.48,7,0,2.1-17.41,7.06-34.24,10.49-51.38,3.91-19.57,7.29-39.27,12-58.64,3.08-12.66,4.65-25.61,8.2-38.16,1.55-5.49,1.1-11.47,3.42-16.87,1.35-2.82,1.25-6,2-8.93.15-3.45.37-6.9,2-10.07,1.62-3.81,1.47-8.08,3-11.92h0c1.09-2,2.78-2.54,5-2.53,14,.07,27.91.14,41.86,0,4.88-.06,3.9,2.67,3.19,5.52-3.06,6.34-3.15,13.42-4.91,20.09-4.18,15.77-8.18,31.61-12.18,47.43-3.4,13.43-6.85,26.9-10.4,40.31-8.75,33.16-17.94,66.2-25.78,99.61-4.25,18.12-10.13,35.85-14.31,54-2.11,9.14-5.84,17.9-6.52,27.37-1.35,3.94-1.62,8.17-3.28,12-2.39,9-5.27,17.8-6.7,27-1,2.95-.79,6.18-2.29,9a13.25,13.25,0,0,0-1.78,7.88C727.68,449.58,726.16,453.17,725.57,457Z"/><path class="cls-1" d="M816.61,101.09c.59-3.84-.84-5.11-4.89-5-12.75.25-25.52.08-38.27,0-2.59,0-4.93.27-6.88,2.1.18-2.35,1.66-3,3.75-3,14.78,0,29.56-.08,44.34.07C820.31,95.22,817.94,98.45,816.61,101.09Z"/><path class="cls-1" d="M739.23,401.92c.7-4.12,1.2-8.29,3.28-12A23.79,23.79,0,0,1,739.23,401.92Z"/><path class="cls-1" d="M766.57,98.1c-.55,4.09-.62,8.3-3,11.92C764.13,105.94,764.18,101.73,766.57,98.1Z"/><path class="cls-1" d="M725.45,294.07c0,2.08-1.25,2.87-3.15,3a3.27,3.27,0,0,1-3.83-3C720.8,296,723.13,296.58,725.45,294.07Z"/><path class="cls-1" d="M761.58,120.09c0,3.14.15,6.29-2,8.93A22.39,22.39,0,0,1,761.58,120.09Z"/><path class="cls-1" d="M730.24,437.91c.5-3.06.61-6.22,2.29-9C732.72,432.16,732.37,435.26,730.24,437.91Z"/><path class="cls-1" d="M1046.45,195a36.24,36.24,0,0,0,3.2-11.88,99.51,99.51,0,0,1,1.82-11.1c2-5.49,3.92-11,4.13-16.9.79-3.26.69-6.71,2.08-9.85,3.81-14.08,6.25-28.45,8.82-42.79.63-3.51,1.65-6.42,5.91-6.51a5.63,5.63,0,0,1,1.71-.73c13.74-.17,27.48-.15,41.21-.11a5.31,5.31,0,0,1,3.35.7,6.23,6.23,0,0,1,0,6.39c-2.79,11.91-5.66,23.81-8.35,35.74-3.56,15.79-8.9,31.13-11.87,47.07-2.64,3.65-2.94,8-3.75,12.22-.46,6.88-3.68,13.09-4.73,19.89-.93,6-3,11.91-4.56,17.86-2.11,5.24-2.48,11-4.71,16.2-1.21,9.14-4.54,17.79-6.18,26.84-7.2,26-13.24,52.41-20.59,78.43-5.83,20.61-10.91,41.42-15.89,62.26-3.59,15-7.43,30-12,44.76-.3.95-.59,1.91-1,2.83-.47,1.13-1.06,2.16-2.47,2.08s-1.88-1.26-1.95-2.47c-.23-4.5-2.13-8.61-3-13-2.24-8.32-4.83-16.57-6.65-25-3.93-18.24-9.13-36.17-13.75-54.22-3.68-14.38-6.81-28.94-11.23-43.15-2-6.34-3.05-13-4.53-19.47-7.31-27.77-14.27-55.64-21.6-83.41C952,198,944.66,168.2,937.32,138.38c-3-12.26-6.52-24.4-9.05-36.78-1.19-5.81-.31-7.17,5.63-7.45,3.66-.17,7.33-.18,11,0,7.51.34,14.94-.79,22.41-1,8.68-.2,8.65.24,10.42,8.66,1.6,7.61,3.74,15.1,5.39,22.72,2.87,13.28,5.94,26.52,8.76,39.82,4.34,20.43,8.4,40.91,13.44,61.19,2.59,10.46,4.25,21.15,7.1,31.56q2.13,10.39,4.25,20.81c1.39,4.63,1.05,9.51,2,14.21.39,1.68,1,3.45,3,3.31,2.64-.18,3.84-2.29,4.74-4.52l6.09-29.9c2-4.8,3.57-9.71,3.19-15,.28-1,.56-2,.83-2.95,1.92-2.87,1.78-6.29,2.52-9.49s.9-6.35,1.49-9.5c2.32-5.41,3.28-11.16,4.14-16.93C1045.12,203.06,1045.78,199,1046.45,195Z"/><path class="cls-1" d="M1012.41,257.12c-3.28-5.91-3.9-12.58-5.32-19-6.7-30.47-13.23-61-19.91-91.47-3.22-14.71-6.29-29.45-10.2-44-2.29-8.54-2-9.09-10.78-8.27-10.65,1-21.29.31-31.92.75-5.95.25-6.29.68-5.08,6.52,6.1,29.43,15,58.17,21.69,87.43,7.23,31.38,17.1,62.08,23.88,93.57,1.64,7.62,3.94,15.09,6,22.61a14.61,14.61,0,0,1,.64,5.9c-3.41-4-3.31-9.32-4.44-14-7-29.11-15.68-57.79-22.65-86.89-8.8-36.72-19.05-73.06-27.52-109.85-.91-3.95-.28-6.59,4.45-6.78,3-.11,6-.72,9-.61,10.81.38,21.6-1.27,32.42-.27,3.11.29,5,1.48,5.58,4.58,2.6,13.88,6,27.59,9.09,41.35,3.23,14.27,5.82,28.68,8.94,43,5.12,23.4,10.45,46.75,15.71,70.11C1012.37,253.52,1013,255.26,1012.41,257.12Z"/><path class="cls-1" d="M1017.6,453c2.24,3.53,2.83,7.58,3.69,11.55.23,1-.22,2.74,1.25,2.93,1.83.25,1.82-1.59,2.15-2.77,3.31-12,7.06-23.83,10-35.93,7.38-30.27,14.75-60.55,23.23-90.55,4.9-17.38,9.13-34.95,13.59-52.45.69-2.72,1.29-5.42,3-7.71-.59,8.69-3.65,16.84-5.71,25.2-9.92,40.34-21.67,80.21-31.28,120.64-3.5,14.72-7.31,29.35-12.07,43.71-.61,1.86-.75,5.06-3.37,4.74-2.15-.26-2-3.36-2.06-5.17C1019.89,462.29,1017.25,457.88,1017.6,453Z"/><path class="cls-1" d="M1118.65,102.22q-.11-3-.19-5.94c-.59-.76-1.44-.69-2.26-.69q-20.17,0-40.34,0a2.83,2.83,0,0,0-2.31.62l-1.14-.24c.67-2.29,2.62-1.7,4.16-1.71,13.15-.1,26.3-.13,39.46-.19,1.86,0,4-.12,4.43,2.19C1120.83,98.38,1121.65,101,1118.65,102.22Z"/><path class="cls-1" d="M1080.68,251.2c.64-5.67,1-11.43,4.71-16.2C1084.79,240.68,1084.66,246.5,1080.68,251.2Z"/><path class="cls-1" d="M1035.69,246c1.55,5.57.63,10.61-3.19,15C1032.48,255.79,1034.4,251,1035.69,246Z"/><path class="cls-1" d="M1018.46,293.13c-2.56-4.84-1.86-10.06-1.8-15.2a1.14,1.14,0,0,1,.88.31c.38,4.74,1.85,9.37,1.42,14.2Z"/><path class="cls-1" d="M1039.61,234.07c-.51,3.17.56,6.89-3.09,9-.38-3.21.88-6.12,1.7-9.11A.83.83,0,0,1,1039.61,234.07Z"/><path class="cls-1" d="M1026.41,290.93c.44,2.84-1.05,4.51-3.58,5.08-2.19.49-4-.36-4.37-2.88l.13-.13c.37-.39.71-.4,1,.05.94,1.31,1.86,2.33,3.45.67A37.25,37.25,0,0,1,1026.41,290.93Z"/><path class="cls-1" d="M1019.63,293.05l-1-.05-1.05-14.76C1019.55,283,1019.1,288.09,1019.63,293.05Z"/><path class="cls-1" d="M1094.68,197.25c.15-4.41-.08-8.94,3.75-12.22C1097.26,189.13,1096.65,193.4,1094.68,197.25Z"/><path class="cls-1" d="M1046.45,195a23.89,23.89,0,0,1-1.78,12.13A27.72,27.72,0,0,1,1046.45,195Z"/><path class="cls-1" d="M1051.47,172c.61,3.9-.56,7.51-1.82,11.1A18.94,18.94,0,0,1,1051.47,172Z"/><path class="cls-1" d="M1057.68,145.27c-.09,3.41-.31,6.79-2.08,9.85C1055.45,151.66,1055.68,148.28,1057.68,145.27Z"/><path class="cls-1" d="M1039.61,234.07l-1.39-.13,2.31-9.88C1041.3,227.49,1040.12,230.75,1039.61,234.07Z"/><path class="cls-1" d="M342.8,374.52c-2.85,3.4-7.09,3-10.81,3.87-27.44,6.43-54.36,3.68-80.5-5.95-25.05-9.24-38.35-27.74-39.72-54.47-2.51-48.76-1.83-97.58-2.36-146.37q-.36-33-.47-65.95c0-12.78.64-13.34,13.67-13.37,10.5,0,21-.06,31.49.06,7.15.08,8.33,1.16,8.73,8.38,1.22,21.8.45,43.63.56,65.44.19,39.81.14,79.62.22,119.44,0,11.7.47,23.25,6.5,33.91,4.34,7.66,9.9,13.22,18.84,14.87a65.38,65.38,0,0,0,20.41.58c12.67-1.67,22.1-14,23.27-29.22,1.53-20,1.11-39.95,1.12-59.93q0-69.46-.18-138.93c0-2.84.09-5.67.14-8.5.06-3.62,2-5.67,5.5-5.82,14-.58,28-.82,41.94.4,2.88.25,4.11,2.06,4.32,4.61.23,2.82.25,5.66.24,8.49q-.16,106.45-.4,212.89c-.07,25.74-15.63,47.35-39.65,55.6-.93.32-1.87.82-2.69-.22-1.14-2.63,1.3-2.89,2.61-3.59,2.78-1.49,5.84-2.43,8.61-4,17-9.57,25-24.55,27.06-43.48a227,227,0,0,0,.81-24.45q0-95.2,0-190.42c0-1.17,0-2.33,0-3.5,0-8.15-.12-8.29-8.47-8.24-10,0-19.88-2.12-29.9-.29-6.34,1.16-6.52.94-6.53,7.48q0,58.47,0,117,0,35.49,0,71a91.12,91.12,0,0,1-2.49,21.79c-2.17,8.87-6.52,16.35-14.63,21.22a23.77,23.77,0,0,1-12.25,3.77c-4.17,0-8.34-.07-12.5,0-10.66.27-18.92-3.85-25.16-12.63-6.73-9.46-9.74-20-10-31.39-.33-15.64-1-31.34-.74-46.92.52-27.48,1-55,.5-82.42-.35-20.77.51-41.57-.81-62.33-.36-5.58-.76-6.19-6.53-6.23q-16.25-.12-32.5,0c-6.7,0-7.81,1-7.85,7.91-.13,22-.84,44,.16,66,1.29,28.32-.21,56.64.94,84.92.85,20.95.27,41.94,1.87,62.87,2.07,27.09,16.29,44,41.59,52.16a166.9,166.9,0,0,0,42.66,7.79c12.37.64,24.52-2,36.58-4.64C338.29,373.13,340.89,371.68,342.8,374.52Z"/><path class="cls-1" d="M873.08,471q-45.45,0-90.92,0c-11.64,0-12-.66-9.14-11.92,3.29-12.84,5.76-25.88,9.57-38.6,1.33-4.46,3.13-6.55,8.19-6.54q81.93.22,163.86,0c4,0,6,1.21,7,5.19,4,15,7.79,30.12,11.16,45.31,1.16,5.25.57,6.19-4.82,6.49-4.16.23-8.33.17-12.49.17H873.08Z"/><path class="cls-1" d="M895.31,235.45q0,66.18,0,132.37c0,8.13-.24,8.13-8.53,8.53a261.82,261.82,0,0,1-31.94-.24c-6.88-.51-7.21-.71-7.22-7.74q-.06-92.67-.05-185.33,0-40,.21-79.92c0-8.14.86-8.78,8.79-9.21,10.65-.58,21.29-1,31.93,0,6.33.56,6.81,1,6.83,7.7q.09,43.71.13,87.42,0,23.22,0,46.46Z"/><path class="cls-1" d="M1524.46,159.11a155.2,155.2,0,0,0-7.5-22.48,61.61,61.61,0,0,0-25-28.73c-10.77-6.47-22.57-9-35.06-10-19.75-1.66-39.53-1.22-59.27-2-11.64-.48-23.26-.56-34.9-.64-6.34,0-7.21,1-7.24,7.24,0,8.33-.07,16.66,0,25,.1,20.63-1.69,41.24-.81,61.87,1.55,36.94.43,73.88.79,110.83.11,10.47-1.59,20.91-.81,31.38.95,12.62.81,25.25.82,37.88,0,3,1,4.34,4.22,4.75,14.11,1.79,28.26.57,42.38.82,4.21.07,5.51-2.4,5.49-6.51-.14-30.47-.11-60.95-.11-91.43,0-7.44,1-8.34,8.51-9.08,5.86-.58,11.7-2.23,17.52.13-3.91,1.3-8.06-.38-12,1a40.82,40.82,0,0,1-4.87.89c-8.07.55-8.08.51-8.06,8.81q.07,34.22.16,68.44c0,7.81-.08,15.62,0,23.42,0,3.6-1.14,5.38-5.11,5.69-15.15,1.17-30.26.55-45.39-.43-2.4-.15-3.73-1.09-4-3.51-.2-2-.6-4-.6-5.94q0-131.14,0-262.29c0-8.7.64-9.21,9.1-10.22,10.64-1.26,21.24-.36,31.88,0,17.8.64,35.62.59,53.41,1.29,16.73.66,33.18,2.77,47.44,12.86a64.31,64.31,0,0,1,19.51,21c.65,1.15,1.1,2.44,2.37,3.13,2.14,6.7,6.32,12.67,7.13,19.85C1525.07,154.41,1525.5,156.77,1524.46,159.11Z"/><path class="cls-1" d="M1421.49,269c3.85-2,8-.54,12-1a7.51,7.51,0,0,1,.19.82Z"/><path class="cls-1" d="M13.59,134.93c0-1,0-1.94,0-2.92A77.09,77.09,0,0,1,49.72,98.15c33-15.15,64.75-13,94.29,8.71,8.85,6.48,16.44,14.57,20.68,25.12a3.25,3.25,0,0,1,.21,3c-1.85.78-2.32-.8-2.91-1.86-11.05-19.87-27.87-32.39-49.72-37.82-32.13-8-60.19.22-84.16,22.77C24,122,20.93,126.78,17.79,131.5,16.78,133,16.24,135.33,13.59,134.93Z"/><path class="cls-1" d="M164.63,135.11l.06-3.13c1,1.71,2.15,3.35,3,5.14,2.92,6.44,2,8.89-4.12,12.64-11,6.76-21.33,14.69-33.21,20.07-5.61,2.54-6.34,2.58-8.95-3.24-2.93-6.52-6.16-12.83-10.76-18.41-7.52-9.13-17.45-12.25-28.85-8.73-1.26.39-2.57.57-3.86.84l-.46-.68c1.11-3.3,4.12-3.2,6.75-3.8,3.51-.09,7-.18,10.55.05,10.13,1.07,17.08,6.73,22.09,15.26,1.86,3.15,3.74,6.3,5.3,9.61,3.73,7.91,3.83,8.07,11.69,3.82,10-5.4,19.18-12,28.73-18.08,2.37-1.51,3.08-3.77,2.48-6.52C164.69,138.37,163.77,136.81,164.63,135.11Z"/><path class="cls-1" d="M102.45,202.17c2,3.16,7.22,2.44,8.34,6.75-1.82,1.64-3.48.36-5-.46-9.17-5-18.59-9.6-27.28-15.33-8.11-5.34-14.58-12.51-16.21-22.79-.06-3.26,0-6.51,0-9.76.12-4.46.54-8.82,4.26-12a3.11,3.11,0,0,1,3.1-.48c-3.07,6.48-5.89,13-4.57,20.49A30.83,30.83,0,0,0,78.9,189.21C86.34,194.11,94,199,102.45,202.17Z"/><path class="cls-1" d="M69.63,148.09l-2.25.87c.6-5.1,5.38-9.43,10-9.08a6.4,6.4,0,0,0,.5.41Z"/><path class="cls-1" d="M1113.94,470.21c-9.16.18-18.31.11-27.45-.56-2.93-.21-5.13-1.13-5.66-4.45-.69-4.31.8-6.25,5.23-6.27q19-.06,38,0c2.54,0,4.72-.56,5.77-3a6.4,6.4,0,0,0-.76-6.63c-1.8-2.35-4.5-1.78-6.94-1.81-9.64-.12-19.29-.15-28.94-.26a34.54,34.54,0,0,1-5.47-.49c-3.54-.62-5.76-2.71-5.83-6.4-.11-6.49-.17-13,.05-19.47.14-4.08,2.75-6.31,6.72-6.74,4.3-.46,8.62-1,12.93-1,14.32-.12,28.63,0,43-.07,3.8,0,6,.95,5.83,5.33-.28,5.38-1.61,7-6.15,6.9q-18.21-.22-36.44-.33c-4.76,0-6.85,2.11-6.88,6.51,0,4.56,2.69,5.38,6.53,5.48,11.81.32,23.61.93,35.42,1.24,4.46.12,6.55,1.91,7,6.51a103.62,103.62,0,0,1-.1,17.44c-.36,4.45-2.62,6.86-7.28,7.26C1132.91,470.2,1123.43,470.25,1113.94,470.21Z"/><path class="cls-1" d="M1199.14,470c-8.83,0-17.65-.11-26.47.05-3.52.06-4.82-1.55-4.84-4.76-.11-15.66-.19-31.32-.39-47,0-3.56,2-4.84,4.94-5,18.31-.83,36.63-.72,54.95-.08,4.14.14,4.62,3,4.52,6.31s-1.58,4.73-5,4.76c-10.82.07-21.64.38-32.46.5-5.14.06-6.91,1.77-7.08,6.74-.16,4.76,2.27,5.79,6.56,5.78,11,0,22,.48,32.95.49,3.59,0,4.27,1.86,4.24,4.65s-.73,4.79-4.26,4.75c-10.66-.1-21.32.12-32,0-6.27-.06-8.19,1.88-7.48,8,.38,3.27,1.9,4.36,5.31,4.28,11.32-.26,22.65-.05,34-.19,3.83,0,4.46,2.29,4.35,5.19s-.14,5.83-4.4,5.78C1217.45,470.16,1208.3,471.23,1199.14,470Z"/><path class="cls-1" d="M1496.64,468.85c-9.14.37-18.26-.31-27.39-.52-3-.07-2.64-1.76-2.83-3.54-.3-2.69.62-3.91,3.59-3.88,11.66.13,23.32.1,35,.06,5.91,0,7.84-2.05,7.66-7.83-.15-5-2.21-7-7.59-7.07-8.32-.11-16.66.18-25-.12-14.3-.51-13.45-1-13.38-13.38,0-4.31.59-8.61.81-12.92.18-3.56,2.62-4.25,5.45-4.56,17.27-1.89,34.54-.27,51.81-.1,2.76,0,3.82,1.37,3.84,4,0,3-1.44,4.09-4.32,4.08q-16-.12-32,0c-5.59,0-8.63,2.58-8.92,7.24-.38,6.12,1.73,8.42,8,8.63,10.8.35,21.59.75,32.4.94,3.44.06,4.68,1.41,4.7,4.8,0,6.66-.43,13.29-1,19.91-.25,2.89-2.06,3.27-4.47,3.5A213.59,213.59,0,0,1,1496.64,468.85Z"/><path class="cls-1" d="M1415.27,470.18c-9.17,0-18.33-.07-27.49.05-2.75,0-4.06-1-4-3.73q0-24.75.07-49.48c0-2.84,1.53-4.28,4.4-4.25q27.75.28,55.49.59c3.12,0,5.18,1.35,4.8,4.87-.35,3.21-1.28,5.79-5.35,5.82-10.83.11-21.65.46-32.48.58-5.11.05-7.12,1.73-7.34,6.48-.23,5.05,2.8,6.13,7,6.25,9.82.27,19.64.67,29.47,1,3.15.12,6.18.38,5.94,4.8-.24,4.2-3.27,3.95-6.14,4-9.83.16-19.65.35-29.48.43-4,0-7,.91-6.95,5.72,0,4.61,2.7,5.89,6.85,5.84,11-.11,22,0,33-.09,3.19,0,5.66.21,5.5,4.39-.15,3.63-.53,6.78-5.27,6.76-9.33,0-18.66,0-28,0Z"/><path class="cls-1" d="M77.4,139.88c-4.79,1.43-7.45,5.21-10,9.08-3.08,3-4,6.78-3.81,11a29.21,29.21,0,0,0,0,11.22c1.46,9.23,7.57,15.72,14.55,20.48,9.51,6.5,20.14,11.37,30.28,16.95a2.5,2.5,0,0,0,2.34.35,1.18,1.18,0,0,1,.81.24c2.85,1.75,6,2.94,8.78,4.81,7.43,4.31,14.6,9,21.59,14,14.29,10.2,26.28,22.18,32.83,38.93a90.58,90.58,0,0,1,5.61,24.52c1.58,16.74-.61,33.13-9.1,48.05-3.05,5.36-6.11,10.91-11.78,14.2-6.4,5-12.5,10.2-19.74,14.14-11.63,6.32-24.13,9.47-37,11a109.75,109.75,0,0,1-61-9.91C20.4,358.74,7.21,341,2.14,317.67c-.94-4.34,3.21-5.7,6.16-7.37,6.63-3.73,14-6,20.38-10.24,5-2.17,10-4.37,15.1-6.5,5.59-2.35,7.06-1.69,9.18,4.17,1.64,4.53,3,9.15,4.78,13.65,4.93,12.75,13,21.41,27.51,23.52,12.44,1.81,23.25-1,32.24-9.23,14.32-13,14.62-33.43,2-48.36-11.07-13.12-25.87-20.55-40.69-28-17.91-9-36.41-17.12-51.15-31.28-8.41-8.07-16-16.8-18-28.92-.82-3-1.16-6.06-1.95-9h0a70.8,70.8,0,0,1-.07-26c1-6.7,2.16-13.33,5.94-19.15,2.67-3.77,5.3-7.56,8-11.28C30.3,111.8,42,104,55.36,98.26,68.05,92.84,81.25,90.14,95,91.1c15.22,1.07,29.5,4.94,42.36,13.9a90.81,90.81,0,0,1,22.75,21.91c1.85,2.62,2.26,5.9,4.52,8.2,3.58,8.64,3.34,9.31-4.6,14.37-9.53,6.06-18.59,12.87-28.85,17.75-5.93,2.81-6.38,2.59-9.18-3.55a112.77,112.77,0,0,0-5.9-11.47c-4.69-7.76-10.7-13.94-20.32-15.18a33.91,33.91,0,0,0-12.26,0C81.37,137.73,78.88,137.73,77.4,139.88Z"/><path class="cls-1" d="M159.53,353.65c19.9-21.41,23.43-46.63,17.81-74.26-4.53-22.3-17.93-38-36-50.49-7.24-5-14.59-9.81-21.89-14.7a1.47,1.47,0,0,1,2.22-.13c22.78,12.21,44.16,26.42,53.61,51.81,11.32,30.39,9.87,59.84-11.66,86.16-1.67,2-3.26,4.24-5.88,5.25C158.32,356.08,158.93,354.87,159.53,353.65Z"/><path class="cls-1" d="M121.64,214.07l-2.22.13c-3-1-6.1-2-7.82-5C115.72,209.22,118.83,211.35,121.64,214.07Z"/><path class="cls-1" d="M1524.46,159.11c0-2.35,0-4.7,0-7.05,3.25,9.56,3.77,19.54,3.64,29.43-.2,15.2-2.2,30.18-9.66,43.86-6,11-13.22,20.68-25.62,25.25-2.84,1.05-4,3.4-2.41,6.47,3.33,9,6.59,18,10,27,5,13,10,26,15.07,39-.35.49-.7.47-1.06,0-6.07-12.91-10.94-26.29-16-39.6-2.9-7.57-6-15.06-9.06-22.59-2.69-6.69-1.68-9.83,4.72-13,15.54-7.59,24-21.28,28.19-37.73.28-1.08-.09-2.38,1.08-3.16,1.18-3.56,1.21-7.34,2.09-11h0a159.41,159.41,0,0,0-.15-30.89C1523.77,163.34,1524.58,161.16,1524.46,159.11Z"/><path class="cls-1" d="M1514.47,323.05h1.06c6.51,15.46,13.09,30.9,19.47,46.41,2,5,.92,7.33-3.6,7.36-15.61.09-31.24,1.18-46.84-.57-2.69-.3-4.94-1.21-6.07-3.7-3.82-8.44-8.36-16.57-10.93-25.55,4.88,5.6,7.28,12.57,9.7,19.3s6.38,9,13.07,8.83c12.3-.24,24.61,0,36.92,0,6.49,0,7.6-1.71,5.07-7.83-5.31-12.86-10.68-25.7-16-38.56C1515.59,326.87,1515.08,324.93,1514.47,323.05Z"/><path class="cls-1" d="M1073.55,96.21c.93-1.31,2.33-1,3.62-1q18.88,0,37.76,0c1.27,0,2.71-.35,3.53,1.14Z"/><path class="cls-1" d="M342.8,374.52c-6.09-.74-11.69,1.82-17.48,2.87-14.87,2.69-29.53,3.19-44.44,0-11.68-2.47-23.57-3.89-34.4-9.34-17.91-9-29.48-22.71-31.89-43.21-1.2-10.24-1.66-20.51-2-30.81-1.19-37.95-.32-75.92-1.25-113.85-.62-25.31-.33-50.6-.59-75.89-.09-8.86.46-9.31,9.29-9.32,11.5,0,23,.21,34.48-.09,4.94-.13,6.27,1.71,6.26,6.38,0,12.27.58,24.54.62,36.82.11,31.43.74,62.88-.18,94.29-.61,21,1,41.88.56,62.83-.31,13.32,4.63,25,13.62,34.82,4.1,4.48,9.66,6.43,15.61,6.89,4.14.32,8.34-.1,12.49.23,16.05,1.3,26.91-10.48,30-24.94a99,99,0,0,0,2.16-20.77q-.06-94.19,0-188.38c0-7.59.08-7.08,7.33-8.19,12.18-1.87,24.23.82,36.34.21,4.72-.24,4.29,3,4.29,6.09q0,56.22-.05,112.43,0,48.48-.1,96.95c0,10-1,19.66-4.47,29.3-5.35,14.83-15.45,24.4-29.35,30.78-2.27,1-5.38.78-6.67,3.67Z"/><path class="cls-1" d="M1409.46,142c0,8.95,0,17.91,0,26.87,0,1.44.41,3-1,4.18,0-8.94,0-17.89,0-26.84C1408.52,144.79,1408.19,143.21,1409.46,142Z"/><path class="cls-1" d="M1525.32,165.18c1.23.71,1.14,1.94,1.09,3.06-.35,9.27,1.27,18.62-.94,27.83Z"/><path class="cls-1" d="M1408.42,184q0,14.6,0,29.21c-1.87-4.6-.79-9.41-.77-14.1C1407.68,194,1406.63,188.91,1408.42,184Z"/><path class="cls-1" d="M1413.35,219.16c8.4,1.39,16.87.68,25.31,1C1430.16,221.46,1421.68,222.25,1413.35,219.16Z"/><path class="cls-1" d="M1426.5,137.06c-4.61,2-9.44.64-14.15.94C1417,136.27,1421.78,137.32,1426.5,137.06Z"/><path class="cls-1" d="M1525.47,196.07a20.83,20.83,0,0,1-2.09,11C1523.52,203.26,1523.76,199.53,1525.47,196.07Z"/><path class="cls-1" d="M1448.39,139.12c-2.94-.79-6.13-.48-8.9-2C1442.56,137.3,1445.92,136.27,1448.39,139.12Z"/><path class="cls-1" d="M1442.49,219c2.6-1.31,5-3.08,8.16-2.87C1448.23,218,1445.64,219.3,1442.49,219Z"/><path class="cls-1" d="M7.65,154.09c-1,8.66,0,17.31.07,26A42.61,42.61,0,0,1,7.65,154.09Z"/><path class="cls-1" d="M7.71,180a17.82,17.82,0,0,1,2,9A14.73,14.73,0,0,1,7.71,180Z"/><path class="cls-1" d="M83.52,137a18.67,18.67,0,0,1,12.26,0Z"/><path class="cls-1" d="M63.62,171.14a14.37,14.37,0,0,1,0-11.22C63.59,163.66,63.6,167.4,63.62,171.14Z"/><path class="cls-1" d="M609.06,370c-1.11-3.32-2.21-6.64-3.5-9.89-11.34-28.75-24.41-56.79-35.3-85.73-1.7-4.5-3-9.21-5.29-13.4-3.61-6.67-3.37-8,3.14-11.62,18.53-10.13,28.63-26.27,32.43-46.61a121.43,121.43,0,0,0,.22-44.13c-2.7-14.95-8.27-28.25-18.61-39.48-13.49-14.66-31.52-18.94-50.07-22.12-9.25-1.58-18.6-.75-27.9-1.17-23.41-1.08-46.83-1.21-70.25-.88-2.85,0-4.32,1.1-4.4,4.09-.11,3.82-.66,7.63-.66,11.45q-.08,63.22,0,126.45h0q0,25.49,0,51,0,40,0,80c0,4,.48,6.81,5.76,7.31,13.65,1.29,27.29.49,40.94.59,6.41,0,7.17-.87,7.17-7.23q0-45.74,0-91.47c0-6.11,2.14-8.57,8.15-8.94,5-.3,10-.23,15-.33,4-.09,6.46,1.72,7.9,5.53,3.08,8.08,6.26,16.13,9.68,24.07,10.07,23.35,20.49,46.56,30.27,70,2,4.91,4.7,7,9.7,7.5,14.15,1.47,28.26.41,42.4-.07C609.22,374.83,610.08,373.08,609.06,370ZM536.5,208.13c-10.76,8.8-23.69,10.89-37.11,10.5-14.08-.41-14.13-.58-14.32-14.79-.11-8.15,0-16.31,0-24.47h.41c0-10.65-.16-21.3.06-32,.13-6.13,1.72-7.66,7.7-8.24,10.16-1,20.33-.92,30.29,1.48,17.14,4.12,25.29,16.78,28.28,32.71C554.5,187.84,547.41,199.22,536.5,208.13Z"/><path class="cls-1" d="M1312.3,232.34c-.19-18.3-.53-36.6-.72-54.9-.14-13.14-.5-26.21-4-39-3.94-14.23-10.79-26.31-23.45-34.59-14.86-9.73-31.84-11.84-48.87-13.57-9.64-1-19.24.66-28.78,2-21.32,2.94-38.73,12.15-49.82,31.47-7.45,13-9.53,27.27-9.88,41.72-.57,23.12-.15,46.25-.15,69.38-1.77,17.49-.09,34.92,0,52.4,0,16.77.68,33.46,5.75,49.77,3.6,11.57,9.67,21.11,19.4,28.12,18.09,13,39.33,14,60.41,14.51,7.85.19,15.82-1.3,23.73-2.38,35.42-4.84,49.93-29,54.42-57.32,2.76-17.44,1.42-35.2,1.89-52.8C1312.44,255.54,1312.42,243.93,1312.3,232.34Zm-48,54.27c-.25,10.26-.63,20.57-2.76,30.72s-10.82,18.75-21.27,19.53a135.05,135.05,0,0,1-22.91-.46c-14.91-1.45-20.57-11.73-21.72-24.39-2.15-23.56-1.38-47.2-.37-70.81.32-7.48-.76-15-.4-22.42.55-11.49.22-23,.53-34.43.25-9.15-.14-18.28.95-27.43,1.63-13.57,10.8-22.59,24.43-22.82,7.47-.13,15-.72,22.42.69,10,1.88,15.48,8.54,18.31,17.66,3,9.82,2.39,20.13,2.74,30.2.59,17.47.16,35,.17,52.48C1264.43,252.29,1264.74,269.46,1264.31,286.61Z"/><path class="cls-1" d="M1533.36,367.76q-9.39-22-18.32-44.14c-5-12.88-10.57-25.49-15.07-38.54-3.24-9.41-7.51-18.42-10.7-27.85-1.34-4,.24-6.26,3.47-7.54,9.2-3.68,15.63-10.41,21.11-18.31,5.17-7.48,8.29-15.82,10.45-24.57.58-3.64.86-7.33,2-10.86a9.17,9.17,0,0,0,.18-1.66,259.24,259.24,0,0,0-.11-28.7c-1.19-2.22-.63-4.74-1.16-7.07a88.86,88.86,0,0,0-11.76-30.42c-10.83-17.28-26.59-26.95-46.6-30A240,240,0,0,0,1437.58,96c-25.08-.74-50.14-2.25-75.24-1.33-6.52.24-7.76,1.55-7.82,8.13-.15,18.8,0,37.61-.41,56.41-.38,16,.23,32,.27,47.92.09,36.29.67,72.58-.34,108.87-.47,17.14.79,34.27.47,51.42a22.52,22.52,0,0,0,.26,3.47c.37,2.7,1.66,4.07,4.56,4.21,3.31.17,6.63.67,9.92.74,11.31.23,22.63.74,33.93-.3,3.4-.32,5-2,4.84-5.57-.27-7.46.1-14.93,0-22.4-.19-17.48-.06-35-.06-52.45,0-6.66.06-13.33,0-20,0-3.34,1.31-5.65,4.66-5.92,6.44-.51,12.84-1.79,19.35-1a5.86,5.86,0,0,1,1.69.72,4.93,4.93,0,0,1,3.86,3.47q4.47,11.85,8.87,23.72c1,2.18,2.07,4.34,3,6.54,5.15,11.67,9.32,23.75,14.84,35.27,1.37,2.88,3,5.77,3.3,9.1,3.38,6.49,6.36,13.16,9.19,19.89,3.29,7.82,4.83,9.06,13.46,9.12,12.65.08,25.3.05,38,0C1534.25,376,1535.82,373.53,1533.36,367.76ZM1434.41,218a81.37,81.37,0,0,1-17.42-.78c-4.62-.65-6.68-3-6.64-7.66.09-10.48,0-21,0-31.45h.79c0-10.14-.1-20.29,0-30.43.1-6.61,1.06-7.23,7.49-7.78,10.83-.94,21.5-1.49,32,2.3,11.88,4.26,22,17.81,23.83,30.28C1478.2,197.85,1455,216.47,1434.41,218Z"/></g></g></svg>