<svg xmlns="http://www.w3.org/2000/svg" viewBox="0 0 788.83 277.51"><defs><style>.cls-1{fill:#a8a9a5;}</style></defs><g id="Capa_2" data-name="Capa 2"><g id="Capa_1-2" data-name="Capa 1"><path class="cls-1" d="M0,108.57C6.68,102,13.34,95.46,20.1,89a4.65,4.65,0,0,1,3-.76q32.61-.06,65.22,0a15.78,15.78,0,0,0,14.83-10.94c2-6.3-2.09-11.72-9-11.74-14.93,0-29.86.14-44.79-.1-6.76-.1-13.32-1.66-18.84-6a19.3,19.3,0,0,1-7.53-18.88c2.8-18.31,13.32-31,30.17-38.39A27.62,27.62,0,0,1,66.46.1c1.07.08,2.16,0,3.24,0H781a11.58,11.58,0,0,1,3.87.42c3,1.06,4.39,4,3.78,7.57-.41,2.49-1,5-1.53,7.43-1,4.29-2.93,5.78-7.31,5.78q-79.73,0-159.45,0H49.34l-.13.42,7.89,4.8c-1.17,2.61-2.6,5-3.32,7.55A7.91,7.91,0,0,0,61.55,44c15.93,0,31.87,0,47.81,0a35.3,35.3,0,0,1,15,3.34c8.54,4,13.5,12.48,11.89,21.79-3.34,19.25-14.39,32.4-32.83,39-3.3,1.18-7.12.91-10.7,1.26-.92.09-1.86,0-2.79,0H.44Z"/><path class="cls-1" d="M132.92,234.17c5.71-5.54,11.59-10.92,17.05-16.69a11.88,11.88,0,0,1,9.69-3.95c21.58.2,43.16.11,64.75.08,7,0,12-3.43,15-9.55s-.56-12.31-7.29-13.22a28.55,28.55,0,0,0-3.7-.15c-13.93,0-27.86.19-41.77-.13a44.41,44.41,0,0,1-13.34-2.5c-9.5-3.28-14.28-11-13.78-21,.43-8.59,3.92-16,9-22.75,6.78-9,15.29-15.79,26.61-18.13a47.38,47.38,0,0,1,9.69-.62c20.19-.06,40.38,0,60.57,0H637.08a19.78,19.78,0,0,1,3.7.21,5.85,5.85,0,0,1,4.88,6.16,65.39,65.39,0,0,1-1.93,10c-1,3.64-2.87,4.74-6.7,4.74H185.44l-.19.39,8.57,5.28c-3,3.23-4.53,6.72-3.59,10.95a7.56,7.56,0,0,0,7.07,6.3c.92.09,1.85.09,2.78.09,15.08,0,30.17-.09,45.25.07a43.35,43.35,0,0,1,10.74,1.51c12.41,3.37,18.28,12.84,16.14,25.54-2.91,17.23-18.38,33.87-34.79,37.31a31,31,0,0,1-6.44.69q-47.7,0-95.38,0h-2.48Z"/><path class="cls-1" d="M521.78,174.52c2.35,1.47,4.67,3,7.06,4.39a2,2,0,0,1,1.12,2.61c-3.07,15.15-6.06,30.32-9.08,45.48-.8,4-2.44,5.33-6.56,5.34q-10.92,0-21.82,0c-3.73,0-4.92-1.41-4.19-5.08q6.33-31.72,12.72-63.43c1.25-6.16,5.39-9.43,11.65-9.43H635.92c4.21,0,5.2,1.25,4.36,5.44q-6.6,33.09-13.18,66.18c-1,5.21-2.37,6.33-7.64,6.34-7,0-13.93,0-20.89,0-3.8,0-5-1.51-4.27-5.24q4.89-24.45,9.81-48.88c.8-3.95.52-4.3-3.51-4.3-4.25,0-8.51.11-12.76-.06a2.65,2.65,0,0,0-3.08,2.08c-1,3.56-2.26,7.09-3,10.71-2.43,12.21-4.7,24.44-7,36.67-1.57,8.39-2.3,9-10.87,9H545.81c-4.1,0-5.25-1.42-4.43-5.48q4.71-23.66,9.46-47.3c1.13-5.64,1.13-5.64-4.64-5.64H521.9Z"/><path class="cls-1" d="M288.61,49.77c2.34,1.42,4.65,2.9,7.05,4.22A2.32,2.32,0,0,1,297,57c-3.09,15.07-6.11,30.15-9.16,45.23-.84,4.14-2.47,5.49-6.67,5.49H259.34c-3.64,0-4.84-1.5-4.11-5.14q6.32-31.61,12.67-63.2c1.26-6.31,5.45-9.67,12-9.67q57.43,0,114.88,0c4.47,0,5.46,1.21,4.57,5.69Q392.65,68.68,386,102c-.9,4.53-2.36,5.7-7,5.7H357.44c-3.4,0-4.7-1.12-4.17-4.5.92-5.88,2.32-11.67,3.48-17.51,2-10,4.13-20,5.87-30,1.07-6.14.8-6.22-5.25-6.4-2.39-.07-4.8-.07-7.18.06-1.91.11-3,1.15-3.38,3.17-3.2,16.3-6.5,32.59-9.75,48.89-1,5.2-2.34,6.31-7.63,6.31H308.31c-3.5,0-4.76-1.57-4.06-5q4.9-24.43,9.84-48.86c.15-.76.57-1.62.35-2.26-.29-.85-1.08-2.16-1.67-2.17-8-.15-16-.1-24-.1Z"/><path class="cls-1" d="M439,49.79c2.34,1.46,4.66,3,7,4.37a2.19,2.19,0,0,1,1.26,2.77c-3.09,15.14-6.06,30.31-9.09,45.46-.79,3.92-2.54,5.29-6.62,5.29H409.73c-3.66,0-4.87-1.5-4.15-5.1q6.3-31.48,12.6-63c1.33-6.66,5.39-9.95,12.19-9.95q57.3,0,114.62,0c4.54,0,5.57,1.2,4.69,5.6q-6.73,33.64-13.49,67.27c-.75,3.72-2.48,5.13-6.26,5.14h-22c-3.61,0-4.94-1.22-4.33-4.83,1-5.78,2.43-11.48,3.55-17.24,2.06-10.54,4-21.09,6-31.64a11.21,11.21,0,0,0,.12-1.15c.18-3.3,0-3.51-3.31-3.53-3,0-6-.1-9,0-2.18.06-3.38,1.12-3.84,3.48-3.15,16.23-6.44,32.44-9.67,48.66-1,5.2-2.32,6.27-7.66,6.27H458.86c-3.8,0-4.95-1.47-4.19-5.28q4.89-24.43,9.77-48.87c.79-4,.52-4.27-3.52-4.27H439.16Z"/><path class="cls-1" d="M588.13,49.79c2.35,1.47,4.75,2.87,7,4.44a3,3,0,0,1,1.3,2.06c0,2.1,1,2.64,2.87,2.63,10.13-.05,20.26,0,30.4,0,4.15,0,5.19,1.34,4.33,5.45-.63,3-1,6.1-1.82,9.08-1.11,4.15-2.47,5-6.8,5q-14.85,0-29.7,0c-3.14,0-3.65.44-4.35,3.56-1.36,6-1.36,6,4.82,6h53.83c4.6,0,5.48,1.09,4.6,5.58-.56,2.88-.9,5.82-1.61,8.66-1.1,4.4-2.51,5.38-7,5.38H563.67c-6.28,0-9.2-3.31-8-9.45q5.79-29.7,11.82-59.34c1.17-5.8,5.55-9.22,11.41-9.22q41.64,0,83.29,0c4,0,5.09,1.4,4.28,5.34-.6,3-1,6-1.71,8.87-1.12,4.4-2.54,5.38-7,5.38l-67.06,0h-2.45C588.19,49.42,588.16,49.61,588.13,49.79Z"/><path class="cls-1" d="M166.67,87.76c12.69,0,24.72.1,36.75-.06,3.63,0,3.87-.65,4.58-4.19q4.88-24.44,9.78-48.88c.71-3.51,2.54-5,6.17-5q11.13,0,22.28,0c3.56,0,4.78,1.42,4.08,4.94Q244,66.54,237.54,98.48c-1.15,5.7-5.63,9.19-11.45,9.19q-38.64,0-77.29,0c-6.31,0-8.93-4-7.54-10.13,1.84-8.13,3-16.43,4.59-24.62q3.32-16.7,7-33.34a49,49,0,0,1,2.89-7.81,3.42,3.42,0,0,1,3.65-2.18c7,.11,13.93-.12,20.88,0,5.4.12,6.93,1.82,5.93,7.12-1.31,7-3.24,13.85-4.73,20.8C180,64.33,178.79,71.19,177.36,78a5.4,5.4,0,0,1-1.71,2.79C172.92,83.06,170.05,85.16,166.67,87.76Z"/><path class="cls-1" d="M303.67,212.48h49.79c4,0,5.05,1,4.52,5a100.66,100.66,0,0,1-2.32,11.09c-.57,2.23-2.61,3.49-5.17,3.5-5.57,0-11.13,0-16.7,0H285.08c-6.34,0-9-3.88-7.61-10.08,1.86-8.36,3.07-16.87,4.78-25.27,2.33-11.49,4.57-23,7.42-34.4,2.08-8.26,2.49-8.16,10.8-8.16,5.95,0,11.91,0,17.86,0,3.56,0,4.81,1.52,4.12,5-3,15.14-6.05,30.29-9.19,45.42a5.33,5.33,0,0,1-2.15,2.92c-2.42,1.63-5,3-7.56,4.44Z"/><path class="cls-1" d="M110.27,256.63a70.57,70.57,0,0,1,5.07-5.06,5,5,0,0,1,3-.76q42.83-.06,85.65,0h418.2a36.25,36.25,0,0,1-.67,4.59c-.14.51-.94,1-1.54,1.21a5.62,5.62,0,0,1-1.84.05H110.27Z"/><path class="cls-1" d="M99.73,267.39c2.54-3,4.45-5.85,9.19-5.85q253.89.24,507.77.13h3.72a28.81,28.81,0,0,1-.73,4.3,2.87,2.87,0,0,1-1.64,1.37,6.2,6.2,0,0,1-2.07.05H99.73Z"/><path class="cls-1" d="M88.59,277.51a41.23,41.23,0,0,1,4.17-4,5.79,5.79,0,0,1,3.19-.86q42.47-.06,84.93,0H618.51c-.29,1.84-.53,3.32-.79,4.92Z"/><path class="cls-1" d="M773.89,29.67q-41.88,0-83.76,0a3.65,3.65,0,0,0-2.7,1.58,24.89,24.89,0,0,0-2.67,6.38c-2.71,12-5.35,24-7.81,36-2,9.91-3.77,19.88-5.65,29.82-.46,2.44,1,4.15,3.61,4.19q9,.14,18.1.19c8.81,0,10.49-1.38,12.15-10.15,1-5.31,2-10.64,3-16,.28-1.51.77-3.07,2.54-3.16,3.24-.18,6.49-.17,9.73-.08,1.93,0,3,1.15,3.38,3.16,1.27,6.6,2.66,13.17,4,19.75.94,4.5,3.12,6.25,7.77,6.26h25.06c4.17,0,5.13-1.2,4.3-5.22q-2-9.64-4-19.3c-.7-3.48.29-4.66,3.9-4.75,6.4-.16,10.36-3.45,11.64-9.76q2.91-14.43,5.75-28.87C783.59,32.87,780.91,29.67,773.89,29.67ZM747,52.85c-.08.46-.11.92-.2,1.38-.77,4.21-1.32,4.67-5.59,4.67-8.34,0-16.68,0-25,0-2.14,0-3.21-.58-3-2.91a2.46,2.46,0,0,0-1.14-1.69c-2.37-1.58-4.82-3-7.25-4.54l.08-.53H744C747.31,49.26,747.61,49.63,747,52.85Z"/><path class="cls-1" d="M478.66,154.19H397c-7.25,0-11.15,3.22-12.57,10.36l-5.88,29.31q-3.27,16.26-6.54,32.5c-.88,4.4.21,5.72,4.61,5.74,6.42,0,12.84.16,19.25.09,5.81-.06,7.73-1.56,9-7.28,1.38-6.18,2.47-12.43,3.69-18.64.53-2.72,1.28-3.35,4.09-3.35q13.11,0,26.22,0c2.78,0,3.25.57,2.7,3.38q-2,10.13-4,20.24c-.84,4.19.25,5.55,4.57,5.55,7.5,0,15,.07,22.51-.06a4,4,0,0,0,2.89-1.63,24.21,24.21,0,0,0,2.74-6.6q4.33-19.56,8.33-39.2c1.66-8.18,2.86-16.45,4.55-24.62C484.07,155.44,483.34,154.19,478.66,154.19Zm-31.09,22a18.81,18.81,0,0,1-1.16,5.16,3.81,3.81,0,0,1-2.78,1.89c-9.26.14-18.53.07-27.79.09-1.57,0-2.1-.73-2.29-2.24a4,4,0,0,0-1.46-2.45c-2.23-1.59-4.62-3-6.95-4.43l.23-.51q20,0,40,0C447.17,173.71,447.8,174.66,447.57,176.21Z"/></g></g></svg>