<svg xmlns="http://www.w3.org/2000/svg" viewBox="0 0 1172.35 231.55"><defs><style>.cls-1{fill:#a8a9a5;}</style></defs><g id="Capa_2" data-name="Capa 2"><g id="Capa_1-2" data-name="Capa 1"><path id="path4430" class="cls-1" d="M0,0,36.56,231.55H87.73L108.45,130.4l20.72,101.15h51.18L214.48,24.37H692.2v182.8H221.79v24.38H736.07V131.62l19.5,48.74h21.94L797,131.62v99.93h375.35V207.17H840.88V24.37h331.47V0H818.94L765.32,117,711.7,0H175.49L156,153.55,134.05,0H82.87L60.93,153.55,41.43,0Z"/><path id="path4432" class="cls-1" d="M253.48,64.25v53.62c2.45.19,17.06-6.3,17.06-29.24S256.19,64.25,253.48,64.25Zm26.81,67.37c9.81,9.8,19.5,30,19.5,58.49H270.54c0-12.86-10.52-39-17.06-39v39H221.79V39h34.13c31.81,0,46.31,27,46.31,46.31S294,128,280.29,131.62Z"/><path id="path4434" class="cls-1" d="M312,190.11h65.8V168.18H343.66V143.8h29.25V119.43H343.66V60.93h34.12V39H312v80.43h-7.32V143.8H312Z"/><path id="path4436" class="cls-1" d="M446,42.32l-7.31,19.5c-10.6,0-24.37,1.38-24.37,9.75,0,20.76,41.43,39,41.43,80.43,0,26.87-15.77,41.43-46.31,41.43-18.73,0-24.37-7.31-24.37-7.31l9.75-19.5c14,4.71,29.25,3.66,29.25-12.19,0-27.08-39.29-42.75-39.29-78.83,0-15.47,14-38.16,39.29-38.16Z"/><path id="path4438" class="cls-1" d="M541.08,190.11h63.38V168.18H572.77V39H541.08Z"/><path id="path4440" class="cls-1" d="M611.77,190.11h65.81V168.18H643.45V143.8H672.7V119.43H643.45V60.93h34.13V39H611.77v80.43h-7.31V143.8h7.31Z"/><path id="path4442" class="cls-1" d="M477.71,190.11H507V63.37h26.81V39H453.34V63.37h24.37Z"/><path id="path4444" class="cls-1" d="M1040.74,190.11h31.68V39h-31.68Z"/><path id="path4448" class="cls-1" d="M1011.49,190.11h14.62V39H996.87v73.12L955.43,39H940.81V190.11h29.24V117Z"/><path id="path4452" class="cls-1" d="M872.55,39,848.18,190.11H875l2.44-24.37h21.93l4.88,24.37h26.81L906.68,39Zm17.07,48.74,7.31,56.06H879.87l7.31-56.06Z"/><path id="path4454" class="cls-1" d="M1109,39,1084.6,190.11h26.81l2.44-24.37h24.37l2.44,24.37h26.81L1143.1,39ZM1126,87.74l9.75,56.06h-19.5l7.31-56.06Z"/></g></g></svg>