<svg xmlns="http://www.w3.org/2000/svg" viewBox="0 0 851.96 470.06"><defs><style>.cls-1{fill:#a8a9a5;}</style></defs><g id="Capa_2" data-name="Capa 2"><g id="Capa_1-2" data-name="Capa 1"><path class="cls-1" d="M852,85.75l-6.73,17.33q-53.72,137.84-107.4,275.69c-.67,1.73-1.47,2.38-3.41,2.37q-30-.12-60.11,0c-1.9,0-2.69-.48-3.21-2.41Q653.45,312.87,635.62,247c-.15-.55-.33-1.09-.67-2.18L598,381.09h-2.09q-30.06,0-60.11,0a2.59,2.59,0,0,1-2.87-2Q475.44,233.91,417.84,88.7c-.26-.66-.5-1.34-.84-2.25.83,0,1.46-.11,2.09-.11q40.64-.12,81.27-.25a2.81,2.81,0,0,1,3.14,2.15q25.72,65.51,51.55,131c.24.61.51,1.21,1,2.3L592.24,86h2.33q39.93,0,79.88-.14c1.73,0,2.34.56,2.78,2.17Q695,154,712.85,219.91c.17.62.41,1.22.76,2.26.48-1.15.81-1.91,1.11-2.67q26-65.94,52-131.89c.43-1.08.75-1.92,2.29-1.92q40.83,0,81.67,0C851,85.65,851.31,85.7,852,85.75Z"/><path class="cls-1" d="M126.75,276.82h2.56c11.05,0,22.1,0,33.15,0a2.23,2.23,0,0,1,2.55,1.56q12.8,32.77,25.67,65.53c.19.48.3,1,.54,1.77h-2.5q-43.54,0-87.07,0a2.65,2.65,0,0,0-3,2.05c-3.92,10.6-8,21.14-12,31.72a2.21,2.21,0,0,1-2.42,1.74q-41.23-.08-82.48,0c-.51,0-1-.07-1.82-.12.29-.81.5-1.48.75-2.12Q57.93,233.8,115.08,88.74a2.57,2.57,0,0,1,2.84-2q34.24,0,68.49-.12a2.72,2.72,0,0,1,3,2Q246.35,233.5,303.35,378.3c.31.8.6,1.6,1,2.67-.91,0-1.61.12-2.3.12q-40.55,0-81.08,0a2.47,2.47,0,0,1-2.77-1.83q-32.67-82.92-65.43-165.8c-.29-.73-.6-1.46-1-2.53C143.37,233,135.14,254.72,126.75,276.82Z"/><path class="cls-1" d="M431.78,156h-88c-3,0-3,0-3,3v152.5h2.86q73.1,0,146.19-.05c2,0,2.74.67,3.42,2.38Q506,346.23,519,378.6c.24.6.44,1.21.76,2.08-.92.05-1.62.12-2.32.12q-98.76,0-197.52,0a2.72,2.72,0,0,1-3-2q-30.13-77.24-60.36-154.45a9.61,9.61,0,0,1-.59-3.28q-.16-37.45-.25-74.9-.09-28.47-.26-56.93c0-1.91.51-2.46,2.45-2.47q72.09,0,144.19-.24c1.42,0,2.22.28,2.81,1.75q13,32.88,26.22,65.71C431.32,154.52,431.48,155.08,431.78,156Z"/><path class="cls-1" d="M475.43,268.41H353.9V199.22h91.81c1.16,0,2.05,0,2.63,1.42q13.29,33.3,26.71,66.56C475.16,267.5,475.24,267.81,475.43,268.41Z"/><path class="cls-1" d="M115,411.66c6.44,0,12.62,0,18.8.07.52,0,1.29,1,1.49,1.61,3.19,10.28,6.3,20.58,9.43,30.88.14.44.3.86.61,1.73,3.92-11.65,7.7-22.91,11.53-34.29,5.51,0,11-.05,16.41.08.58,0,1.41,1,1.66,1.71,3.43,9.85,6.78,19.73,10.15,29.6.25.74.53,1.47,1,2.66,2-6.8,3.93-13.13,5.83-19.45,1.31-4.4,2.59-8.8,4-13.16.18-.58,1-1.37,1.46-1.38,6.05-.1,12.1-.06,18.39-.06-.41,1.24-.73,2.3-1.1,3.34q-9,25-17.9,49.91a2.34,2.34,0,0,1-2.7,1.85c-5.33-.09-10.65-.1-16,0-1.57,0-2.14-.51-2.58-2-3.16-10.35-6.42-20.68-10-31.1q-5.39,16.47-10.8,33c-6.35,0-12.6,0-18.85-.07-.54,0-1.31-.93-1.55-1.59-4.52-12.35-9-24.73-13.44-37.1q-2.54-7-5.08-14.06C115.44,413.23,115.26,412.55,115,411.66Z"/><path class="cls-1" d="M591.43,411.68c6.66,0,13.11,0,19.55.05a3.54,3.54,0,0,1,2.08,1.24q12.77,13.5,25.44,27.06c.4.42.77.86,1.51,1.68V411.82H659.4v54.8c-.63,0-1.27.1-1.91.1-4.52,0-9-.08-13.57,0a5.59,5.59,0,0,1-4.66-1.95c-9-9.47-18-18.85-27.06-28.26-.32-.33-.61-.7-1.33-1.53V466.6H591.43Z"/><path class="cls-1" d="M735,419.49l-14.16,11.37c-7.23-4.94-14.92-7.23-23.35-4.79-11.15,3.23-13.15,14.22-7.78,22.71a9.23,9.23,0,0,0,3.58,3.08,25.84,25.84,0,0,0,20.89,1.22c3.41-1.22,3.92-2.26,3.49-5.83h-15.6V433.71h35v2.09c0,6.65-.1,13.31.06,20a5,5,0,0,1-2.41,4.63,50.93,50.93,0,0,1-15,6.92c-10.55,3.13-21.15,3.9-31.77.25a34.21,34.21,0,0,1-14.8-9.48c-5-5.65-6.9-12.6-6.46-20,.68-11.51,6.3-20,17-24.48C701.61,406.18,718.63,408.68,735,419.49Z"/><path class="cls-1" d="M221.16,411.66c12.22,0,24.26,0,36.3,0a91.56,91.56,0,0,1,10.35.39c9.87,1.2,17.91,8.77,19.28,18.05a15,15,0,0,1-5.18,14c-2.26,2-5,3.49-7.73,5.37l7.15,8.32,7.65,9h-4.57c-5.59,0-11.18-.05-16.77,0a3.61,3.61,0,0,1-3.18-1.52c-3.42-4.26-6.95-8.42-10.37-12.67a3.22,3.22,0,0,0-2.87-1.35c-3.38.09-6.78,0-10.41,0v15.32H221.16ZM240.7,437.6a2.28,2.28,0,0,0,.61.22c6.79,0,13.57.11,20.35,0,3.41-.07,5.53-2.69,5.41-6.14-.12-3.27-2.23-5.28-5.7-5.29-6.39,0-12.78,0-19.16,0a12.89,12.89,0,0,0-1.51.16Z"/><path class="cls-1" d="M395.51.35h59.7V14.83h-2.39c-12,0-24.09,0-36.14-.05-1.94,0-2.51.58-2.46,2.49.11,4.17,0,4.17,4.27,4.17H448V34.36H416.82c-2.55,0-2.55,0-2.56,2.65V39.8c0,2.58,0,2.6,2.68,2.6,12,0,24,.05,35.95,0,2,0,2.66.52,2.56,2.58-.18,3.45-.09,6.92,0,10.38,0,1.2-.21,1.8-1.62,1.8q-28.46-.06-56.91,0c-1,0-1.6-.2-1.6-1.42q.06-27.36.05-54.72A3.28,3.28,0,0,1,395.51.35Z"/><path class="cls-1" d="M681.07,57.11h-2.43c-18.44,0-36.88,0-55.32,0-1.75,0-2.4-.34-2.39-2.27C621,37.42,621,20,621,2.53V.41H680.9V14.72c-.72,0-1.49.1-2.25.1H642.7c-2.76,0-2.76,0-2.77,2.69,0,3.92,0,3.92,3.87,3.92h29.9V34.36h-2.28c-9.79,0-19.58,0-29.36,0-1.63,0-2.17.42-2.16,2.11,0,6,0,6,5.93,6h32.56c2.68,0,2.68,0,2.68,2.76Z"/><path class="cls-1" d="M359.45,458.82,370,447.06c3.29,1.63,6.42,3.37,9.69,4.77a42.62,42.62,0,0,0,22.1,2.88,12.42,12.42,0,0,0,4.8-1.75c2.06-1.25,1.86-3-.42-3.7a48.29,48.29,0,0,0-8-1.64c-4.56-.54-9.16-.66-13.71-1.25a34.69,34.69,0,0,1-15.23-5.54c-5.76-3.92-7.91-9.3-6.45-15.89A13.08,13.08,0,0,1,367.3,418a30,30,0,0,1,15.17-7.11c10.35-1.76,20.72-1.75,30.79,1.6,4.05,1.35,7.85,3.45,12.19,5.41l-9.63,11.86c-8.57-4.56-17.67-6-27.11-5.75a10.88,10.88,0,0,0-3.9.66,10.46,10.46,0,0,0-2.5,2.2c.78.78,1.44,2,2.36,2.26a58.72,58.72,0,0,0,7.25,1.25c6.44.94,12.92,1.62,19.3,2.87,3,.59,5.83,2.16,8.66,3.47,8.65,4,9,12.19,7,18.16-2.19,6.42-7,10.21-13.24,12.27-15,4.93-29.53,3.29-43.72-3C366.39,462.65,363.06,460.69,359.45,458.82Z"/><path class="cls-1" d="M295.49,411.77h60.33v14.89H315v6.17h33.64v13.28H315v7.63h40.9v12.87H295.49Z"/><path class="cls-1" d="M250.4,57.25H238.7c-2.59,0-5.19-.06-7.78,0A1.93,1.93,0,0,1,228.8,56c-1.28-2.78-2.71-5.48-4-8.26a2.15,2.15,0,0,0-2.29-1.42q-12.18.07-24.36,0a2.18,2.18,0,0,0-2.33,1.62c-1.13,2.77-2.34,5.51-3.63,8.2a2.13,2.13,0,0,1-1.54,1.1c-6.57.08-13.15,0-20,0,.41-.84.7-1.48,1-2.1Q185.4,28.47,199.09,1.76A2.74,2.74,0,0,1,202,0c5.79.09,11.58,0,17.36.09a2.82,2.82,0,0,1,2.13,1.18Q235.8,28.66,250,56.12C250.11,56.4,250.19,56.71,250.4,57.25Zm-40-39.75L203,32.75H217.7C215.25,27.65,212.91,22.75,210.39,17.5Z"/><path class="cls-1" d="M573.43,57.11V19.44c0-2.89,0-2.89-3-2.9-5.66,0-11.31,0-17,0-1.53,0-2.07-.44-2-2.05.11-4.64,0-9.3,0-14.11h62.7a12.22,12.22,0,0,1,.18,1.45c0,4.26-.06,8.52,0,12.77,0,1.52-.48,1.95-1.94,1.94-5.72-.06-11.45,0-17.17,0-2.89,0-2.89,0-2.89,3,0,11.71-.06,23.43.06,35.14,0,2.11-.64,2.55-2.59,2.49-4.65-.14-9.31,0-14,0Z"/><path class="cls-1" d="M430.48,428V411.78h63.16v16.15H471.82v38.69H452.44V428Z"/><path class="cls-1" d="M308.38,57.15H253.86V.15h19.27V40.37h35.25Z"/><path class="cls-1" d="M369.54,40.35V57.08H315V.2h19.19V40.35Z"/><path class="cls-1" d="M464.94.35h18.71c0,.76.11,1.52.12,2.28,0,11.85,0,23.69,0,35.53,0,1.9.49,2.5,2.45,2.48,10.31-.09,20.62,0,30.93-.07,1.64,0,2.19.44,2.15,2.12-.11,4.19-.07,8.38,0,12.57,0,1.35-.38,1.88-1.81,1.87q-25.46-.06-50.89,0c-1.24,0-1.77-.29-1.77-1.66q.06-27,0-54.09C464.82,1.12,464.88.86,464.94.35Z"/><path class="cls-1" d="M499.8,411.72H519V451.6h35.25v15H499.8Z"/><path class="cls-1" d="M526,57V.38h18.74c0,.76.11,1.47.11,2.17,0,17.44,0,34.88,0,52.31,0,1.69-.33,2.34-2.18,2.29-4.92-.13-9.84,0-14.77,0C527.38,57.1,526.8,57,526,57Z"/><path class="cls-1" d="M580.4,466.66h-19V411.78h19Z"/></g></g></svg>