<svg xmlns="http://www.w3.org/2000/svg" viewBox="0 0 341.95 343.96"><defs><style>.cls-1{fill:#fff;}.cls-2{fill:red;}</style></defs><g id="Capa_2" data-name="Capa 2"><g id="Capa_1-2" data-name="Capa 1"><path class="cls-1" d="M95.28,340.29c-7.81-18.65-14.63-37.1-23.35-54.61A39.66,39.66,0,0,0,55,269C37.94,260.58,20,254,1.53,246.36c9.68-14.32,19.6-24.59,38.12-19.16,30.74,9,52.72-2,71.25-27.87,15.67-21.89,35.65-40.69,54.81-62.07C114.3,103.81,53.74,96.63,0,72.46,9.16,52.82,23,43.74,42.12,45.72,103,52,163.75,59,224.63,65c6.22.61,14.48-2.46,19.19-6.7,16.58-15,31.76-31.46,48.05-46.76C297.11,6.56,303.88.9,310.4.26c8.66-.83,20.56.15,25.88,5.5S342.54,23,341.66,31.7C341,38.23,335.28,45,330.35,50.21c-14.93,15.91-31.19,30.6-45.57,47-4.82,5.47-8.35,14.81-7.67,21.93,5.45,57.19,10.91,114.43,18.83,171.31,3.38,24.26-6,39.2-25.41,53.55-25.16-54.81-32.25-115.59-65.72-167.78-30.37,26.65-60.34,52.68-89.81,79.27-2.77,2.51-3.42,8.57-3.25,12.91.42,11.15.49,22.6,3.19,33.31C119.63,320.3,109.82,330.4,95.28,340.29Z"/><path class="cls-2" d="M200.19,24.17a451.61,451.61,0,0,1,16.43,50.25q3.38,12.81,6.12,25.81c1.75,8.68,3.32,17.41,4.58,26.21s2.52,17.62,3.37,26.54a150.82,150.82,0,0,1,.08,26.88,163.86,163.86,0,0,1-4.63,26.62,109.57,109.57,0,0,1-10,25.09l-1.37-.41c.5-9,1.06-17.59,1.38-26.2s.33-17.17.33-25.71c0-2.14-.05-4.28,0-6.42l0-6.41c0-1.07,0-2.14,0-3.21V160c0-2.14.09-4.29.08-6.44.14-8.6,0-17.25-.59-25.88s-1.51-17.27-2.59-25.89-2.26-17.25-3.73-25.84c-2.85-17.2-6.4-34.35-10.78-51.3Z"/><path class="cls-2" d="M103.26,136.56a450.72,450.72,0,0,1,51.86-10.28q13.13-1.82,26.35-3c8.83-.69,17.69-1.21,26.57-1.4s17.8-.38,26.76-.15a150.26,150.26,0,0,1,26.69,3.14,163.54,163.54,0,0,1,25.87,7.79,109.13,109.13,0,0,1,23.71,13L310.5,147c-8.84-1.58-17.34-3.17-25.85-4.52s-17-2.39-25.48-3.42c-2.13-.22-4.26-.46-6.37-.73l-6.38-.75c-1.06-.12-2.12-.28-3.18-.42l-3.19-.39c-2.13-.26-4.25-.61-6.38-.85-8.53-1.17-17.13-2.07-25.77-2.52s-17.32-.58-26-.54-17.4.18-26.11.6c-17.42.77-34.87,2.24-52.22,4.55Z"/></g></g></svg>