<svg xmlns="http://www.w3.org/2000/svg" viewBox="0 0 420.37 417.77"><defs><style>.cls-1{fill:#fff;}</style></defs><g id="Capa_2" data-name="Capa 2"><g id="Capa_1-2" data-name="Capa 1"><path class="cls-1" d="M177.36,417.77a164.48,164.48,0,0,1-18.89-3.8,206.29,206.29,0,0,1-55.63-23,211.61,211.61,0,0,1-77.72-81A206.19,206.19,0,0,1,6.73,263.22a210.81,210.81,0,0,1-5.34-28.4,214.41,214.41,0,0,1-1-37.75,206.38,206.38,0,0,1,10.24-53.18A210.38,210.38,0,0,1,297.21,18.82,209.53,209.53,0,0,1,419.06,186.67a211.48,211.48,0,0,1-4.22,71.57,205.6,205.6,0,0,1-14.12,40.82,211.12,211.12,0,0,1-89.17,95.3,207.2,207.2,0,0,1-46.79,18.86c-6.91,1.85-13.91,3.29-20.95,4.51a4.15,4.15,0,0,1-.79,0,2.58,2.58,0,0,1-.7-2c-.06-1,0-2,0-2.95V275.89c0-1.05,0-2.1,0-3.15.14-2.27.56-2.68,2.89-2.81,1-.06,2.1,0,3.15,0h38.81c3.52,0,4.07-.43,4.6-3.94,2.59-17.14,5.33-34.25,7.85-51.4.4-2.7-.2-3.39-3.05-3.4q-24.35,0-48.67,0c-1.18,0-2.36,0-3.54-.1a2,2,0,0,1-2-2c-.08-.92-.09-1.84-.09-2.76,0-12.87-.2-25.75,0-38.61.28-14.81,9.06-26.92,25.38-29.83a50.31,50.31,0,0,1,9-.75c7.49.05,15,0,22.46,0,3.25,0,3.79-.54,3.79-3.8q0-21.27,0-42.55c0-3.14-.58-3.7-3.69-4.17q-13.53-2.06-27.19-3c-12.6-.88-25.18-.88-37.62,1.9-14.36,3.21-26.87,9.75-36.86,20.66a68.48,68.48,0,0,0-15.17,27.55,101.23,101.23,0,0,0-4,29c.06,14.65,0,29.29,0,43.94,0,4.39-.17,4.55-4.53,4.56q-22.07,0-44.13,0c-.79,0-1.58,0-2.37,0a2.36,2.36,0,0,0-2.51,2.46c0,.72,0,1.44,0,2.16v49.45c0,.66,0,1.32,0,2,.15,1.89.81,2.53,2.73,2.66.78.05,1.57,0,2.36,0q22,0,43.93,0c4.34,0,4.53.19,4.53,4.58q0,69.75,0,139.49C178.37,415.29,178.76,416.79,177.36,417.77Z"/></g></g></svg>