<svg xmlns="http://www.w3.org/2000/svg" viewBox="0 0 642.6 603"><defs><style>.cls-1{fill:#2b1416;}.cls-2{fill:#fff;}.cls-3{fill:red;}</style></defs><g id="Capa_2" data-name="Capa 2"><g id="Capa_1-2" data-name="Capa 1"><path d="M321.3.1q158,0,315.9-.1c3.43,0,4.1.67,4.1,4.09C637.13,201.72,649,411,637.21,603q-315.92-.16-631.82,0C-6.4,410.92,5.47,201.77,1.29,4.09,1.29.67,2,0,5.39,0Q163.34.18,321.3.1Z"/><path class="cls-1" d="M452.09,466.87c-1.46,5.85-5,11-5.83,17.05l-1.14,0a78.57,78.57,0,0,1,6.11-19C451.52,465.57,451.8,466.22,452.09,466.87Z"/><path d="M347.11,438c-17.55,2.69-35.1,5.34-52.78,7l27.9-64.32Z"/><path class="cls-2" d="M530.16,293.31c.16,35.52-4.08,70.43-14.95,104.35a50,50,0,0,1-72.61,28c-3.8-2.19-4.71-4.34-3.67-8.69,11.94-49.45,15.34-99.59,11.52-150.26-.1-1.34-.23-2.68-.43-4-1-6.38-5.12-10.07-10.73-9.62-5.86.47-9.25,5-9.16,11.73.34,23.57,1.39,47.17.64,70.7-.91,28.44-5.77,56.46-13,84-3.2,12.09-12.1,18.93-23.62,22.15a76.42,76.42,0,0,1-45.9-1.3c-5.63-1.91-10.87-5.6-15.58-9.37-5.13-4.12-7-9.3-5.45-16.71,10.86-50.41,10.77-101.29,5.1-152.3-.75-6.74-5.19-10.54-11-9.94s-9.1,5.08-8.8,12c1.13,25.66,3.77,51.37,2.88,77-.84,24.22-5.3,48.32-8.45,72.43a15.39,15.39,0,0,1-4,8,49.6,49.6,0,0,1-70.32,2.42A12.75,12.75,0,0,1,228.9,416c-3.26-48.33-10.83-96-21.33-143.25-1.67-7.48-6.32-11.21-12.23-10-6.22,1.31-9,6.75-7.24,14.42a1020.46,1020.46,0,0,1,20.58,134.68c.63,7.41-1.77,11.73-7.56,15.62-22.42,15.06-52.2,10.58-68.38-11.06-15.2-20.33-24.48-43.66-29.17-68.25-6.2-32.55-11.31-65.38-15-98.3-3.18-28.24,19.89-52.92,48.41-53,29.09-.07,51.09-11.57,67.42-35.67,13.63-20.11,39.28-26.71,61.35-16.53,22.74,10.49,44,8.6,64.86-5.14,17-11.18,35.26-11.77,52.79-1.32,25.17,15,51.86,21,81,17.47,27.68-3.35,50.49,13.78,55.91,41.59C526.49,229,530.12,261,530.16,293.31Z"/><path class="cls-2" d="M429.23,441.06c30.19,16.84,60.63,14.56,84.54-6.11,10.27-8.88,17.08-20,21.09-33a350.28,350.28,0,0,0,15-89.38c.08-1.87.17-3.73.3-6.48a16.33,16.33,0,0,1,2.49,2c8.7,11.21,17.73,22.18,26,33.73,15.92,22.38,15.15,50.12-1.83,71.59C562,432,546.9,450.41,531.9,468.86c-11.28,13.86-26,21.35-43.75,22.31-26.61,1.44-53.24,2.72-79.88,3.7-20.39.75-35.82-8.11-46.39-25.51a26.51,26.51,0,0,1-1.8-3.57,7.09,7.09,0,0,1,0-2.15C386.13,465.55,411,463.46,429.23,441.06Z"/><path class="cls-3" d="M218.17,177.82A567.5,567.5,0,0,1,276,210.66q14,9,27.54,18.81c9,6.6,17.82,13.38,26.44,20.5s17.27,14.26,25.6,21.84a190.12,190.12,0,0,1,22.83,24.93,205.29,205.29,0,0,1,18.23,28.67,138.48,138.48,0,0,1,11.93,31.82l-1.63.77c-7.12-8.76-13.9-17.26-20.89-25.54s-14.23-16.24-21.46-24.19c-1.84-2-3.67-3.93-5.46-5.94l-5.45-5.94c-.91-1-1.79-2-2.68-3l-2.72-3c-1.81-2-3.55-4.07-5.38-6.05-7.15-8.12-14.6-16.06-22.47-23.58s-16-14.78-24.31-21.89S279.39,224.74,270.75,218c-17.21-13.58-35-26.52-53.45-38.58Z"/><path class="cls-3" d="M223.15,364.39a567.42,567.42,0,0,1,39.53-53.45q10.67-12.79,22-25.08c7.62-8.11,15.42-16.09,23.52-23.79s16.23-15.43,24.75-22.79a189.09,189.09,0,0,1,27.5-19.67A204.26,204.26,0,0,1,391.09,205a138.27,138.27,0,0,1,33-8l.57,1.71c-9.55,6-18.8,11.73-27.86,17.67s-17.84,12.18-26.59,18.4c-2.18,1.59-4.35,3.17-6.55,4.71l-6.56,4.7c-1.09.78-2.21,1.53-3.32,2.29l-3.29,2.35c-2.2,1.56-4.47,3-6.66,4.61-8.92,6.13-17.69,12.57-26.1,19.47S301.15,287,293.1,294.35s-16,14.9-23.77,22.66c-15.55,15.46-30.54,31.6-44.72,48.43Z"/></g></g></svg>