<svg xmlns="http://www.w3.org/2000/svg" viewBox="0 0 825.14 824.85"><defs><style>.cls-1{fill:#fe7300;}.cls-2{fill:#4b4b4b;}.cls-3{fill:#fe7301;}.cls-4{fill:#c74902;}</style></defs><g id="Capa_2" data-name="Capa 2"><g id="Capa_1-2" data-name="Capa 1"><path class="cls-1" d="M468.12,0c.18,17.24.4,34.48.54,51.73.07,9.3.14,18.61-.05,27.91-.09,4.4,1.42,6.34,6,7,15.31,2.25,30.14,6.67,44.75,11.6,5.33,1.8,7.72.24,10.41-3.94,12-18.67,24.31-37.17,36.47-55.76,5-7.71,4.89-7.51,12.93-3.13C605.08,49.5,631,63.53,657.11,77.26c5.46,2.87,7.19,5.26,4.17,11.44-10.53,21.6-20.41,43.52-30.59,65.29-1.82,3.89-1.91,6.89,1.86,10.09a250,250,0,0,1,29.27,29.39c3.92,4.66,7.3,4.63,12.26,2.1,21.22-10.8,42.65-21.19,63.86-32,4.46-2.28,6.72-1.7,9.09,2.69q23.28,43.08,47,85.94c3.2,5.76-1.1,7.29-4.24,9.38-19.26,12.81-38.52,25.62-58,38-4.25,2.71-5.26,5.08-3.64,9.81a274.66,274.66,0,0,1,11,43.48c.79,4.69,4,3.55,6.64,3.56,24.07.09,48.14.26,72.2,0,5.69-.07,7.22,1.44,7.17,7.21q-.42,49,.06,98.08c.06,5.83-1.69,7.23-7.21,7.17-24.07-.25-48.14,0-72.2-.2-4.36,0-6.17.87-7,5.63A280,280,0,0,1,726,521.56c-1.38,3.78-.53,5.41,2.73,7.54,21.07,13.76,41.9,27.89,63,41.67,3.74,2.45,4.06,4.34,1.82,8.13-15.41,26.17-30.59,52.48-45.87,78.73-4,6.91-4.07,6.9-9.87,1.09Q684.12,605,630.34,551.41c-3.68-3.65-4.38-6-1.58-10.73,30.76-51.49,41.39-107.36,32.48-166.28-9.06-60-36.5-111.17-82.83-150.59C506.46,162.6,424.48,146.38,334,173.55c-18.14,5.44-35,13.92-51.29,23.32-3.56,2-5.41,1.69-8.07-1Q220.81,141.87,166.76,88c-3.91-3.89-2.84-5.26,1.31-7.62q39-22.2,77.81-44.89c4.6-2.69,7.19-2.47,10.34,2.23,12.59,18.85,25.69,37.35,38.37,56.13,3.08,4.55,5.93,6.12,11.66,4.16,14.59-5,29.39-9.54,44.77-11.46,5.16-.65,5.23-3.67,5.23-7.59,0-26.33.08-52.67.13-79Z"/><path class="cls-2" d="M412.14,824.67c-16.35,0-32.71-.29-49,.15-5.9.16-7-1.75-7-7.24.31-24.06,0-48.13.22-72.19,0-4.12-1-6-5.31-6.75a255.47,255.47,0,0,1-46.61-12.31c-3.69-1.37-5.47-.47-7.51,2.92-12.88,21.36-26.29,42.41-39,63.89-3.37,5.71-5.75,5.39-10.79,2.33q-40.69-24.75-81.84-48.77c-4.13-2.42-4.44-4.24-2.13-8.33,12-21.32,23.6-42.9,35.63-64.22,2.24-4,1.9-6.08-1.57-8.9a254.6,254.6,0,0,1-33.91-33.37c-3.08-3.62-5.4-4-9.64-1.93-22.21,10.81-44.7,21.07-66.87,32-5.09,2.5-6.84.94-9.22-3.27q-22.37-39.72-45.24-79.14c-2.44-4.2-2.32-6.18,1.93-9.09C54,557,73.23,543,92.89,529.55c5-3.44,6.82-6.32,4.42-12.56A192.91,192.91,0,0,1,86.5,475.61c-.84-5.76-3.25-7-8.78-7-23.83.33-47.68,0-71.52.25-4.61,0-6.2-1-6.17-5.94q.31-50.74,0-101.49c0-4.58,1.66-5.14,5.52-5.11,24.3.14,48.59-.06,72.88.2,4.93.05,7.18-1.2,7.94-6.31,2.26-15.06,6.42-29.71,11.42-44.06,1.45-4.14.56-5.9-2.88-8.14C75.29,285.32,56,272.2,36.33,259.53c-4.07-2.62-5-4.39-2.55-9q22.46-42,44.19-84.34c2.44-4.74,3.79-5.31,7.8-1.27Q140,219.58,194.63,273.75c3.77,3.74,3.94,6.17,1.35,10.77-45.61,80.86-48.76,163.64-5.6,245.71,39.26,74.65,102.87,118.49,186.34,131.22,58.25,8.88,113.36-2.54,164.15-32.86,4.53-2.7,6.71-2,10.1,1.42q54.51,54.81,109.38,109.26c3.66,3.63,3.39,4.9-1,7.47q-42.26,24.76-84.17,50.15c-3.88,2.35-5.3,1.07-7.33-2.08-13.76-21.35-27.8-42.53-41.44-64-2.71-4.26-5-5-9.76-3.27a239.23,239.23,0,0,1-42.74,11.06c-4.36.73-5.35,2.59-5.32,6.69.17,23.61-.25,47.23.28,70.83.16,7.4-2.22,8.89-9.05,8.67C443.93,824.34,428,824.68,412.14,824.67Z"/><path class="cls-3" d="M477.19,419.61c7,7,16.45,10.2,24.5,15.58,5.83,3.89,12.25,6.88,18.2,10.6,8.87,5.55,12.44,14.7,15.25,24.11,4.53,15.15,4.74,30.83,5.24,46.47.46,14.47.57,29,5.5,42.92a36.52,36.52,0,0,0,9.39,14.76c1.35,1.27,2.69,2.58,2.11,4.66-.63,2.3-2.63,2.2-4.43,2.2-25,0-49.89-.14-74.84,0-4.72,0-5-2.77-5.25-6.07l-4.8-59.62c-.41-5.2-1.45-10.44-1.06-15.58.67-8.92-2.34-14.72-10.74-18.56-14.58-6.67-27.61-16.37-42.58-22.36a350.72,350.72,0,0,1-34.24-17.85c-11.17-6.46-22.54-12.53-33.81-18.8.27-3.16-2.63-3.43-4.39-4.43-12-6.83-24.06-13.64-36.26-20.14-4.05-2.15-5.85-4.55-5.83-9.45q.32-68.76,0-137.54c0-5.05,1.51-6.7,6.56-6.67,44.71.27,89.44-.35,134.14.68,35.74.82,65.92,15.07,86.73,44.79C546,317,551.2,347,535.41,378.51c-1.48,2.95-2.84,6.22-6.06,7.93-2.63.58-4.79-.48-7.07-1.65C506.15,376.53,490.19,368,473.93,360c-3.43-1.68-7-3.37-8.94-7a16.41,16.41,0,0,1-1.43-6.59c-1.86-26.68-15.54-40.08-42.15-40.52-23.79-.39-47.59,0-71.38-.14a2.27,2.27,0,0,0-1.54.45c7.55,5.12,15.55,9.24,23.14,14,5,3.12,7.28,7,7.11,12.84-.19,6.79.2,13.61-.11,20.39-.27,5.69,1.84,9.49,6.93,12,9.57,4.71,18.43,10.66,27.65,16q20.73,12.29,41.52,24.49C462.29,410.26,470.37,414,477.19,419.61Z"/><path class="cls-3" d="M368.79,486.67c0,29.27-.13,58.54.1,87.81,0,5-1.31,6.56-6.44,6.48-19.06-.3-38.12-.21-57.18,0-4.23,0-6.1-.94-6.08-5.62.12-41.06,0-82.13,0-123.2,0-1.52-.38-3.23,1.19-4.36,4.92,1.15,9.26,3.67,13.49,6.21,16.26,9.75,33.49,17.77,49.54,27.88C365.49,483.12,368.11,483.85,368.79,486.67Z"/><path class="cls-4" d="M477.19,419.61c-8.35-2.36-15.08-7.75-22.39-12.07q-20.61-12.17-41.29-24.25a3.86,3.86,0,0,1,2.28-3.15c15.45-8.8,30.68-18,46.27-26.57a6.53,6.53,0,0,1,4.51-1c5,6.68,13.37,8,20.05,11.89,13.81,8.08,28.44,14.75,42.73,22-15.59,10.94-32.14,20.36-48.22,30.52C479.79,417.8,478.51,418.72,477.19,419.61Z"/><path class="cls-4" d="M368.79,486.67q-32.71-18.15-65.43-36.3c-1.19-.66-2.47-1.17-2.94-2.62,11.48-6.65,22.93-13.34,34.44-19.94,3.52-2,7.17-3.82,10.76-5.72,1.28-.19,2.36-1.14,3.85-.3q31.38,17.79,62.79,35.5a7.19,7.19,0,0,1,1.42,1.44Z"/></g></g></svg>