<svg xmlns="http://www.w3.org/2000/svg" viewBox="0 0 411.36 411.8"><defs><style>.cls-1{fill:#fff;}</style></defs><g id="Capa_2" data-name="Capa 2"><g id="Capa_1-2" data-name="Capa 1"><path class="cls-1" d="M205.82,0c27.92.54,55.85.91,83.77,1.67,19.94.54,39.43,3.84,57.6,12.54,27.29,13.07,45.61,34.17,55.3,62.8,5.07,15,7,30.52,7.63,46.25,1.85,46.77,1.19,93.56.77,140.34A435.41,435.41,0,0,1,408.46,308c-3.66,32.86-17.33,60.54-44.6,80.43-14.85,10.83-31.72,16.76-49.68,19.82s-36,3.27-54.08,3.39q-55.77.39-111.56,0c-17.21-.13-34.46-.43-51.51-3.31-26.61-4.5-49.69-15.54-67.72-36.16C15.6,356.42,7.91,338,4,317.8.86,301.74.38,285.44.27,269.17q-.42-60-.15-120c.09-17.2.45-34.45,3.31-51.51,5.15-30.74,19.11-56.23,44.9-74.5,15.5-11,33.05-16.82,51.7-19.48C120.87.67,141.89.8,162.88.55c14.3-.17,28.62,0,42.93,0Zm-.62,375.39v-1.15c22.54,0,45.07.23,67.6-.08,14.12-.19,28.27-.68,42.14-4,20.07-4.74,36-15.3,46.43-33.3a75.59,75.59,0,0,0,10.07-32.4c1.31-17.24,2.31-34.55,2.46-51.83.3-35.21.1-70.44-.21-105.65-.15-16.09-.29-32.24-3.68-48.1-5.2-24.37-18.34-42.52-41.67-52.47-10.93-4.65-22.49-6.65-34.27-7.35-38.69-2.32-77.43-1.5-116.16-1.48-17.47,0-34.95.54-52.42,1-11.24.31-22.39,1.45-33.28,4.5C72.38,48.7,57.3,60.25,47.91,78.71c-6.32,12.43-8.92,25.92-9.46,39.72C37.69,138.37,37,158.34,37,178.29q0,54.11,1.09,108.2a156,156,0,0,0,3.52,29c4.59,21.63,16.56,38.15,36.5,48.29,12.11,6.16,25.25,8.89,38.69,9.35C146.27,374.14,175.74,374.67,205.2,375.39Z"/><path class="cls-1" d="M311.21,206.51a105.68,105.68,0,1,1-105.35-106A105.6,105.6,0,0,1,311.21,206.51ZM205.46,274.66A68.5,68.5,0,1,0,137,206.11,68.45,68.45,0,0,0,205.46,274.66Z"/><path class="cls-1" d="M290.61,96.28a24.73,24.73,0,1,1,24.56,24.81A24.8,24.8,0,0,1,290.61,96.28Z"/></g></g></svg>