<svg xmlns="http://www.w3.org/2000/svg" viewBox="0 0 1248.88 315.85"><defs><style>.cls-1{fill:#2b1416;}.cls-2{fill:#fff;}.cls-3{fill:red;}</style></defs><g id="Capa_2" data-name="Capa 2"><g id="Capa_1-2" data-name="Capa 1"><path class="cls-1" d="M249.44,298.81c-1.45,5.85-5,11-5.82,17l-1.14,0a77.7,77.7,0,0,1,6.11-19Z"/><path class="cls-2" d="M351.39,129.25c.13,28.25-3.24,56-11.89,83a39.75,39.75,0,0,1-57.73,22.23c-3-1.74-3.76-3.45-2.92-6.91,9.49-39.32,12.19-79.19,9.15-119.49-.08-1.06-.18-2.13-.34-3.18-.79-5.08-4.07-8-8.53-7.66-4.66.38-7.35,4-7.28,9.33.27,18.74,1.1,37.51.5,56.23-.72,22.6-4.58,44.89-10.37,66.77-2.55,9.61-9.62,15.06-18.78,17.62a60.79,60.79,0,0,1-36.5-1c-4.48-1.52-8.65-4.45-12.39-7.45-4.08-3.27-5.6-7.4-4.33-13.29,8.63-40.08,8.56-80.54,4.05-121.1-.6-5.36-4.12-8.38-8.74-7.9s-7.24,4-7,9.52c.9,20.4,3,40.85,2.29,61.2-.66,19.25-4.21,38.42-6.71,57.59a12.35,12.35,0,0,1-3.16,6.35A39.43,39.43,0,0,1,114.79,233a10.18,10.18,0,0,1-3-6.18c-2.59-38.43-8.61-76.34-17-113.91-1.32-6-5-8.91-9.72-7.93-5,1-7.12,5.37-5.76,11.47a809.57,809.57,0,0,1,16.36,107.1c.51,5.89-1.4,9.32-6,12.41-17.83,12-41.51,8.42-54.37-8.79C23.28,211,15.9,192.43,12.17,172.88c-4.93-25.88-9-52-11.94-78.16-2.52-22.47,15.82-42.09,38.5-42.14,23.13,0,40.62-9.2,53.61-28.36,10.84-16,31.24-21.24,48.79-13.15,18.08,8.34,35,6.85,51.58-4.08,13.52-8.89,28-9.36,42-1,20,11.94,41.24,16.69,64.43,13.89,22-2.66,40.14,11,44.45,33.07A401,401,0,0,1,351.39,129.25Z"/><path class="cls-2" d="M271.13,246.74c24,13.39,48.21,11.57,67.23-4.86a55.5,55.5,0,0,0,16.77-26.23A278.89,278.89,0,0,0,367,144.57c.06-1.48.14-3,.24-5.15a12.74,12.74,0,0,1,2,1.56c6.91,8.91,14.1,17.63,20.64,26.82,12.66,17.79,12,39.85-1.46,56.93-11.73,14.82-23.73,29.44-35.66,44.11A46.38,46.38,0,0,1,318,286.58q-31.75,1.73-63.52,2.95c-16.22.59-28.49-6.45-36.89-20.29a21,21,0,0,1-1.44-2.84,5.7,5.7,0,0,1,0-1.71C236.86,266.21,256.62,264.55,271.13,246.74Z"/><path class="cls-3" d="M103.3,37.41a451.22,451.22,0,0,1,46,26.11q11.11,7.2,21.9,15c7.13,5.25,14.17,10.64,21,16.3s13.73,11.34,20.36,17.37A150.35,150.35,0,0,1,230.7,132a163.09,163.09,0,0,1,14.5,22.8,109.55,109.55,0,0,1,9.48,25.3l-1.29.62c-5.66-7-11-13.73-16.61-20.31s-11.31-12.92-17.07-19.24q-2.19-2.34-4.34-4.72L211,131.69c-.72-.78-1.42-1.6-2.13-2.4l-2.17-2.37c-1.44-1.59-2.82-3.24-4.27-4.82-5.69-6.45-11.61-12.76-17.87-18.74S171.87,91.6,165.27,86,152,74.72,145.11,69.35c-13.68-10.8-27.85-21.09-42.5-30.68Z"/><path class="cls-3" d="M107.26,185.77a452.87,452.87,0,0,1,31.43-42.5q8.48-10.19,17.49-20c6.06-6.45,12.26-12.79,18.7-18.91s12.91-12.27,19.69-18.13a151.07,151.07,0,0,1,21.86-15.64A162.13,162.13,0,0,1,240.8,59a109.27,109.27,0,0,1,26.26-6.38l.45,1.35c-7.59,4.79-14.95,9.33-22.15,14.06s-14.19,9.68-21.15,14.63c-1.73,1.26-3.45,2.52-5.21,3.74l-5.21,3.74c-.87.62-1.76,1.22-2.64,1.83l-2.62,1.86c-1.75,1.24-3.55,2.41-5.29,3.67-7.09,4.87-14.07,10-20.76,15.48s-13.2,11.23-19.6,17.11-12.74,11.84-18.9,18c-12.36,12.3-24.28,25.13-35.56,38.52Z"/><path class="cls-2" d="M481.55,158.47l14-90h17.13l14,90,6.51-90h22.47L539.07,198.16H517.85l-13.2-83.84-14.18,83.84H469.24L452.57,68.49H475Z"/><path class="cls-2" d="M564.4,198.16V68.4h21.67V198.16Zm9.9-54.85V122.08h23.37a9.44,9.44,0,0,0,6.77-2.27,8.22,8.22,0,0,0,2.41-6.29V99.07a9.57,9.57,0,0,0-2.41-6.95,8.94,8.94,0,0,0-6.77-2.5H574.3V68.4h22q10.51,0,18,3.43a25.06,25.06,0,0,1,11.37,10q3.93,6.6,3.92,16V113q0,9.63-3.92,16.41a25.52,25.52,0,0,1-11.37,10.34q-7.45,3.57-18,3.57Zm35.23,54.85L592.32,139.3l20.24-4.11,20.69,63Z"/><path class="cls-2" d="M646.9,198.16V68.49H669V198.16Zm9.81-108.09V68.49h47.8V90.07Zm0,54.4V123h43.34v21.49Zm0,53.69V176.57h47.8v21.59Z"/><path class="cls-2" d="M746.69,199.49q-10.26,0-17.52-3.79A26.06,26.06,0,0,1,718,184.78q-3.88-7.14-3.88-17.3v-7l22-.18v7a10.52,10.52,0,0,0,2.76,7.71,10.24,10.24,0,0,0,7.67,2.81q4.81,0,7.45-2.76a10.56,10.56,0,0,0,2.63-7.58V156.15a9.92,9.92,0,0,0-2.36-6.73,23.23,23.23,0,0,0-6.29-4.91q-3.93-2.17-8.47-4.41-4.38-2.23-8.88-5a40.39,40.39,0,0,1-8.2-6.64,29.78,29.78,0,0,1-6-9.5,36.2,36.2,0,0,1-2.27-13.55V98.72q0-15,8.43-23.28t23.76-8.29q14.9,0,23.28,8.38t8.38,23.54v7.32l-22,.27V99.25c0-3.33-.84-5.93-2.54-7.8a9.07,9.07,0,0,0-7.09-2.81q-4.81,0-7.44,2.54a9.27,9.27,0,0,0-2.63,7v8.65a10.41,10.41,0,0,0,2.72,7.45,24.87,24.87,0,0,0,7,5.08q4.32,2.19,9.14,4.77,4.2,2.15,8.34,4.64a37,37,0,0,1,7.58,6.07,26.94,26.94,0,0,1,5.53,8.83,35.22,35.22,0,0,1,2.1,13v10.79q0,15.17-8.43,23.59T746.69,199.49Z"/><path class="cls-2" d="M785.75,89.71V68.49h64.93V89.71Zm21.41,108.45V79.37h22.11V198.16Z"/><path class="cls-2" d="M861.2,198.16V68.49h22.12V198.16Zm9.1,0V176.93H917v21.23Z"/><path class="cls-2" d="M928.44,198.16V68.49h22.12V198.16Zm9.81-108.09V68.49h47.81V90.07Zm0,54.4V123H981.6v21.49Zm0,53.69V176.57h47.81v21.59Z"/><path class="cls-2" d="M992.12,89.71V68.49H1057V89.71Zm21.4,108.45V79.37h22.12V198.16Z"/><path class="cls-2" d="M1067.57,198.16V68.4h21.67V198.16Zm9.9-54.85V122.08h23.36a9.45,9.45,0,0,0,6.78-2.27,8.22,8.22,0,0,0,2.41-6.29V99.07a9.57,9.57,0,0,0-2.41-6.95,8.94,8.94,0,0,0-6.78-2.5h-23.36V68.4h22q10.51,0,18,3.43a25.06,25.06,0,0,1,11.37,10q3.92,6.6,3.92,16V113q0,9.63-3.92,16.41a25.52,25.52,0,0,1-11.37,10.34q-7.46,3.57-18,3.57Zm35.23,54.85-17.22-58.86,20.25-4.11,20.69,63Z"/><path class="cls-2" d="M1170.4,68.49V198.16h-22.12V68.49Z"/><path class="cls-2" d="M1184.49,198.16V68.49h22.11V198.16Zm10.34-50.3V126.63h22.92a7.83,7.83,0,0,0,6.42-2.81q2.32-2.8,2.32-7.8V100.77q0-5.26-2.27-8.16a7.75,7.75,0,0,0-6.47-2.9h-22.92V68.49h23.55q9.72,0,16.49,3.38a23.69,23.69,0,0,1,10.39,9.9,32.11,32.11,0,0,1,3.62,15.79v21.85a30.72,30.72,0,0,1-3.62,15.38,23.57,23.57,0,0,1-10.43,9.72,37.06,37.06,0,0,1-16.45,3.35Z"/></g></g></svg>