<svg xmlns="http://www.w3.org/2000/svg" viewBox="0 0 573.03 569.04"><defs><style>.cls-1{fill:#a8a9a5;}.cls-2{fill:#fff;}</style></defs><g id="Capa_2" data-name="Capa 2"><g id="Capa_1-2" data-name="Capa 1"><path class="cls-1" d="M572.76,285.84a231.61,231.61,0,0,1-15.54,94.93c-30.45,79-84.5,135.46-163.31,167.51-22.13,9-45,15.71-68.77,18.14-19.61,2-39.55,3.39-59.16,2.15a273.71,273.71,0,0,1-103.55-27.75c-67.75-33.14-116-84.53-143.81-154.65C5,351.81.65,315.89,0,278.89c-1.31-77.25,40.9-167.64,112.46-220.08,38.26-28,80.39-46.73,127.06-55.15C261.19-.24,283-.68,304.88.74,353,3.87,397.74,18,438.49,43.55,502,83.33,544.25,139.44,564.24,212A238.15,238.15,0,0,1,572.76,285.84ZM3.28,282.08a294.93,294.93,0,0,0,6,59.19c13.48,64.85,46.84,117.81,97.41,159.92,29.59,24.65,63.42,41.95,100.36,52.91,34.45,10.21,69.56,14.45,105.43,10.63A316.24,316.24,0,0,0,400.29,542C503.61,499.15,575,390.8,570.54,279.18c-1.09-27.25-3.83-54.14-12.65-80C526.54,107.3,463.81,47,372.33,16,348.17,7.83,323.14,4,297.7,3.08c-20.78-.78-41.52-.22-62,3.9A293.83,293.83,0,0,0,130.45,50.09C85,80.16,49.67,119,27.74,169.45,12.11,205.45,2.71,242.63,3.28,282.08Z"/><path class="cls-2" d="M3.28,282.08c-.57-39.45,8.83-76.63,24.46-112.63C49.67,119,85,80.16,130.45,50.09A293.83,293.83,0,0,1,235.7,7c20.48-4.12,41.22-4.68,62-3.9C323.14,4,348.17,7.83,372.33,16c91.48,31,154.21,91.29,185.56,183.17,8.82,25.86,11.56,52.75,12.65,80C575,390.8,503.61,499.15,400.29,542a316.24,316.24,0,0,1-87.85,22.77c-35.87,3.82-71-.42-105.43-10.63-36.94-11-70.77-28.26-100.36-52.91C56.08,459.08,22.72,406.12,9.24,341.27A294.93,294.93,0,0,1,3.28,282.08Zm562-2c-.82-11.06-1.25-22.16-2.53-33.16-2.75-23.68-9.37-46.33-18.86-68.2-22.11-51-55.18-92.77-102-123.25A288.4,288.4,0,0,0,310,9.34a263.75,263.75,0,0,0-76.68,3.91,279.48,279.48,0,0,0-86.82,33.16C105.19,70.47,71,102.22,46.78,143.51,17.94,192.69,4.13,245.86,8.84,303.28a299.25,299.25,0,0,0,9.78,56.66c11.71,41.78,32.71,78.44,62.09,110.22,51,55.2,114.63,84.44,189.16,90.66,17.38,1.44,34.7.14,51.93-2.09a276.78,276.78,0,0,0,78.77-22.39c71.22-32.14,120.51-84.94,148.56-157.7C561.35,346.94,565.32,313.87,565.28,280.09Z"/><path class="cls-1" d="M565.28,280.09c0,33.78-3.93,66.85-16.15,98.55-28,72.76-77.34,125.56-148.56,157.7a276.78,276.78,0,0,1-78.77,22.39c-17.23,2.23-34.55,3.53-51.93,2.09-74.53-6.22-138.13-35.46-189.16-90.66-29.38-31.78-50.38-68.44-62.09-110.22a299.25,299.25,0,0,1-9.78-56.66c-4.71-57.42,9.1-110.59,37.94-159.77,24.22-41.29,58.41-73,99.73-97.1a279.48,279.48,0,0,1,86.82-33.16A263.75,263.75,0,0,1,310,9.34,288.4,288.4,0,0,1,441.85,55.48c46.86,30.48,79.93,72.29,102,123.25,9.49,21.87,16.11,44.52,18.86,68.2C564,257.93,564.46,269,565.28,280.09ZM288.27,489c11.37-.92,22.89-.94,34.08-2.91C366,478.35,404,459.33,435,427.18c15-15.56,28.76-32,38.17-51.7A214.77,214.77,0,0,0,494,284.83c.37-26.84-3.86-52.9-13.87-77.9-31.4-78.39-107.53-124-170-127.83-20.77-1.27-41.42-1.45-62.06,2.06C198.63,89.59,158.46,114,126.45,152c-29.46,35-44.87,75.74-47,121.44-1.25,27,1.75,53.68,11.19,79,21.42,57.5,61.54,97.62,117.45,121.87C233.5,485.38,260.5,489.5,288.27,489Zm-101.87,8,.78.13c-.16,1.52-.29,3-.48,4.54-1.21,9.24-2.4,18.48-3.7,27.71-.26,1.84.22,2.83,2,3.52,3.36,1.33,6.67,2.78,9.94,4.31,2.4,1.11,3.69.66,4.66-2,5-13.57,10.1-27.08,15.14-40.63,3-8,2.33-9.07-6.33-10.86a3.19,3.19,0,0,0-.59.06c-3.27,7.48-6.61,15.09-9.94,22.7l-1.07-.3c.65-7.38,1.1-14.78,2-22.12.45-3.5-.26-5.75-3.75-6.79a15.22,15.22,0,0,1-1.83-.74c-5.41-2.4-6.14-2.29-9.22,2.85-4.39,7.34-8.57,14.8-12.87,22.19-2.62,4.49-5.3,8.94-7.95,13.41a1.65,1.65,0,0,1-.31-1.47q5.64-20.07,11.3-40.15c1.66-5.9,1.6-6-3.77-8.91-.48-.26-1-.46-1.46-.75-2.33-1.44-4.31-1.21-6.59.5-8,6-16.19,11.69-24.3,17.52-5.64,4.06-11.26,8.15-17.12,12.38,2.53,2.11,4.75,3.9,6.89,5.77,2.47,2.16,4.84,2.22,7.3,0a56.45,56.45,0,0,1,5.06-4.21,2.87,2.87,0,0,1,2.51-.36c3.36,2,6.6,4.21,9.88,6.34-1.06,3.19-2,6.09-3,9-.81,2.51-.31,4.35,2.32,5.64,4.23,2.07,8.3,4.49,12.46,6.69,2.27,1.2,4.61,2.27,7,3.45Zm-80.89-14.68c3.34-3.54,6.68-6.86,9.76-10.4,2.23-2.55,3.93-2.15,6.24-.05a74.43,74.43,0,0,0,9.57,7.42,6.93,6.93,0,0,0,9.09-.77c3.91-3.68,8-7.18,11.51-11.25,4.68-5.46,4.41-10.68-.59-15.85-4-4.18-8.54-7.91-12.76-11.9-1.75-1.66-3-1.36-4.69.24-8.09,7.76-16.27,15.41-24.44,23.08-2.48,2.33-5,4.6-7.53,6.9a4.23,4.23,0,0,1,.78-2.62c7.09-11.09,14.34-22.09,21.25-33.3,5.19-8.41,6-5.65-1.58-13.55-1.37-1.43-2.53-1.52-4.28-.87-9.66,3.57-19.37,7-29,10.54-6.65,2.46-13.23,5.07-20.24,7.76,1.68,2.05,3,3.67,4.3,5.25,4.4,5.14,4.41,5.13,10.49,2.48.8-.35,1.59-.73,2.39-1.09,1.39-.61,2.86-1.6,3.94.4,1.8,3.35,6.68,5,5.61,9.87a10.62,10.62,0,0,1-1.84,3.09c-1.32,2-2.67,4-4.07,6.08ZM372,479.13l7.14,20.9-.8.31c-2.24-4-4.53-8-6.71-12-4.63-8.51-4.9-8.58-13.65-3.86-1.72.93-2.29,1.87-1.72,3.9,1.72,6.08,3.18,12.23,4.75,18.35a5.9,5.9,0,0,1-2-2.48c-2.58-4.83-5.1-9.7-7.81-14.45-.49-.86-1.9-1.92-2.66-1.77a63,63,0,0,0-7.59,2.37c1.87,4.11,3.46,7.71,5.13,11.26,5.33,11.3,10.73,22.56,16,33.88,1.32,2.82,2.94,3.78,5.89,2.32a53.65,53.65,0,0,1,7-2.83c2.95-1,3.72-2.51,2.69-5.61-2.41-7.24-4.45-14.6-6.63-21.91A6,6,0,0,1,373,510q4.95,9.29,9.88,18.57c.84,1.57,1.9,2.68,3.92,1.93,3.88-1.43,7.76-2.82,11.81-4.28-5.68-17-11.28-33.79-16.93-50.71ZM90.32,370.7c-.66-1.66-1.13-2.88-1.63-4.09-2.08-4.95-2.09-5-7.1-3.46-5.6,1.68-11.19,3.4-17.22,5.24.46-.67.54-.93.71-1,4.22-2.31,8.48-4.56,12.69-6.9,7.55-4.2,8-3.5,3.36-12.46-.87-1.67-1.88-2.24-3.94-1.7C71.5,347.8,65.73,349,60,350.23c5-2.87,10.16-5.23,15.24-7.77.92-.46,2.14-1.7,2.07-2.48a66.71,66.71,0,0,0-1.64-8l-50,21.29c1.6,3.89,2.93,7.24,4.35,10.54.9,2.09,2.3,2.84,4.73,2.19,7.48-2,15-3.76,22.73-5.66-.22.4-.26.64-.4.71-4.7,2.35-9.51,4.5-14.1,7.05-11.33,6.3-10.77,3.07-5.14,16.5.77,1.84,1.74,2.4,3.8,1.68,5.68-2,11.46-3.7,17.19-5.52Zm463-55.75c-1.72-.29-2.89-.6-4.06-.67-13.59-.74-27.17-1.54-40.77-2.13-8.66-.38-8.67-.24-9.07,8.44a3.11,3.11,0,0,0,.29.83l22.46,3.07v.82l-25.69,5c-.4,2.93-.59,5.78-1.23,8.53s0,4.14,2.85,5c13.29,4.08,26.49,8.43,39.76,12.57,8.26,2.59,7.94,3.62,9.74-6.1.59-3.24-.49-5-3.65-5.68-6.09-1.36-12.17-2.77-18.24-4.19-3.44-.8-6.86-1.66-10.29-2.49,11-2.06,21.85-3.34,32.7-4.78,1-.14,2.6-1.15,2.76-2C551.89,326,552.54,320.67,553.36,315ZM41.73,290.09l-.11-.84c6.19-2.47,12.36-5,18.58-7.4,9.59-3.67,9.53-3.62,9.64-14,0-2.84-.89-3.81-3.77-3.87-6.36-.15-12.71-.64-19.06-1.05-9.94-.65-19.88-1.35-30-2v13H48l.17,1.36c-1.55.7-3,1.51-4.65,2.06-8.07,2.78-16.18,5.46-24.24,8.28-.94.33-2.29,1.36-2.32,2.1-.2,5.24-.11,10.48-.11,15.84,15.31-1.38,30.25-2.71,45.2-4.08,2.38-.22,5.57.22,6.89-1.12s.73-4.52,1-6.89c.07-.72.14-1.44.23-2.47Zm489.42.36a67.16,67.16,0,0,1,1.39-8c.81-2.71,3-3.12,5.09-1.28,2.38,2.11,2.59,12.58.24,14.66a3.4,3.4,0,0,1-2,.92c-6.32,0-12.66.15-19-.28-4-.27-4.73-3.91-5.06-7.09s.38-5.91,3.44-7.59c2.59-1.41,4-7.55,2.19-9.81a2.75,2.75,0,0,0-1.67-.8c-3.92-.48-11.83,3-12.18,8-.39,5.66-.78,11.34-.68,17,.08,4.8,3,7.95,7.53,9.3,10.82,3.21,21.83,4.87,33.12,3.39,7.3-1,10.72-3.84,11.61-11.22a114.39,114.39,0,0,0,.28-18.7c-.2-4.53-2.82-8.08-7.32-9.14a50.6,50.6,0,0,0-27.18.81v19.09ZM122.45,108.63l.78-.77c1.28.6,2.58,1.16,3.84,1.79,5.58,2.81,11.16,5.61,16.7,8.48a3.73,3.73,0,0,0,4.77-.51c3-2.85,6.05-5.67,9.23-8.65-10.79-12.08-21.29-23.85-32-35.86L117.27,80l15.91,19.26a11.91,11.91,0,0,1-4.77-1.43c-5.1-2.52-10.17-5.13-15.3-7.6-3.64-1.75-6.93-1.29-9.89,1.7-2,2-4.26,3.75-6.5,5.7,9.15,10.3,17.47,20.09,26.25,29.45,7.76,8.27,4.92,8.93,14.36.07a3,3,0,0,0,.39-.79ZM442.09,502.27c-4-5-7.75-9.84-11.83-14.39-2-2.23-4.74-3.77-7-5.8a5,5,0,0,1-1.55-2.93c-.66-6.72-4.49-11.34-9.86-14.77-1.5-1-4-1.65-5.51-1.1a89.24,89.24,0,0,0-23.5,12.7L406,523.28c2.32-1.14,4.1-1.94,5.81-2.87,5.27-2.87,5.35-3,2.55-8.39-2.31-4.45-4.84-8.79-7.38-13.39,2-1.11,3.78-2.14,5.6-3.11,5.25-2.81,5.43-2.86,9.25,1.78,3.11,3.79,6,7.77,9.09,11.81ZM17.25,307.69A4.54,4.54,0,0,0,17,309c2.41,11.24,4.8,22.48,7.37,33.68A3.26,3.26,0,0,0,27,344.46a87.73,87.73,0,0,0,11.24-3.53c.74-.28,1.38-2.13,1.24-3.14-.79-5.53-1.78-11-2.81-16.52-.54-2.86.86-3.67,3.37-3.79,2.34-.1,3.4,1.12,3.88,3.18,1.07,4.58,2.07,9.19,3.3,13.73.23.86,1.51,2.16,2.13,2.07,3.49-.52,6.94-1.4,10.41-2.16-1.07-5.76-2.18-10.9-2.87-16.09-.14-1.08,1.27-2.36,2-3.55a12.61,12.61,0,0,1,2.67,2.27,9.43,9.43,0,0,1,.9,3.12c.85,3.51,1.54,7.07,2.61,10.51a3.46,3.46,0,0,0,2.65,1.95,65.69,65.69,0,0,0,8-2C73.86,322.08,72,314,70.44,305.84c-.48-2.49-1.65-2.86-3.85-2.66-7.64.69-15.31,1.16-23,1.85C34.82,305.84,26,306.8,17.25,307.69Zm278,242.51c-.29-5-.44-9.6-.88-14.17-.4-4.11-.41-8.35-3.35-11.82-.47-.57-.26-2.13.16-3,3.33-6.54,2.61-13.24.53-19.82-.51-1.61-2.77-3.71-4.31-3.78-8.29-.4-16.62-.28-24.93-.15-.72,0-2,1.37-2,2.18-1.18,15.75-2.18,31.51-3.3,47.27-.14,1.95.55,3,2.41,3.11,3.24.11,6.49,0,10,0V529.87c3,0,5.68,0,8.39,0s3.91,1.2,4.13,4c.41,5.21,1.15,10.39,1.76,15.63,3.1.25,5.94.49,8.77.7C293.38,550.24,294.13,550.2,295.28,550.2Zm163.44-90.53c2.75,2.21,5.49,4.55,8.37,6.7,5.73,4.27,11.39,4.6,16.85,0a55.92,55.92,0,0,0,10.29-11.78,12.17,12.17,0,0,0,1.32-8.39c-1.28-6.23-6.12-9.94-11.27-13.09-8.25-5.05-13.07-4.72-20.73,1.25-2.16,1.68-4.16,3.66-6.52,5-.95.54-2.82-.07-4-.68-.4-.21-.4-2.33.14-3,2.32-3.07,4.71-6.13,9.4-5.3,2,.36,6.28-3,6.75-5a2.38,2.38,0,0,0-.6-2c-5.26-4.67-10.32-6.73-15.86-2.31a55.12,55.12,0,0,0-8.81,9.18c-2.83,3.62-2.76,7.93-.44,11.77,5.92,9.78,14.42,15.14,24.76,5.08a52.44,52.44,0,0,1,5.49-4.71c2.12-1.56,4.27-.46,5.51,1.13.7.89.55,3.22-.16,4.27a108.19,108.19,0,0,1-6.85,8.41l-5.19-4.8ZM169.83,81.51c2.19-1.43,4-2.74,5.88-3.77.73-.38,1.8-.12,2.72-.16-.14,1,.1,2.44-.47,2.92a72.38,72.38,0,0,1-8.46,6.11,3.49,3.49,0,0,1-3.29-.83,126.75,126.75,0,0,1-9-12.93c-.78-1.33-.58-4.29.41-5.38,2.08-2.29,4.92-3.91,7.57-5.61a2.37,2.37,0,0,1,2.22.63c2,2.9,4,2.23,6.37.56,1.85-1.32,3.85-2.43,5.9-3.71-1.51-2.08-2.8-4-4.24-5.79-2.72-3.41-6.3-5.46-10.65-4.45-8.75,2-16.11,6.54-20.87,14.26-1.23,2-1.33,5.5-.5,7.79,3.79,10.36,10.19,19.12,18.22,26.63,3.14,3,7.1,3.82,11,1.86a92.63,92.63,0,0,0,13.21-7.9A12.82,12.82,0,0,0,191.15,79c-1-7.44-6.06-12.38-10.31-18.44L163.69,72ZM444.47,500.59,473,477.44c-2.74-3.13-5.18-5.66-7.34-8.41s-4-2.95-6.72-.63c-3.74,3.21-7.8,6.05-11.73,9.05-1.81,1.38-3.46,1.58-5.17-.33-1.87-2.09-.92-3.56.74-5,4.15-3.56,8.32-7.1,12.64-10.78-2.62-3.21-5.25-6.41-8-9.74-4.35,3.57-8.52,6.93-12.61,10.38-2,1.65-3.56,1.25-5.06-.54-1.81-2.13.41-2.94,1.48-3.84,4.08-3.45,8.29-6.75,12.65-10.28-2.19-2.39-4.07-4.67-6.23-6.66-.66-.61-2.49-1-3-.53-6.77,5.39-13.4,11-20.43,16.79C424.43,471.65,434.34,486,444.47,500.59ZM425,117.58c1.22,1.09,2.2,2,3.19,2.84,5.81,5.13,5.85,5.16,10-1.14,2.84-4.36,6.86-8.1,7.46-13.72,0-.44.81-1,1.36-1.18,7.35-3.1,11-9.13,12.62-16.49a5.48,5.48,0,0,0-1.16-4.5c-7-6.23-14.29-12.2-21.9-18.62l-30.81,38.15,8.95,7,10-12.08c1.93,1.47,3.54,2.62,5,3.88,3.09,2.58,3.38,3.95,1.24,7.3C429.19,111.91,427.13,114.61,425,117.58ZM295.79,515.3l-1,.16c1.45,8.27,2.66,16.58,4.41,24.78,1.12,5.23,5,8.14,10.19,9a30.63,30.63,0,0,0,18-2.45,10,10,0,0,0,6-8.11A63,63,0,0,0,327.38,502a10.5,10.5,0,0,0-10.63-6.33,69.86,69.86,0,0,0-8.19.61c-6.52,1.14-13.47,5.12-12.78,14.71C295.88,512.44,295.79,513.87,295.79,515.3ZM416.91,60.52c-.25-5.6-2.46-9.75-7.93-12.48-4.16-2.09-8.72-3.39-13.13-5s-7.69,0-10.62,3.1a57.92,57.92,0,0,0-14,26,11,11,0,0,0,3.12,11.38,31.74,31.74,0,0,0,17.2,8.91c5.57,1,10.35-.61,13.3-5.67,3.57-6.13,7-12.36,10.14-18.71C416.11,65.81,416.3,63.06,416.91,60.52Zm100.65,95.57c-1.39-3.87-2.3-8-4.27-11.54-6.18-11.15-15.47-12.64-25.25-4.43-5.44,4.57-6.17,7.57-3.36,14.07.78,1.81,1.75,3.54,2.45,5.38a41.71,41.71,0,0,1,1.91,6.25c.15.77-.36,2.28-.89,2.45a3.3,3.3,0,0,1-2.92-.55,49.49,49.49,0,0,1-4.16-5.85c-1.07-1.63-.9-3,.25-4.79a5.59,5.59,0,0,0,.35-4.64c-3.42-7.21-5-7.36-10.49-1.52-2.79,3-5.08,6-3.85,10.52a31.25,31.25,0,0,0,14.1,18.7c1.72,1.08,4.62.71,6.88.37,1.75-.27,3.4-1.44,5-2.35,8.91-5,10.36-9.2,6.56-18.67-1.26-3.15-2.64-6.26-3.82-9.44a2.73,2.73,0,0,1,.23-2.36c.46-.47,2-.7,2.31-.36a55.79,55.79,0,0,1,4.88,6.38c.95,1.48,1,3-.73,4.33a2.23,2.23,0,0,0-.22,2.07,54.28,54.28,0,0,0,3.7,6.18,2.6,2.6,0,0,0,2.2.79C512.39,166.26,516.77,160.52,517.56,156.09Zm-196.64-119c-.28-2.81-.43-5.22-.77-7.61-.63-4.47-3-7.69-7.59-8.36-4.94-.71-10-1.5-14.95-1.12-7.9.62-11.05,4.43-11.69,12.42-.78,9.8,2.16,13.7,11.79,15.59,1,.19,2,.13,2.94.35a42.37,42.37,0,0,1,6.64,1.75,2.75,2.75,0,0,1,1.13,4.55c-2.49,2.45-10.6,1.34-12.3-1.69-1.83-3.24-5.91-5.07-9.25-3.84a4.11,4.11,0,0,0-2.15,2.54c-1.66,6.38,2.83,14.16,9.39,15a86.75,86.75,0,0,0,17.94,0A9.6,9.6,0,0,0,318,63.05a15.5,15.5,0,0,0-9.14-24.61c-3.11-.62-6.27-1.06-9.31-1.92-1-.28-1.62-1.66-2.41-2.54,1.06-.72,2-1.82,3.2-2.07a16.25,16.25,0,0,1,4.92,0c1.93.17,3.56.68,4,3.12a3.44,3.44,0,0,0,2.52,2C314.68,37.29,317.65,37.13,320.92,37.13ZM342.42,60c1.74.42,3.2.81,4.68,1.13,3.21.69,6.4,1.53,9.65,2,4.85.66,8.57-1.15,10.82-5.67A36.89,36.89,0,0,0,371.68,41c0-6.09-1.77-9-7.58-10.83-5.41-1.73-11-2.95-16.53-4.27-2.82-.67-5.71-1.07-8.69-1.62-3.19,14.1-6.3,27.66-9.32,41.23-1.29,5.77-1.21,5.79,4.49,7.3.32.08.64.14.95.24,2.8,1,4.44,0,5.08-2.89C340.8,66.94,341.55,63.75,342.42,60ZM258.7,507.15c-.33-8.48-1.72-10.56-9.67-12.76-5.49-1.51-11.08-2.65-16.62-4-2.16-.52-3.28,0-3.94,2.44C224.73,506.6,220.59,520.23,217,534c-2.1,8-4,7.56,6.17,9.76,3.71.81,4.66.17,5.34-3.62.52-2.91.87-5.86,1.36-8.77.77-4.49,1.83-5.22,6.18-4.44,2.48.45,5,.89,7.45,1.29,6.79,1.09,11.08-1.46,12.86-8.17C257.46,515.84,257.93,511.46,258.7,507.15ZM69.94,129.49c-2.58,4.74-5.5,8.47-6.51,12.65-.53,2.17,2.31,5.17,3.65,7.79,1,1.85,2,3.68,2.87,5.55.62,1.27,1.12,2.59,1.68,3.89a36.29,36.29,0,0,1-8-4c-7.23-4.54-8-4.3-11.76,3.33-1,2-.73,3.09,1.2,4.23,8.22,4.85,16.36,9.84,24.55,14.74,4.59,2.75,9.23,5.42,14.19,8.34,1.49-2.56,2.77-4.83,4.12-7.05,1.19-2,.86-3.22-1.23-4.48-4.42-2.66-8.66-5.63-13-8.47,7-.63,13.81-.6,20.6-.66.91,0,2.27-.18,2.65-.78,2.06-3.14,3.87-6.44,6.27-10.54-7.57,0-14.19-.43-20.72.13C84.49,154.74,81,153,78.77,147S73.23,135.91,69.94,129.49Zm-.43,262.25c-5.18,3.83-10.4,7.06-14.84,11.15-4.25,3.93-5.1,9.24-2,14.42a82.8,82.8,0,0,0,8.58,12.36c4.63,5.28,8.73,6,15,2.81,12.18-6.11,22.32-15,32.14-24.31a3.25,3.25,0,0,0,.53-3,66.54,66.54,0,0,0-4.65-6.15c-8.21,5.62-16,11.05-24,16.34-6.24,4.16-7.36,3.83-11.4-2.7-.06-.09-.11-.19-.18-.28-1.43-1.73-1-3.19.63-4.49,1.46-1.16,2.88-2.37,4.39-3.46,1.84-1.31,2.26-2.75.92-4.7C73.1,397.45,71.67,395.11,69.51,391.74ZM519.64,239c10.48.12,19.5-8.67,19.57-19,.06-10.07-9-18.82-19.41-18.86A18.58,18.58,0,0,0,501,219.86,19,19,0,0,0,519.64,239ZM71,219.76c0-9.84-9.18-18.86-19.14-18.81C41.71,201,32.73,210,32.75,220.18c0,9.72,9.1,18.75,18.86,18.76A19.39,19.39,0,0,0,71,219.76Zm402.69-125c-2.66,2.46-5,4.72-7.47,6.89-1.71,1.51-1.48,2.89-.06,4.45,1.83,2,3.56,4.08,5.43,6.24-1.38,1.51-2.42,2.78-3.59,3.91-4.95,4.83-10.05,9.5-14.88,14.45-7.73,7.91-8.95,5.32-.15,14.61a3.74,3.74,0,0,0,.8.51l26.36-23.89,8.72,7.88,9.32-8.64Zm41.72,298.68c-9.57-4.76-18.77-9.38-28-13.9-5.1-2.49-5.33-2.33-7.52,2.94a4.13,4.13,0,0,1-.22.62c-1.12,2.09-.85,3.36,1.54,4.62,10.28,5.4,20.42,11.07,30.62,16.62,3.92,2.12,7.88,4.16,12.25,6.47,4.78-9.93,9.4-19.55,14.15-29.43l-14.46-5.69Zm.35,30.53-35.42-21,4.9-9.94c-2.69-1.2-5-2.16-7.26-3.26-1.73-.84-2.8-.33-3.81,1.22-2.28,3.49-4.72,6.87-7,10.33-2.67,4-5.28,8-8,12l8.63,6.41,6.51-7.88,34.79,22.79C511.43,430.9,513.51,427.58,515.76,424Zm29.18-61.8c-1.67-.55-2.78-.95-3.92-1.29q-18.87-5.61-37.74-11.2c-10.4-3.06-10.42-3-13.36,7.37-.05.18.08.41.21.94l48.69,19.92ZM236.66,59.8c0-6.2-2.17-10.89-5.15-15.34a8.17,8.17,0,0,0-7.82-3.86c-6,.37-11.72,2-16.43,5.84a9.45,9.45,0,0,0-3,5.77c-.72,6.53,2.24,12.1,5.42,17.55a7,7,0,0,0,6.54,3.58,29.49,29.49,0,0,0,14.44-3.79C234.81,67.27,237,63.89,236.66,59.8Zm1.24-24.53c1.64,10.44,3.19,20.26,4.76,30.25,1.73,0,3.14,0,4.55,0,4.1-.11,4.8-.86,4.47-5-.17-2-.52-4-.79-6.07,3.92-.78,7.48-1.42,11-2.23.78-.18,2-1,2-1.51.11-2.46-.14-4.93-.26-7.49-4.45.65-8.33,1.29-12.22,1.74-.67.08-1.43-.63-2.15-1,.52-.62.92-1.57,1.58-1.81a22.93,22.93,0,0,1,4.79-1.08c7-.94,7.86-2.1,6.25-8.95a12.17,12.17,0,0,0-.58-1.4ZM114.78,150.56c2-2,3.83-3.94,5.78-5.69,1.79-1.62,1.43-2.81-.26-4.23-10-8.39-19.81-17-29.9-25.22-5.46-4.47-6.43-4.1-10.56,1.78-.61.88-1.18,1.78-1.9,2.86Zm221.79,372.2L350.13,519c-1.37-3.42-2.58-6.42-3.88-9.67-3.27,1-6.25,1.66-9,2.82a4,4,0,0,0-2.17,3C335.16,517.61,336,520,336.57,522.76Z"/><path class="cls-2" d="M288.27,489c-27.77.54-54.77-3.58-80.16-14.59C152.2,450.12,112.08,410,90.66,352.5c-9.44-25.36-12.44-52-11.19-79C81.58,227.76,97,187,126.45,152c32-38,72.18-62.43,121.65-70.86,20.64-3.51,41.29-3.33,62.06-2.06,62.46,3.81,138.59,49.44,170,127.83,10,25,14.24,51.06,13.87,77.9a214.77,214.77,0,0,1-20.82,90.65c-9.41,19.72-23.14,36.14-38.17,51.7-31,32.15-69,51.17-112.68,58.87C311.16,488,299.64,488,288.27,489ZM281.39,81.32c-8.41.79-23.18.91-37.41,3.74-49.22,9.82-88.7,36.05-119.32,75.3a194.22,194.22,0,0,0-41.2,105.12c-1.59,19-1.19,38,2.43,56.8,6.26,32.41,20.29,61.37,41.1,86.86,40.69,49.83,93.09,75.58,157.74,75.93,24.15.13,47.63-3,70.46-11.15,45-16.05,80.37-44.19,105.74-84.48,16.19-25.72,24.95-54.24,28.26-84.46C492,279.62,491,254.46,484,229.89a201.21,201.21,0,0,0-47.06-83.46C396.41,103.15,346.7,81.63,281.39,81.32Z"/><path class="cls-2" d="M186.4,496.93l-15,29.4c-2.42-1.18-4.76-2.25-7-3.45-4.16-2.2-8.23-4.62-12.46-6.69-2.63-1.29-3.13-3.13-2.32-5.64.94-2.91,1.92-5.81,3-9-3.28-2.13-6.52-4.34-9.88-6.34a2.87,2.87,0,0,0-2.51.36,56.45,56.45,0,0,0-5.06,4.21c-2.46,2.25-4.83,2.19-7.3,0-2.14-1.87-4.36-3.66-6.89-5.77,5.86-4.23,11.48-8.32,17.12-12.38,8.11-5.83,16.29-11.56,24.3-17.52,2.28-1.71,4.26-1.94,6.59-.5.46.29,1,.49,1.46.75,5.37,2.88,5.43,3,3.77,8.91q-5.64,20.08-11.3,40.15a1.65,1.65,0,0,0,.31,1.47c2.65-4.47,5.33-8.92,7.95-13.41,4.3-7.39,8.48-14.85,12.87-22.19,3.08-5.14,3.81-5.25,9.22-2.85a15.22,15.22,0,0,0,1.83.74c3.49,1,4.2,3.29,3.75,6.79-.93,7.34-1.38,14.74-2,22.12l1.07.3c3.33-7.61,6.67-15.22,9.94-22.7a3.19,3.19,0,0,1,.59-.06c8.66,1.79,9.31,2.86,6.33,10.86-5,13.55-10.18,27.06-15.14,40.63-1,2.65-2.26,3.1-4.66,2-3.27-1.53-6.58-3-9.94-4.31-1.74-.69-2.22-1.68-2-3.52,1.3-9.23,2.49-18.47,3.7-27.71.19-1.51.32-3,.48-4.54Zm-25.48-18.19-.77-.55-7.24,6c3.88,4.22,5.53,3.93,7-.79C160.38,481.88,160.59,480.29,160.92,478.74Z"/><path class="cls-2" d="M105.51,482.25,89.39,463.71c1.4-2.1,2.75-4.08,4.07-6.08a10.62,10.62,0,0,0,1.84-3.09c1.07-4.89-3.81-6.52-5.61-9.87-1.08-2-2.55-1-3.94-.4-.8.36-1.59.74-2.39,1.09-6.08,2.65-6.09,2.66-10.49-2.48-1.34-1.58-2.62-3.2-4.3-5.25,7-2.69,13.59-5.3,20.24-7.76,9.66-3.56,19.37-7,29-10.54,1.75-.65,2.91-.56,4.28.87,7.56,7.9,6.77,5.14,1.58,13.55-6.91,11.21-14.16,22.21-21.25,33.3a4.23,4.23,0,0,0-.78,2.62c2.51-2.3,5-4.57,7.53-6.9,8.17-7.67,16.35-15.32,24.44-23.08,1.66-1.6,2.94-1.9,4.69-.24,4.22,4,8.72,7.72,12.76,11.9,5,5.17,5.27,10.39.59,15.85-3.47,4.07-7.6,7.57-11.51,11.25a6.93,6.93,0,0,1-9.09.77,74.43,74.43,0,0,1-9.57-7.42c-2.31-2.1-4-2.5-6.24.05C112.19,475.39,108.85,478.71,105.51,482.25Zm22.27-23.07,9.72,8a51.42,51.42,0,0,0,5-4.1c.61-.63,1.1-2.41.73-2.79-2.55-2.66-5.09-5.52-8.21-7.3-.78-.45-3.69,2.77-5.58,4.34A18.57,18.57,0,0,0,127.78,459.18Zm-15.57-25.83-.32-1-9.84,4.31c2.83,4.48,3.4,4.55,6.41,1.14C109.75,436.39,111,434.85,112.21,433.35Z"/><path class="cls-2" d="M372,479.13l9.75-3.66c5.65,16.92,11.25,33.67,16.93,50.71-4,1.46-7.93,2.85-11.81,4.28-2,.75-3.08-.36-3.92-1.93Q378,519.25,373,510a6,6,0,0,0-2.05-2.45c2.18,7.31,4.22,14.67,6.63,21.91,1,3.1.26,4.63-2.69,5.61a53.65,53.65,0,0,0-7,2.83c-2.95,1.46-4.57.5-5.89-2.32-5.27-11.32-10.67-22.58-16-33.88-1.67-3.55-3.26-7.15-5.13-11.26A63,63,0,0,1,348.5,488c.76-.15,2.17.91,2.66,1.77,2.71,4.75,5.23,9.62,7.81,14.45a5.9,5.9,0,0,0,2,2.48c-1.57-6.12-3-12.27-4.75-18.35-.57-2,0-3,1.72-3.9,8.75-4.72,9-4.65,13.65,3.86,2.18,4,4.47,8,6.71,12l.8-.31Z"/><path class="cls-2" d="M90.32,370.7l-31.54,10c-5.73,1.82-11.51,3.54-17.19,5.52-2.06.72-3,.16-3.8-1.68-5.63-13.43-6.19-10.2,5.14-16.5,4.59-2.55,9.4-4.7,14.1-7.05.14-.07.18-.31.4-.71-7.7,1.9-15.25,3.66-22.73,5.66-2.43.65-3.83-.1-4.73-2.19-1.42-3.3-2.75-6.65-4.35-10.54l50-21.29a66.71,66.71,0,0,1,1.64,8c.07.78-1.15,2-2.07,2.48C70.15,345,65,347.36,60,350.23c5.74-1.28,11.51-2.43,17.2-3.92,2.06-.54,3.07,0,3.94,1.7,4.66,9,4.19,8.26-3.36,12.46-4.21,2.34-8.47,4.59-12.69,6.9-.17.09-.25.35-.71,1,6-1.84,11.62-3.56,17.22-5.24,5-1.51,5-1.49,7.1,3.46C89.19,367.82,89.66,369,90.32,370.7Z"/><path class="cls-2" d="M553.36,315c-.82,5.72-1.47,11-2.44,16.31-.16.82-1.74,1.83-2.76,2-10.85,1.44-21.73,2.72-32.7,4.78,3.43.83,6.85,1.69,10.29,2.49,6.07,1.42,12.15,2.83,18.24,4.19,3.16.7,4.24,2.44,3.65,5.68-1.8,9.72-1.48,8.69-9.74,6.1-13.27-4.14-26.47-8.49-39.76-12.57-2.89-.89-3.5-2.27-2.85-5s.83-5.6,1.23-8.53l25.69-5v-.82l-22.46-3.07a3.11,3.11,0,0,1-.29-.83c.4-8.68.41-8.82,9.07-8.44,13.6.59,27.18,1.39,40.77,2.13C550.47,314.35,551.64,314.66,553.36,315Z"/><path class="cls-2" d="M41.73,290.09,70.13,289c-.09,1-.16,1.75-.23,2.47-.25,2.37.33,5.56-1,6.89s-4.51.9-6.89,1.12c-15,1.37-29.89,2.7-45.2,4.08,0-5.36-.09-10.6.11-15.84,0-.74,1.38-1.77,2.32-2.1,8.06-2.82,16.17-5.5,24.24-8.28,1.6-.55,3.1-1.36,4.65-2.06L48,273.89H17v-13c10.14.7,20.08,1.4,30,2,6.35.41,12.7.9,19.06,1.05,2.88.06,3.8,1,3.77,3.87-.11,10.35,0,10.3-9.64,14-6.22,2.39-12.39,4.93-18.58,7.4Z"/><path class="cls-2" d="M531.15,290.45l-10.21-.78V270.58a50.6,50.6,0,0,1,27.18-.81c4.5,1.06,7.12,4.61,7.32,9.14a114.39,114.39,0,0,1-.28,18.7c-.89,7.38-4.31,10.26-11.61,11.22-11.29,1.48-22.3-.18-33.12-3.39-4.56-1.35-7.45-4.5-7.53-9.3-.1-5.66.29-11.34.68-17,.35-5,8.26-8.47,12.18-8a2.75,2.75,0,0,1,1.67.8c1.78,2.26.4,8.4-2.19,9.81-3.06,1.68-3.74,4.56-3.44,7.59s1,6.82,5.06,7.09c6.3.43,12.64.28,19,.28a3.4,3.4,0,0,0,2-.92c2.35-2.08,2.14-12.55-.24-14.66-2.08-1.84-4.28-1.43-5.09,1.28A67.16,67.16,0,0,0,531.15,290.45Z"/><path class="cls-2" d="M122.45,108.63l15.27,17.69a3,3,0,0,1-.39.79c-9.44,8.86-6.6,8.2-14.36-.07-8.78-9.36-17.1-19.15-26.25-29.45,2.24-2,4.51-3.69,6.5-5.7,3-3,6.25-3.45,9.89-1.7,5.13,2.47,10.2,5.08,15.3,7.6a11.91,11.91,0,0,0,4.77,1.43L117.27,80l8.5-6.85c10.71,12,21.21,23.78,32,35.86-3.18,3-6.22,5.8-9.23,8.65a3.73,3.73,0,0,1-4.77.51c-5.54-2.87-11.12-5.67-16.7-8.48-1.26-.63-2.56-1.19-3.84-1.79Z"/><path class="cls-2" d="M442.09,502.27l-11.15,6.84c-3.1-4-6-8-9.09-11.81-3.82-4.64-4-4.59-9.25-1.78-1.82,1-3.6,2-5.6,3.11,2.54,4.6,5.07,8.94,7.38,13.39,2.8,5.43,2.72,5.52-2.55,8.39-1.71.93-3.49,1.73-5.81,2.87L382.85,476a89.24,89.24,0,0,1,23.5-12.7c1.54-.55,4,.14,5.51,1.1,5.37,3.43,9.2,8.05,9.86,14.77a5,5,0,0,0,1.55,2.93c2.25,2,5,3.57,7,5.8C434.34,492.43,438.05,497.31,442.09,502.27ZM410,479.77c0-3.45-1.78-4.93-4.47-4a64.3,64.3,0,0,0-5.88,2.79c-2.83,1.31-2.82,2.94-1.17,5.42,1.53,2.28,2.84,3,5.15,1.14,1.52-1.21,3.33-2.08,4.86-3.3A7.81,7.81,0,0,0,410,479.77Z"/><path class="cls-2" d="M17.25,307.69c8.76-.89,17.57-1.85,26.39-2.66,7.64-.69,15.31-1.16,23-1.85,2.2-.2,3.37.17,3.85,2.66,1.58,8.15,3.42,16.24,5.24,24.71a65.69,65.69,0,0,1-8,2,3.46,3.46,0,0,1-2.65-1.95c-1.07-3.44-1.76-7-2.61-10.51a9.43,9.43,0,0,0-.9-3.12,12.61,12.61,0,0,0-2.67-2.27c-.69,1.19-2.1,2.47-2,3.55.69,5.19,1.8,10.33,2.87,16.09-3.47.76-6.92,1.64-10.41,2.16-.62.09-1.9-1.21-2.13-2.07C46,329.85,45,325.24,44,320.66c-.48-2.06-1.54-3.28-3.88-3.18-2.51.12-3.91.93-3.37,3.79,1,5.49,2,11,2.81,16.52.14,1-.5,2.86-1.24,3.14A87.73,87.73,0,0,1,27,344.46a3.26,3.26,0,0,1-2.62-1.81c-2.57-11.2-5-22.44-7.37-33.68A4.54,4.54,0,0,1,17.25,307.69Z"/><path class="cls-2" d="M295.28,550.2c-1.15,0-1.9,0-2.65,0-2.83-.21-5.67-.45-8.77-.7-.61-5.24-1.35-10.42-1.76-15.63-.22-2.78-1.53-4-4.13-4s-5.42,0-8.39,0v20.21c-3.52,0-6.77.08-10,0-1.86-.07-2.55-1.16-2.41-3.11,1.12-15.76,2.12-31.52,3.3-47.27.06-.81,1.32-2.17,2-2.18,8.31-.13,16.64-.25,24.93.15,1.54.07,3.8,2.17,4.31,3.78,2.08,6.58,2.8,13.28-.53,19.82-.42.84-.63,2.4-.16,3,2.94,3.47,2.95,7.71,3.35,11.82C294.84,540.6,295,545.21,295.28,550.2ZM270.8,512.73c0,4.39.16,4.59,3.91,4.59,5.67,0,7.37-1.1,7.32-4.7,0-3.35-1.94-4.53-7.26-4.5C271.08,508.14,270.8,508.47,270.8,512.73Z"/><path class="cls-2" d="M458.72,459.67l8.46-8.33,5.19,4.8a108.19,108.19,0,0,0,6.85-8.41c.71-1.05.86-3.38.16-4.27-1.24-1.59-3.39-2.69-5.51-1.13a52.44,52.44,0,0,0-5.49,4.71c-10.34,10.06-18.84,4.7-24.76-5.08-2.32-3.84-2.39-8.15.44-11.77a55.12,55.12,0,0,1,8.81-9.18c5.54-4.42,10.6-2.36,15.86,2.31a2.38,2.38,0,0,1,.6,2c-.47,2-4.74,5.4-6.75,5-4.69-.83-7.08,2.23-9.4,5.3-.54.7-.54,2.82-.14,3,1.17.61,3,1.22,4,.68,2.36-1.32,4.36-3.3,6.52-5,7.66-6,12.48-6.3,20.73-1.25,5.15,3.15,10,6.86,11.27,13.09a12.17,12.17,0,0,1-1.32,8.39,55.92,55.92,0,0,1-10.29,11.78c-5.46,4.61-11.12,4.28-16.85,0C464.21,464.22,461.47,461.88,458.72,459.67Z"/><path class="cls-2" d="M169.83,81.51,163.69,72,180.84,60.6c4.25,6.06,9.34,11,10.31,18.44a12.82,12.82,0,0,1-5.28,12.7,92.63,92.63,0,0,1-13.21,7.9c-3.88,2-7.84,1.09-11-1.86-8-7.51-14.43-16.27-18.22-26.63-.83-2.29-.73-5.81.5-7.79,4.76-7.72,12.12-12.25,20.87-14.26,4.35-1,7.93,1,10.65,4.45,1.44,1.8,2.73,3.71,4.24,5.79-2.05,1.28-4.05,2.39-5.9,3.71-2.34,1.67-4.4,2.34-6.37-.56a2.37,2.37,0,0,0-2.22-.63c-2.65,1.7-5.49,3.32-7.57,5.61-1,1.09-1.19,4-.41,5.38a126.75,126.75,0,0,0,9,12.93,3.49,3.49,0,0,0,3.29.83A72.38,72.38,0,0,0,178,80.5c.57-.48.33-1.92.47-2.92-.92,0-2-.22-2.72.16C173.79,78.77,172,80.08,169.83,81.51Z"/><path class="cls-2" d="M444.47,500.59c-10.13-14.63-20-28.94-30.24-43.65,7-5.83,13.66-11.4,20.43-16.79.56-.45,2.39-.08,3,.53,2.16,2,4,4.27,6.23,6.66-4.36,3.53-8.57,6.83-12.65,10.28-1.07.9-3.29,1.71-1.48,3.84,1.5,1.79,3.1,2.19,5.06.54,4.09-3.45,8.26-6.81,12.61-10.38,2.73,3.33,5.36,6.53,8,9.74-4.32,3.68-8.49,7.22-12.64,10.78-1.66,1.42-2.61,2.89-.74,5,1.71,1.91,3.36,1.71,5.17.33,3.93-3,8-5.84,11.73-9.05,2.71-2.32,4.59-2.1,6.72.63s4.6,5.28,7.34,8.41Z"/><path class="cls-2" d="M425,117.58c2.09-3,4.15-5.67,6-8.52,2.14-3.35,1.85-4.72-1.24-7.3-1.51-1.26-3.12-2.41-5-3.88l-10,12.08-8.95-7,30.81-38.15c7.61,6.42,14.87,12.39,21.9,18.62a5.48,5.48,0,0,1,1.16,4.5c-1.66,7.36-5.27,13.39-12.62,16.49-.55.23-1.32.74-1.36,1.18-.6,5.62-4.62,9.36-7.46,13.72-4.11,6.3-4.15,6.27-10,1.14C427.24,119.55,426.26,118.67,425,117.58Zm20.56-27.1c0-.17.07-.63-.11-.79a90.43,90.43,0,0,0-7.61-6.53c-.32-.24-2.35,1.47-3.21,2.58-.51.65-.7,2.38-.27,2.76a36.7,36.7,0,0,0,6.77,5C443.16,94.59,445.48,92.83,445.6,90.48Z"/><path class="cls-2" d="M295.79,515.3c0-1.43.09-2.86,0-4.28-.69-9.59,6.26-13.57,12.78-14.71a69.86,69.86,0,0,1,8.19-.61A10.5,10.5,0,0,1,327.38,502a63,63,0,0,1,6.05,36.68,10,10,0,0,1-6,8.11,30.63,30.63,0,0,1-18,2.45c-5.16-.89-9.07-3.8-10.19-9-1.75-8.2-3-16.51-4.41-24.78Zm27.65,12.45c-1.09-5.57-2.09-11.16-3.32-16.69-.62-2.83-2.69-4.21-5.58-4a29.24,29.24,0,0,0-5.16.85c-2.45.61-3.79,2.27-3.51,4.82.64,5.77,1.15,11.56,2.21,17.26.84,4.53,2.81,5.77,6.47,5.22C321,534.21,323.07,532.38,323.44,527.75Z"/><path class="cls-2" d="M416.91,60.52c-.61,2.54-.8,5.29-1.93,7.57-3.16,6.35-6.57,12.58-10.14,18.71-2.95,5.06-7.73,6.64-13.3,5.67a31.74,31.74,0,0,1-17.2-8.91,11,11,0,0,1-3.12-11.38,57.92,57.92,0,0,1,14-26c2.93-3.15,6.35-4.64,10.62-3.1s9,2.9,13.13,5C414.45,50.77,416.66,54.92,416.91,60.52Zm-12.79,3.11c.05-4.67-3-5.87-5.78-7.06-3.71-1.59-6.59-1.23-8.2,1.65a118.73,118.73,0,0,0-6.31,14,4,4,0,0,0,1.05,3.42c6.25,6.2,9.7,5.83,14.27-1.43a71.4,71.4,0,0,0,3.78-6.92A23.3,23.3,0,0,0,404.12,63.63Z"/><path class="cls-2" d="M517.56,156.09c-.79,4.43-5.17,10.17-9.12,11a2.6,2.6,0,0,1-2.2-.79,54.28,54.28,0,0,1-3.7-6.18,2.23,2.23,0,0,1,.22-2.07c1.75-1.28,1.68-2.85.73-4.33a55.79,55.79,0,0,0-4.88-6.38c-.3-.34-1.85-.11-2.31.36a2.73,2.73,0,0,0-.23,2.36c1.18,3.18,2.56,6.29,3.82,9.44,3.8,9.47,2.35,13.62-6.56,18.67-1.62.91-3.27,2.08-5,2.35-2.26.34-5.16.71-6.88-.37a31.25,31.25,0,0,1-14.1-18.7c-1.23-4.51,1.06-7.55,3.85-10.52,5.48-5.84,7.07-5.69,10.49,1.52a5.59,5.59,0,0,1-.35,4.64c-1.15,1.76-1.32,3.16-.25,4.79a49.49,49.49,0,0,0,4.16,5.85,3.3,3.3,0,0,0,2.92.55c.53-.17,1-1.68.89-2.45a41.71,41.71,0,0,0-1.91-6.25c-.7-1.84-1.67-3.57-2.45-5.38-2.81-6.5-2.08-9.5,3.36-14.07,9.78-8.21,19.07-6.72,25.25,4.43C515.26,148.09,516.17,152.22,517.56,156.09Z"/><path class="cls-2" d="M320.92,37.13c-3.27,0-6.24.16-9.16-.09a3.44,3.44,0,0,1-2.52-2c-.44-2.44-2.07-3-4-3.12a16.25,16.25,0,0,0-4.92,0c-1.16.25-2.14,1.35-3.2,2.07.79.88,1.44,2.26,2.41,2.54,3,.86,6.2,1.3,9.31,1.92A15.5,15.5,0,0,1,318,63.05a9.6,9.6,0,0,1-5.93,3.64,86.75,86.75,0,0,1-17.94,0c-6.56-.84-11.05-8.62-9.39-15a4.11,4.11,0,0,1,2.15-2.54c3.34-1.23,7.42.6,9.25,3.84,1.7,3,9.81,4.14,12.3,1.69a2.75,2.75,0,0,0-1.13-4.55,42.37,42.37,0,0,0-6.64-1.75c-1-.22-2-.16-2.94-.35-9.63-1.89-12.57-5.79-11.79-15.59.64-8,3.79-11.8,11.69-12.42,4.93-.38,10,.41,14.95,1.12,4.59.67,7,3.89,7.59,8.36C320.49,31.91,320.64,34.32,320.92,37.13Z"/><path class="cls-2" d="M342.42,60c-.87,3.75-1.62,6.94-2.34,10.14C339.44,73,337.8,74,335,73c-.31-.1-.63-.16-.95-.24-5.7-1.51-5.78-1.53-4.49-7.3,3-13.57,6.13-27.13,9.32-41.23,3,.55,5.87.95,8.69,1.62,5.54,1.32,11.12,2.54,16.53,4.27,5.81,1.87,7.6,4.74,7.58,10.83a36.89,36.89,0,0,1-4.11,16.46c-2.25,4.52-6,6.33-10.82,5.67-3.25-.45-6.44-1.29-9.65-2C345.62,60.81,344.16,60.42,342.42,60ZM353.6,49.67c3.73,0,5.83-1.54,6.35-4.32.59-3.16-2-3.46-4-4.26a20.83,20.83,0,0,0-3.8-1c-4.09-.84-5.07,0-5.61,4.06-.38,2.85.6,4.4,3.43,4.85C351.41,49.21,352.8,49.52,353.6,49.67Z"/><path class="cls-2" d="M258.7,507.15c-.77,4.31-1.24,8.69-2.36,12.9-1.78,6.71-6.07,9.26-12.86,8.17-2.49-.4-5-.84-7.45-1.29-4.35-.78-5.41,0-6.18,4.44-.49,2.91-.84,5.86-1.36,8.77-.68,3.79-1.63,4.43-5.34,3.62C213,541.56,214.88,542,217,534c3.61-13.77,7.75-27.4,11.49-41.14.66-2.4,1.78-3,3.94-2.44,5.54,1.32,11.13,2.46,16.62,4C257,496.59,258.37,498.67,258.7,507.15Zm-24.43,5.36c3.3.76,6.26,1.48,9.22,2.12s3.54-1.75,4-3.67c.53-2.11,1.64-4.95-1.4-5.95s-6.51-1.3-10-1.94Z"/><path class="cls-2" d="M69.94,129.49c3.29,6.42,6.67,11.76,8.83,17.55s5.72,7.7,11.77,7.17c6.53-.56,13.15-.13,20.72-.13-2.4,4.1-4.21,7.4-6.27,10.54-.38.6-1.74.77-2.65.78-6.79.06-13.59,0-20.6.66,4.31,2.84,8.55,5.81,13,8.47,2.09,1.26,2.42,2.5,1.23,4.48-1.35,2.22-2.63,4.49-4.12,7.05-5-2.92-9.6-5.59-14.19-8.34-8.19-4.9-16.33-9.89-24.55-14.74-1.93-1.14-2.19-2.24-1.2-4.23,3.8-7.63,4.53-7.87,11.76-3.33a36.29,36.29,0,0,0,8,4c-.56-1.3-1.06-2.62-1.68-3.89-.92-1.87-1.92-3.7-2.87-5.55-1.34-2.62-4.18-5.62-3.65-7.79C64.44,138,67.36,134.23,69.94,129.49Z"/><path class="cls-2" d="M69.51,391.74c2.16,3.37,3.59,5.71,5.14,8,1.34,1.95.92,3.39-.92,4.7-1.51,1.09-2.93,2.3-4.39,3.46-1.61,1.3-2.06,2.76-.63,4.49.07.09.12.19.18.28,4,6.53,5.16,6.86,11.4,2.7C88.21,410,96,404.61,104.25,399a66.54,66.54,0,0,1,4.65,6.15,3.25,3.25,0,0,1-.53,3c-9.82,9.28-20,18.2-32.14,24.31-6.28,3.16-10.38,2.47-15-2.81a82.8,82.8,0,0,1-8.58-12.36c-3.07-5.18-2.22-10.49,2-14.42C59.11,398.8,64.33,395.57,69.51,391.74Z"/><path class="cls-2" d="M519.64,239A19,19,0,0,1,501,219.86a18.58,18.58,0,0,1,18.81-18.79c10.46,0,19.47,8.79,19.41,18.86C539.14,230.3,530.12,239.09,519.64,239Z"/><path class="cls-2" d="M71,219.76a19.39,19.39,0,0,1-19.39,19.18c-9.76,0-18.84-9-18.86-18.76,0-10.14,9-19.17,19.11-19.23C61.82,200.9,71,209.92,71,219.76Z"/><path class="cls-2" d="M473.69,94.77l24.48,26.41-9.32,8.64-8.72-7.88-26.36,23.89a3.74,3.74,0,0,1-.8-.51c-8.8-9.29-7.58-6.7.15-14.61,4.83-5,9.93-9.62,14.88-14.45,1.17-1.13,2.21-2.4,3.59-3.91-1.87-2.16-3.6-4.24-5.43-6.24-1.42-1.56-1.65-2.94.06-4.45C468.66,99.49,471,97.23,473.69,94.77Z"/><path class="cls-2" d="M515.41,393.45l8.34-17.75,14.46,5.69c-4.75,9.88-9.37,19.5-14.15,29.43-4.37-2.31-8.33-4.35-12.25-6.47-10.2-5.55-20.34-11.22-30.62-16.62-2.39-1.26-2.66-2.53-1.54-4.62a4.13,4.13,0,0,0,.22-.62c2.19-5.27,2.42-5.43,7.52-2.94C496.64,384.07,505.84,388.69,515.41,393.45Z"/><path class="cls-2" d="M515.76,424c-2.25,3.6-4.33,6.92-6.67,10.68L474.3,411.87l-6.51,7.88-8.63-6.41c2.69-4.07,5.3-8.06,8-12,2.32-3.46,4.76-6.84,7-10.33,1-1.55,2.08-2.06,3.81-1.22,2.25,1.1,4.57,2.06,7.26,3.26l-4.9,9.94Z"/><path class="cls-2" d="M544.94,362.18l-6.12,15.74L490.13,358c-.13-.53-.26-.76-.21-.94,2.94-10.4,3-10.43,13.36-7.37q18.88,5.55,37.74,11.2C542.16,361.23,543.27,361.63,544.94,362.18Z"/><path class="cls-2" d="M236.66,59.8c.3,4.09-1.85,7.47-6,9.75a29.49,29.49,0,0,1-14.44,3.79,7,7,0,0,1-6.54-3.58c-3.18-5.45-6.14-11-5.42-17.55a9.45,9.45,0,0,1,3-5.77c4.71-3.8,10.39-5.47,16.43-5.84a8.17,8.17,0,0,1,7.82,3.86C234.49,48.91,236.68,53.6,236.66,59.8Zm-16,2.38c2.92,0,4.66-1.6,4.6-4.27-.06-3-2-6.67-3.6-6.66-3.08,0-6.3,2.34-6.27,4.51C215.44,59.16,217.91,62.18,220.66,62.18Z"/><path class="cls-2" d="M237.9,35.27l23.4-4.5a12.17,12.17,0,0,1,.58,1.4c1.61,6.85.77,8-6.25,8.95a22.93,22.93,0,0,0-4.79,1.08c-.66.24-1.06,1.19-1.58,1.81.72.35,1.48,1.06,2.15,1,3.89-.45,7.77-1.09,12.22-1.74.12,2.56.37,5,.26,7.49,0,.55-1.23,1.33-2,1.51-3.51.81-7.07,1.45-11,2.23.27,2.05.62,4.05.79,6.07.33,4.1-.37,4.85-4.47,5-1.41,0-2.82,0-4.55,0C241.09,55.53,239.54,45.71,237.9,35.27Z"/><path class="cls-2" d="M114.78,150.56l-36.84-30.5c.72-1.08,1.29-2,1.9-2.86,4.13-5.88,5.1-6.25,10.56-1.78,10.09,8.25,19.92,16.83,29.9,25.22,1.69,1.42,2,2.61.26,4.23C118.61,146.62,116.81,148.55,114.78,150.56Z"/><path class="cls-2" d="M336.57,522.76c-.6-2.74-1.41-5.15-1.53-7.59a4,4,0,0,1,2.17-3c2.79-1.16,5.77-1.84,9-2.82,1.3,3.25,2.51,6.25,3.88,9.67Z"/><path class="cls-1" d="M281.39,81.32c65.31.31,115,21.83,155.53,65.11A201.21,201.21,0,0,1,484,229.89c7,24.57,8,49.73,5.21,75.09-3.31,30.22-12.07,58.74-28.26,84.46-25.37,40.29-60.77,68.43-105.74,84.48-22.83,8.14-46.31,11.28-70.46,11.15-64.65-.35-117-26.1-157.74-75.93-20.81-25.49-34.84-54.45-41.1-86.86-3.62-18.75-4-37.79-2.43-56.8a194.22,194.22,0,0,1,41.2-105.12c30.62-39.25,70.1-65.48,119.32-75.3C258.21,82.23,273,82.11,281.39,81.32ZM351.5,326.38l1.37.51a60,60,0,0,0,5.51-5.41c4.22-5.35,5.71-11.67,6.35-18.37,1.38-14.56-5.65-25-19.9-28.61-11.9-3-23.06-.07-33.73,5.12-1.7.82-2.89,2.86-4.07,4.51-2.09,2.9-3.51,6.46-6.08,8.79-4.52,4.11-7.92,8.21-5.75,14.74a1.73,1.73,0,0,1,0,1.29c-.41.66-.91,1.56-1.54,1.72-3.09.78-7.64-2.11-7.93-5.33-.33-3.5-2.21-5.88-4.56-8.08-2.16-2-4.54-3.84-6.59-6-1.34-1.38-2.89-3-3.22-4.78a9.74,9.74,0,0,1,1.09-6c1.21-2.14,3.43-1.18,5.32-.41,10.76,4.37,20.16,1.47,28.59-5.68a6.46,6.46,0,0,0,1.94-4.42c0-13-.29-25.92-.38-38.88-.06-8.27,1.89-11,9.42-14,.71-.28,1.41-.6,2.11-.92,12.16-5.59,24.4-10.8,37.8-13,7.1-1.16,8.65-4,6.77-11-1.16-4.34-.42-7.52,2.61-10.73,3.3-3.51,3.14-4.92.27-8.94-.51-.72-1-1.42-1.57-2.12-3.48-4.61-3-6.53,2.66-8.07s9.55-5.09,12.22-10.19a52.6,52.6,0,0,1,3.16-5.38c4.49-6.6,10.84-9,18.58-7.89,6.89,1,10.08,6.68,7.34,13.13a17.91,17.91,0,0,1-2.77,4.43c-2.63,3.1-5.59,5.92-8.1,9.1a48.76,48.76,0,0,0-5.68,8.73c-1.22,2.5.61,6.44,3,7.62,2.75,1.37,4.58-.29,6.29-2.11a18,18,0,0,0,2-2.59,75.39,75.39,0,0,0,10.36-24.39c2-9.19-.75-16.13-7.84-18.86-7.76-3-15.73-3.88-23.61,0-3.53,1.75-7.28,3.11-10.71,5-9.65,5.43-19.93,6.34-30.62,4.66a52.62,52.62,0,0,0-32,5c-7.53,3.67-14.47,8.51-15.42,17.5C293,177.58,292.94,189.22,298,200c1.75,3.73-.82,8.06-4,9.08a14.31,14.31,0,0,1-4.18.79q-8.73,0-17.45-.2a51.3,51.3,0,0,1-6.53-.7c-2.35-.38-3.06-1.64-1.46-3.62,1.85-2.3,3.81-4.53,5.73-6.78,3.7-4.34,7.57-8.54,11-13.07a12.64,12.64,0,0,0,2-6.09c.32-3-.22-6.08.07-9.08.6-6.15,1.12-12.3-4.34-16.69-6.7-5.38-14.08-9.1-23.06-9.16-14.08-.11-28,.28-41.83,3.77-9.39,2.38-18.36,1.61-26.33-5.15-3.79-3.22-8.42-5.56-12.92-7.78a14.22,14.22,0,0,0-7.58-1.37c-7,.82-11,5.14-12.44,12.53-1.66,8.65-.69,17.28.2,25.93a48.34,48.34,0,0,1,.09,9.16c-.08,1-1.43,2-2.2,3a13.58,13.58,0,0,1-2.58-2.22,17.31,17.31,0,0,1-1.64-3.57c-.88-2.17-2.33-3.11-4.79-3.19-5.49-.18-10.42,1.62-13.24,6-7,11-13.53,22.27-19.94,33.61-1,1.72-.27,4.37-.35,6.59a40.74,40.74,0,0,0,6.27-1.81c6-2.74,11.65-6.14,17.76-8.45a32.07,32.07,0,0,0,12.26-8c1-1.07,2.17-2,3.75-3.44a37.14,37.14,0,0,1,1.1,5c.2,3.06,1.79,4.23,4.73,4.09a55.08,55.08,0,0,1,5.6.1c2.52.14,5.05.38,8.3.64a12.93,12.93,0,0,1-8.11,6.55c-5.7,1.66-9.41,5.33-11.91,10.55-1.65,3.47-3.46,6.86-5.35,10.19a17.22,17.22,0,0,1-2.66,2.89l-1-.32c-.22-2.34-.56-4.67-.65-7-.24-6.11-2.74-8.69-8.86-9.06-8.76-.52-15.87,2.91-21.56,9.31a39.46,39.46,0,0,0-9.85,26.29c-.15,12,.66,24.11,1.27,36.16.1,2,1.27,4,2,6a36.44,36.44,0,0,0,5-3.33c8.45-7.84,16.72-15.87,25.22-23.66A22.65,22.65,0,0,0,140.94,262c.66-3.27,1.8-6.43,2.94-10.36,1.46,1.62,2.4,2.64,3.31,3.7,3.45,4,7.64,5.2,12.38,2.74,6.11-3.16,12.08-6.61,18.09-10,1.32-.74,2.53-1.68,4.37-2.91a21.9,21.9,0,0,1-7.8,11.7c-4.84,4-9.84,7.75-14.42,12a9.93,9.93,0,0,0-3.06,6.22,191,191,0,0,0,.39,24.29,44.71,44.71,0,0,0,4.3,14.31c2.14,4.57,4.55,4.39,8,.66,3.11-3.38,6.07-7.08,9.77-9.67,4.43-3.09,8.64-6,10.07-11.54a5.17,5.17,0,0,1,1.27-1.9c2.7-3.2,6.09-3.22,8.53.15,1.73,2.38,2.94,5.14,4.63,7.56,3.49,5,6.63,10.41,10.84,14.75,8,8.24,18.75,10.49,29.72,11.6a8.23,8.23,0,0,1,5.9,3c3.29,3.83,6.63,7.65,10.26,11.15a73.33,73.33,0,0,0,8.77,6.87c.76.54,2,.36,3.09.52a15.5,15.5,0,0,0,.16-3.1C271.33,336.5,270,329.28,269,322c-.68-5.12,1.71-6.66,6.74-5.4a49.06,49.06,0,0,0,9.95.91c5.11.18,10.29-.31,15.31.39,3.6.5,6.22,3.05,6.27,7.33.07,5.59.28,11.19.51,16.78a30.92,30.92,0,0,0,.71,4,25,25,0,0,0,3.32-1.83c7.15-5.69,12.44-12.62,14.49-21.74a19.51,19.51,0,0,1,1.78-5.6c.7-1.19,2.33-2.58,3.56-2.59a119.14,119.14,0,0,1,14.75.72c3.87.43,4.71,1.78,4.82,5.73C351.29,322.58,351.41,324.48,351.5,326.38ZM172.86,429.83l1.57-.95a15.27,15.27,0,0,0,1.31-2.58c3.73-12.94,7.32-25.93,11.17-38.84a16.17,16.17,0,0,0-2-14.09c-2.24-3.52-4.43-7.07-6.47-10.7-3.61-6.4-6.73-13.09-10.7-19.25-4.41-6.85-9.83-7.29-16-2-13.78,11.71-17.92,36.14-8.53,49.86,7.48,10.94,16.05,21.13,24.15,31.64C169.15,425.24,171,427.52,172.86,429.83Zm65.75,7.06c.34-13.56-.8-16-8.17-22.05-2.62-2.16-5.13-4.47-7.71-6.67-4.09-3.48-7.87-7.45-12.37-10.29-10.7-6.76-16.33-5.09-20.39,7.37-2.09,6.44-1.41,13.82-1.75,20.78-.4,8.15,3.7,14.3,10.11,18.48,9.8,6.37,20,12.18,30.18,17.95,4.07,2.3,5.59,1.49,6.47-3.23C236.59,450.52,237.83,441.74,238.61,436.89ZM152.94,318.83c-.49-4.35-.68-8.77-1.54-13.05-1.57-7.83-3.34-15.62-5.4-23.33-1-3.84-2.92-4.39-6-2-6.23,4.85-12.84,9.4-18.26,15.05-7.76,8.1-12.22,18.11-10.44,29.63a171.92,171.92,0,0,0,5.55,22.59,57.72,57.72,0,0,0,5.27,12c2.46,4.33,5.24,4.24,8,.14a31.4,31.4,0,0,0,2.76-4.85,73,73,0,0,1,13.74-20.74C150.6,330,153.3,325,152.94,318.83Zm285.51,57.53c-1.35-12.19-4.75-23.34-13.69-32.11-6.45-6.32-10.38-5.69-14.84,2.25-2.42,4.3-4.75,8.66-7.23,12.93-3.36,5.78-6.88,11.47-10.22,17.27-2.67,4.61-3.33,9.39-1,14.46,3.8,8.38,7.42,16.83,11.14,25.24,1.65,3.74,3.34,4.32,7,2.33a19,19,0,0,0,3-2.06c8.46-7.17,10.57-15.21,7-26.36-1.24-3.85-2.63-7.67-3.57-11.59-.28-1.17.42-3.47,1.24-3.79a5.9,5.9,0,0,1,4.41.71c1.16.63,1.79,2.16,2.74,3.22,1.68,1.86,3.19,4,5.18,5.42,3.62,2.66,6.88,1.41,8.08-2.85A49,49,0,0,0,438.45,376.36Zm35.8-102.94-.45-.09c-.17-1.85-.44-3.7-.5-5.56-.7-23.48-18.16-37.87-33.08-43.2-6.15-2.2-7.49-.93-7.81,5.55a127.92,127.92,0,0,1-2,19.17c-1.77,8.67-1.1,16.69,5.57,22.79,7.6,6.93,15.73,13.32,23.95,19.52,5.13,3.87,9.41,2.41,11.39-3.79C472.81,283.18,473.31,278.23,474.25,273.42ZM342.92,460.73c7.48-3.89,14.69-7.55,21.82-11.38a134.76,134.76,0,0,0,11.89-7c13.65-9.27,17.66-30.68,8.48-44.53-3.31-5-4.71-5.31-9.27-1.49-5.38,4.5-10.37,9.51-16,13.71-5.32,4-11.25,7.19-16.85,10.83-4.87,3.17-5.93,6.17-4.42,11.8a50.78,50.78,0,0,1,1.51,6C341.1,445.86,341.94,453,342.92,460.73ZM458.53,326.15c0-8.5-1.55-15-6.07-21.83-3.87-5.84-8.19-11.38-12.4-17a26.81,26.81,0,0,0-3.88-4c-3.81-3.31-6.42-2.74-8.28,1.88a71.45,71.45,0,0,0-2.16,6.89c-1.93,6.62-3.41,13.4-5.84,19.84-2.55,6.79-2,12.83,2.91,18,6.65,7,13.72,13.56,20.59,20.33,2,1.94,3.94,1.59,5.81-.05a25.93,25.93,0,0,0,3.39-3.56C457.22,340.58,458.4,333.51,458.53,326.15Zm-283,7.47c.55,2.88.38,6.19,1.78,8.57,5.1,8.66,10.57,17.12,16.23,25.43,2,2.95,3.23,2.79,5.28-.11,4.18-5.89,8-12,12.21-17.91,2.71-3.81,2-7.13-.68-10.46a20.54,20.54,0,0,0-2.08-2.54c-7.25-6.68-11.26-15.18-14.1-24.43-1.75-5.73-5.19-6.5-9.64-2.4a20.9,20.9,0,0,0-3.5,4.33C177.38,320.05,176,326.62,175.53,333.62Zm226-3.25c-.27-2.72-.34-5.47-.86-8.14A11.62,11.62,0,0,0,394,313.4c-1.84-.85-3.28-.46-4.6,1.19-4.1,5.12-8.37,10.1-12.44,15.24a104.27,104.27,0,0,0-8.71,11.88c-2.12,3.62-3.1,7.87-.56,11.87,3.52,5.55,7.12,11.05,10.91,16.43,2.06,2.94,4.79,2.9,7,0A79.53,79.53,0,0,0,391,361.7C396.7,352,402.13,342.22,401.54,330.37ZM286.83,132c-.29-2.93-.47-5.89-.88-8.82C283.3,104,261.52,96.4,249,101.19c-7.3,2.8-9.89,9.89-5.33,16.22a45.63,45.63,0,0,0,9.78,9.59,224.16,224.16,0,0,0,19.39,12.9c2.67,1.59,6.06,2.16,9.2,2.68,2.13.35,3.8-.89,4-3.36S286.59,134.43,286.83,132Zm5.2-1.16c1,3.71,2.17,8.45,3.68,13.07.83,2.56,2.43,2.39,4.55.84,4.49-3.27,9.15-6.32,13.84-9.29,4-2.52,8.26-4.56,12.12-7.22,5.37-3.7,7.85-11.72,5.85-17.57-1.92-5.62-6.57-8.34-14.15-8.28a19.17,19.17,0,0,0-2.63.08c-11.06,1.54-19,6.24-21.22,16.12C293.24,122.18,292.83,125.89,292,130.82Zm26.69,266.39c5.13-.07,8.22-3.23,11-6.67,1.82-2.22,3.78-4.91,1.92-7.73-1.74-2.62-4.79-1.53-7.3-.92a33.78,33.78,0,0,1-22.17-1.95c-3.51-1.52-7.21-2.58-10.8-3.91a8.76,8.76,0,0,0-8.17.9c-3.22,2.08-6.42,4.19-9.55,6.41-5,3.54-10.11,4.38-15.74,1.56a26,26,0,0,0-6.48-2.31c-1.44-.28-3.67-.22-4.44.66-.93,1.06-1.47,3.59-.82,4.7a65.71,65.71,0,0,0,7.26,9.92c.73.85,2.79,1.17,4,.85a131.36,131.36,0,0,0,13.45-4.28c12.62-4.89,25.1-5.4,37.72,0C311.8,395.84,315.35,396.33,318.72,397.21Zm49.68-15.15c-1-5.6-1.67-11.27-3-16.79-1.5-6.24-5.22-7.44-10.5-3.75s-9.51,8.71-10.58,15c-1.66,9.68-2.29,19.56-3.06,29.38-.23,3,2.2,4.25,5,2.61a154.9,154.9,0,0,0,13.28-8.5C365.49,395.65,368.83,389.84,368.4,382.06ZM222,107.34c-11.32-.56-19,5.84-26,13.48a4.63,4.63,0,0,0,1.23,7.13,16.35,16.35,0,0,0,5.45,2.13q15.47,3,31,5.71c6,1,8.62-1.85,7.22-7.74a35.89,35.89,0,0,0-9.57-17C228.74,108.44,225.73,106.79,222,107.34Zm24.46,339.8.65.08c0,1.65-.12,3.3,0,4.93.47,5.25,1.73,10.27,6.1,13.72A27.14,27.14,0,0,0,277,471.16c3.91-.88,4.82-2.6,3.17-6.2A123.82,123.82,0,0,0,259,432.63c-3.89-4.26-8.55-3.22-10.31,2.34C247.48,438.87,247.15,443.07,246.42,447.14Zm83.74.28c0-1.1.07-2.2,0-3.29-.61-7.87-5.18-10.74-12-7.05-10.78,5.79-18.36,14.78-23.73,25.63-1.78,3.6-.73,5.89,2.73,8a14.19,14.19,0,0,0,10.67,1.82C322.66,469.51,330.18,461.24,330.16,447.42ZM235.5,394.08h.17c0-1.09-.1-2.19-.14-3.28-.44-12.22-3.48-23.6-10.72-33.64-4.29-5.93-6.05-5.88-9.67.37-5.31,9.18-7.94,18.51-1.82,28.48a72.8,72.8,0,0,0,16.24,18.43,9,9,0,0,0,1.93,1.25c2.39,1.07,3.84.27,4-2.4C235.61,400.23,235.5,397.15,235.5,394.08ZM352.89,137a40.09,40.09,0,0,0,6.14-1c5.8-1.84,11.66-3.6,17.24-6,3.4-1.46,3.66-3.4,1.31-6.26a49.31,49.31,0,0,0-7.44-7.36c-5.58-4.41-11.79-7.56-19.12-7.78-5.61-.18-11.37,3.75-12.95,8.75C334.68,128.07,341.74,137.38,352.89,137Zm75,58.14c.39,15,11.64,26.06,26.1,25.4,3.57-.16,5.3-1.7,5.41-5.18a32,32,0,0,0-.37-7.53C456.35,195,447,188.33,436,183.23c-3.11-1.45-5.3-.21-6.23,2.67A74.75,74.75,0,0,0,427.9,195.14ZM408,314.69c.9-1.46,1.5-2.25,1.92-3.13a70.06,70.06,0,0,0,6.46-34.47,22.53,22.53,0,0,0-8-16.33,6.83,6.83,0,0,0-4.54-1.86c-.78.08-1.67,2.52-1.92,4-1.21,7.22-2.11,14.49-3.35,21.71-.55,3.21-2.11,6.29-2.4,9.5C395.35,303.43,402.18,308.49,408,314.69Zm13-52.35a26.58,26.58,0,0,0,.8-3.94q.22-14.11.34-28.23c.06-7-3.45-12.09-9.12-15.72-4.39-2.81-7.94-1.19-9,3.84-.45,2.14-.78,4.31-1.08,6.47-1.78,12.68.27,24.05,11.13,32.39C416.2,258.77,418.35,260.35,421,262.34ZM370.8,211c-5.09,1.34-9.23,2.34-13.32,3.52-6.45,1.87-6.28,1.16-3.86,7.77,3.32,9,2.52,18.25-6.32,23.47-5.31,3.13-10.73,3.54-16.27.66s-8.4-7.49-8.14-13.87c.05-1.31-.15-2.63-.29-4.77-7.74,6.92-6.21,15.59-7.48,22.83,8.05.73,15.82,1.74,23.62,2.06,11.22.45,19.2-4.74,23.42-15.11,2.63-6.48,4.71-13.18,6.95-19.81C369.76,215.81,370.11,213.8,370.8,211Zm32-14.75c.85,2.28,1.09,6,3,7.44,4,3,8.79,5,13.49,6.85,2.65,1,4.05-1,3.86-3.68-.49-6.88-2.38-13.34-6.54-18.93a13.72,13.72,0,0,0-4.21-3.54c-3.26-1.86-6.17-1-7.47,2.54C404,189.63,403.61,192.6,402.8,196.23ZM350,230.28c0-8.53-5.06-11.95-12.94-8.73a22.3,22.3,0,0,0-3.51,1.79c-6.56,4.13-6.21,15.79.62,19.6a6.27,6.27,0,0,0,2.82.63C344.9,243.66,350,238.43,350,230.28ZM266.75,353.72l-1.2.27c-3.77,6.59-4.91,13.59-2.73,21,.91,3.11,3.46,4.71,5.91,3.56a25.68,25.68,0,0,0,5.77-4.19,2.84,2.84,0,0,0,.52-2.6C272.36,365.71,269.53,359.72,266.75,353.72Zm49.14.63c-2.53,4.68-4.8,8.79-7,13a30.57,30.57,0,0,0-1.41,3.67c-.95,2.57-.08,4.45,2.16,5.88,5.49,3.52,10.12,1.31,10.49-5.23C320.47,365.7,318.78,360.16,315.89,354.35Zm101.77-186c.5,4,1.83,5.82,5.53,5.61a56.09,56.09,0,0,0,10.52-2c1.77-.45,2.51-2,1.23-3.56-2.79-3.34-5.66-6.62-8.72-9.7-1.62-1.63-3.59-1.18-4.63.84C420.11,162.43,419,165.45,417.66,168.39Z"/><path class="cls-1" d="M160.92,478.74c-.33,1.55-.54,3.14-1,4.65-1.47,4.72-3.12,5-7,.79l7.24-6Z"/><path class="cls-1" d="M127.78,459.18a18.57,18.57,0,0,1,1.64-1.82c1.89-1.57,4.8-4.79,5.58-4.34,3.12,1.78,5.66,4.64,8.21,7.3.37.38-.12,2.16-.73,2.79a51.42,51.42,0,0,1-5,4.1Z"/><path class="cls-1" d="M112.21,433.35c-1.25,1.5-2.46,3-3.75,4.5-3,3.41-3.58,3.34-6.41-1.14l9.84-4.31Z"/><path class="cls-1" d="M410,479.77a7.81,7.81,0,0,1-1.51,2.05c-1.53,1.22-3.34,2.09-4.86,3.3-2.31,1.84-3.62,1.14-5.15-1.14-1.65-2.48-1.66-4.11,1.17-5.42a64.3,64.3,0,0,1,5.88-2.79C408.21,474.84,410,476.32,410,479.77Z"/><path class="cls-1" d="M270.8,512.73c0-4.26.28-4.59,4-4.61,5.32,0,7.22,1.15,7.26,4.5.05,3.6-1.65,4.7-7.32,4.7C271,517.32,270.8,517.12,270.8,512.73Z"/><path class="cls-1" d="M445.6,90.48c-.12,2.35-2.44,4.11-4.43,3a36.7,36.7,0,0,1-6.77-5c-.43-.38-.24-2.11.27-2.76.86-1.11,2.89-2.82,3.21-2.58a90.43,90.43,0,0,1,7.61,6.53C445.67,89.85,445.58,90.31,445.6,90.48Z"/><path class="cls-1" d="M323.44,527.75c-.37,4.63-2.46,6.46-8.89,7.43-3.66.55-5.63-.69-6.47-5.22-1.06-5.7-1.57-11.49-2.21-17.26-.28-2.55,1.06-4.21,3.51-4.82a29.24,29.24,0,0,1,5.16-.85c2.89-.18,5,1.2,5.58,4C321.35,516.59,322.35,522.18,323.44,527.75Z"/><path class="cls-1" d="M404.12,63.63a23.3,23.3,0,0,1-1.19,3.64,71.4,71.4,0,0,1-3.78,6.92c-4.57,7.26-8,7.63-14.27,1.43a4,4,0,0,1-1.05-3.42,118.73,118.73,0,0,1,6.31-14c1.61-2.88,4.49-3.24,8.2-1.65C401.13,57.76,404.17,59,404.12,63.63Z"/><path class="cls-1" d="M353.6,49.67c-.8-.15-2.19-.46-3.59-.68-2.83-.45-3.81-2-3.43-4.85.54-4.07,1.52-4.9,5.61-4.06a20.83,20.83,0,0,1,3.8,1c1.92.8,4.55,1.1,4,4.26C359.43,48.13,357.33,49.7,353.6,49.67Z"/><path class="cls-1" d="M234.27,512.51l1.85-9.44c3.49.64,6.87.9,10,1.94s1.93,3.84,1.4,5.95c-.49,1.92-1.05,4.31-4,3.67S237.57,513.27,234.27,512.51Z"/><path class="cls-1" d="M220.66,62.18c-2.75,0-5.22-3-5.27-6.42,0-2.17,3.19-4.48,6.27-4.51,1.55,0,3.54,3.66,3.6,6.66C225.32,60.58,223.58,62.19,220.66,62.18Z"/><path class="cls-2" d="M351.5,326.38c-.09-1.9-.21-3.8-.27-5.71-.11-3.95-1-5.3-4.82-5.73a119.14,119.14,0,0,0-14.75-.72c-1.23,0-2.86,1.4-3.56,2.59a19.51,19.51,0,0,0-1.78,5.6c-2.05,9.12-7.34,16-14.49,21.74a25,25,0,0,1-3.32,1.83,30.92,30.92,0,0,1-.71-4c-.23-5.59-.44-11.19-.51-16.78-.05-4.28-2.67-6.83-6.27-7.33-5-.7-10.2-.21-15.31-.39a49.06,49.06,0,0,1-9.95-.91c-5-1.26-7.42.28-6.74,5.4,1,7.28,2.31,14.5,3.42,21.76a15.5,15.5,0,0,1-.16,3.1c-1-.16-2.33,0-3.09-.52a73.33,73.33,0,0,1-8.77-6.87c-3.63-3.5-7-7.32-10.26-11.15a8.23,8.23,0,0,0-5.9-3c-11-1.11-21.71-3.36-29.72-11.6-4.21-4.34-7.35-9.74-10.84-14.75-1.69-2.42-2.9-5.18-4.63-7.56-2.44-3.37-5.83-3.35-8.53-.15a5.17,5.17,0,0,0-1.27,1.9c-1.43,5.58-5.64,8.45-10.07,11.54-3.7,2.59-6.66,6.29-9.77,9.67-3.44,3.73-5.85,3.91-8-.66a44.71,44.71,0,0,1-4.3-14.31,191,191,0,0,1-.39-24.29,9.93,9.93,0,0,1,3.06-6.22c4.58-4.25,9.58-8,14.42-12a21.9,21.9,0,0,0,7.8-11.7c-1.84,1.23-3.05,2.17-4.37,2.91-6,3.38-12,6.83-18.09,10-4.74,2.46-8.93,1.25-12.38-2.74-.91-1.06-1.85-2.08-3.31-3.7-1.14,3.93-2.28,7.09-2.94,10.36a22.65,22.65,0,0,1-7.31,12.53c-8.5,7.79-16.77,15.82-25.22,23.66a36.44,36.44,0,0,1-5,3.33c-.68-2-1.85-4-2-6-.61-12.05-1.42-24.12-1.27-36.16A39.46,39.46,0,0,1,110,233.09c5.69-6.4,12.8-9.83,21.56-9.31,6.12.37,8.62,2.95,8.86,9.06.09,2.34.43,4.67.65,7l1,.32a17.22,17.22,0,0,0,2.66-2.89c1.89-3.33,3.7-6.72,5.35-10.19,2.5-5.22,6.21-8.89,11.91-10.55a12.93,12.93,0,0,0,8.11-6.55c-3.25-.26-5.78-.5-8.3-.64a55.08,55.08,0,0,0-5.6-.1c-2.94.14-4.53-1-4.73-4.09a37.14,37.14,0,0,0-1.1-5c-1.58,1.44-2.74,2.37-3.75,3.44a32.07,32.07,0,0,1-12.26,8c-6.11,2.31-11.8,5.71-17.76,8.45a40.74,40.74,0,0,1-6.27,1.81c.08-2.22-.62-4.87.35-6.59,6.41-11.34,12.9-22.65,19.94-33.61,2.82-4.4,7.75-6.2,13.24-6,2.46.08,3.91,1,4.79,3.19a17.31,17.31,0,0,0,1.64,3.57,13.58,13.58,0,0,0,2.58,2.22c.77-1,2.12-1.92,2.2-3a48.34,48.34,0,0,0-.09-9.16c-.89-8.65-1.86-17.28-.2-25.93,1.42-7.39,5.49-11.71,12.44-12.53a14.22,14.22,0,0,1,7.58,1.37c4.5,2.22,9.13,4.56,12.92,7.78,8,6.76,16.94,7.53,26.33,5.15,13.79-3.49,27.75-3.88,41.83-3.77,9,.06,16.36,3.78,23.06,9.16,5.46,4.39,4.94,10.54,4.34,16.69-.29,3,.25,6.08-.07,9.08a12.64,12.64,0,0,1-2,6.09c-3.44,4.53-7.31,8.73-11,13.07-1.92,2.25-3.88,4.48-5.73,6.78-1.6,2-.89,3.24,1.46,3.62a51.3,51.3,0,0,0,6.53.7q8.71.22,17.45.2a14.31,14.31,0,0,0,4.18-.79c3.14-1,5.71-5.35,4-9.08-5.08-10.82-5-22.46-3.81-33.93,1-9,7.89-13.83,15.42-17.5a52.62,52.62,0,0,1,32-5c10.69,1.68,21,.77,30.62-4.66,3.43-1.92,7.18-3.28,10.71-5,7.88-3.91,15.85-3,23.61,0,7.09,2.73,9.83,9.67,7.84,18.86A75.39,75.39,0,0,1,404,177.13a18,18,0,0,1-2,2.59c-1.71,1.82-3.54,3.48-6.29,2.11-2.38-1.18-4.21-5.12-3-7.62a48.76,48.76,0,0,1,5.68-8.73c2.51-3.18,5.47-6,8.1-9.1a17.91,17.91,0,0,0,2.77-4.43c2.74-6.45-.45-12.14-7.34-13.13-7.74-1.1-14.09,1.29-18.58,7.89a52.6,52.6,0,0,0-3.16,5.38c-2.67,5.1-6.46,8.62-12.22,10.19s-6.14,3.46-2.66,8.07c.53.7,1.06,1.4,1.57,2.12,2.87,4,3,5.43-.27,8.94-3,3.21-3.77,6.39-2.61,10.73,1.88,7,.33,9.83-6.77,11-13.4,2.19-25.64,7.4-37.8,13-.7.32-1.4.64-2.11.92-7.53,3-9.48,5.77-9.42,14,.09,13,.37,25.92.38,38.88a6.46,6.46,0,0,1-1.94,4.42c-8.43,7.15-17.83,10.05-28.59,5.68-1.89-.77-4.11-1.73-5.32.41a9.74,9.74,0,0,0-1.09,6c.33,1.74,1.88,3.4,3.22,4.78,2.05,2.13,4.43,3.94,6.59,6,2.35,2.2,4.23,4.58,4.56,8.08.29,3.22,4.84,6.11,7.93,5.33.63-.16,1.13-1.06,1.54-1.72a1.73,1.73,0,0,0,0-1.29C293,301.13,296.43,297,301,292.92c2.57-2.33,4-5.89,6.08-8.79,1.18-1.65,2.37-3.69,4.07-4.51,10.67-5.19,21.83-8.13,33.73-5.12,14.25,3.61,21.28,14.05,19.9,28.61-.64,6.7-2.13,13-6.35,18.37a60,60,0,0,1-5.51,5.41ZM255.63,287c-.55-3.08-2.09-6.13-1.27-8.29,1.84-4.83,1.18-9.46.72-14.23a14.1,14.1,0,0,1,2.35-10c1.11-1.57,1.29-4.07,1.25-6.14-.13-7.09-1.39-14.28-.61-21.25.74-6.56-3.74-11.69-10.71-11.75a29.91,29.91,0,0,1-12.07-2.44,81.22,81.22,0,0,0-25.79-7.32c-4-.43-8.16-.07-12.52-.07,1.42,8.13,2.85,15.65,4,23.22,2.6,16.83,11.93,27,28.9,30a94.09,94.09,0,0,1,14.2,4c5.94,2.07,7.6,5,7.23,11.3-.12,2.18-.3,4.38-.21,6.56A6.76,6.76,0,0,0,255.63,287Zm-88-143c-5.49,0-7.57,1.49-8.43,5.44a31.65,31.65,0,0,0,1.34,18.41c1.51,3.87,4.17,7.33,6.59,10.78.51.74,2.8,1.28,3.26.85,4.95-4.73,9.94-9.48,14.4-14.66,1.94-2.25,1.88-5.61.35-8.43A23.59,23.59,0,0,0,167.64,144Z"/><path class="cls-2" d="M172.86,429.83c-1.84-2.31-3.71-4.59-5.51-6.93-8.1-10.51-16.67-20.7-24.15-31.64-9.39-13.72-5.25-38.15,8.53-49.86,6.21-5.27,11.63-4.83,16,2,4,6.16,7.09,12.85,10.7,19.25,2,3.63,4.23,7.18,6.47,10.7a16.17,16.17,0,0,1,2,14.09c-3.85,12.91-7.44,25.9-11.17,38.84a15.27,15.27,0,0,1-1.31,2.58Z"/><path class="cls-2" d="M238.61,436.89c-.78,4.85-2,13.63-3.63,22.34-.88,4.72-2.4,5.53-6.47,3.23-10.19-5.77-20.38-11.58-30.18-17.95-6.41-4.18-10.51-10.33-10.11-18.48.34-7-.34-14.34,1.75-20.78,4.06-12.46,9.69-14.13,20.39-7.37,4.5,2.84,8.28,6.81,12.37,10.29,2.58,2.2,5.09,4.51,7.71,6.67C237.81,420.9,239,423.33,238.61,436.89Z"/><path class="cls-2" d="M152.94,318.83c.36,6.2-2.34,11.14-6.34,15.45A73,73,0,0,0,132.86,355a31.4,31.4,0,0,1-2.76,4.85c-2.75,4.1-5.53,4.19-8-.14a57.72,57.72,0,0,1-5.27-12,171.92,171.92,0,0,1-5.55-22.59c-1.78-11.52,2.68-21.53,10.44-29.63,5.42-5.65,12-10.2,18.26-15.05,3.09-2.4,5-1.85,6,2,2.06,7.71,3.83,15.5,5.4,23.33C152.26,310.06,152.45,314.48,152.94,318.83Z"/><path class="cls-2" d="M438.45,376.36a49,49,0,0,1-.88,5.07c-1.2,4.26-4.46,5.51-8.08,2.85-2-1.45-3.5-3.56-5.18-5.42-.95-1.06-1.58-2.59-2.74-3.22a5.9,5.9,0,0,0-4.41-.71c-.82.32-1.52,2.62-1.24,3.79.94,3.92,2.33,7.74,3.57,11.59,3.59,11.15,1.48,19.19-7,26.36a19,19,0,0,1-3,2.06c-3.63,2-5.32,1.41-7-2.33-3.72-8.41-7.34-16.86-11.14-25.24-2.29-5.07-1.63-9.85,1-14.46,3.34-5.8,6.86-11.49,10.22-17.27,2.48-4.27,4.81-8.63,7.23-12.93,4.46-7.94,8.39-8.57,14.84-2.25C433.7,353,437.1,364.17,438.45,376.36Z"/><path class="cls-2" d="M474.25,273.42c-.94,4.81-1.44,9.76-2.92,14.39-2,6.2-6.26,7.66-11.39,3.79-8.22-6.2-16.35-12.59-23.95-19.52-6.67-6.1-7.34-14.12-5.57-22.79a127.92,127.92,0,0,0,2-19.17c.32-6.48,1.66-7.75,7.81-5.55,14.92,5.33,32.38,19.72,33.08,43.2.06,1.86.33,3.71.5,5.56Z"/><path class="cls-2" d="M342.92,460.73c-1-7.7-1.82-14.87-2.82-22a50.78,50.78,0,0,0-1.51-6c-1.51-5.63-.45-8.63,4.42-11.8,5.6-3.64,11.53-6.83,16.85-10.83,5.61-4.2,10.6-9.21,16-13.71,4.56-3.82,6-3.51,9.27,1.49,9.18,13.85,5.17,35.26-8.48,44.53a134.76,134.76,0,0,1-11.89,7C357.61,453.18,350.4,456.84,342.92,460.73Z"/><path class="cls-2" d="M458.53,326.15c-.13,7.36-1.31,14.43-5.93,20.48a25.93,25.93,0,0,1-3.39,3.56c-1.87,1.64-3.83,2-5.81.05-6.87-6.77-13.94-13.35-20.59-20.33-4.92-5.16-5.46-11.2-2.91-18,2.43-6.44,3.91-13.22,5.84-19.84a71.45,71.45,0,0,1,2.16-6.89c1.86-4.62,4.47-5.19,8.28-1.88a26.81,26.81,0,0,1,3.88,4c4.21,5.61,8.53,11.15,12.4,17C457,311.16,458.55,317.65,458.53,326.15Z"/><path class="cls-2" d="M175.53,333.62c.42-7,1.85-13.57,5.5-19.52a20.9,20.9,0,0,1,3.5-4.33c4.45-4.1,7.89-3.33,9.64,2.4,2.84,9.25,6.85,17.75,14.1,24.43a20.54,20.54,0,0,1,2.08,2.54c2.66,3.33,3.39,6.65.68,10.46-4.19,5.89-8,12-12.21,17.91-2,2.9-3.27,3.06-5.28.11-5.66-8.31-11.13-16.77-16.23-25.43C175.91,339.81,176.08,336.5,175.53,333.62Z"/><path class="cls-2" d="M401.54,330.37c.59,11.85-4.84,21.64-10.52,31.33a79.53,79.53,0,0,1-5.36,8.27c-2.24,2.94-5,3-7,0-3.79-5.38-7.39-10.88-10.91-16.43-2.54-4-1.56-8.25.56-11.87A104.27,104.27,0,0,1,377,329.83c4.07-5.14,8.34-10.12,12.44-15.24,1.32-1.65,2.76-2,4.6-1.19a11.62,11.62,0,0,1,6.65,8.83C401.2,324.9,401.27,327.65,401.54,330.37Z"/><path class="cls-2" d="M286.83,132c-.24,2.45-.5,4.84-.72,7.24s-1.9,3.71-4,3.36c-3.14-.52-6.53-1.09-9.2-2.68A224.16,224.16,0,0,1,253.49,127a45.63,45.63,0,0,1-9.78-9.59c-4.56-6.33-2-13.42,5.33-16.22,12.48-4.79,34.26,2.79,36.91,22C286.36,126.09,286.54,129.05,286.83,132Z"/><path class="cls-2" d="M292,130.82c.8-4.93,1.21-8.64,2-12.25,2.27-9.88,10.16-14.58,21.22-16.12a19.17,19.17,0,0,1,2.63-.08c7.58-.06,12.23,2.66,14.15,8.28,2,5.85-.48,13.87-5.85,17.57-3.86,2.66-8.15,4.7-12.12,7.22-4.69,3-9.35,6-13.84,9.29-2.12,1.55-3.72,1.72-4.55-.84C294.2,139.27,293.05,134.53,292,130.82Z"/><path class="cls-2" d="M318.72,397.21c-3.37-.88-6.92-1.37-10.09-2.73-12.62-5.44-25.1-4.93-37.72,0a131.36,131.36,0,0,1-13.45,4.28c-1.21.32-3.27,0-4-.85A65.71,65.71,0,0,1,246.2,388c-.65-1.11-.11-3.64.82-4.7.77-.88,3-.94,4.44-.66a26,26,0,0,1,6.48,2.31c5.63,2.82,10.77,2,15.74-1.56,3.13-2.22,6.33-4.33,9.55-6.41a8.76,8.76,0,0,1,8.17-.9c3.59,1.33,7.29,2.39,10.8,3.91a33.78,33.78,0,0,0,22.17,1.95c2.51-.61,5.56-1.7,7.3.92,1.86,2.82-.1,5.51-1.92,7.73C326.94,394,323.85,397.14,318.72,397.21Z"/><path class="cls-2" d="M368.4,382.06c.43,7.78-2.91,13.59-8.87,17.94a154.9,154.9,0,0,1-13.28,8.5c-2.79,1.64-5.22.42-5-2.61.77-9.82,1.4-19.7,3.06-29.38,1.07-6.28,5.26-11.28,10.58-15s9-2.49,10.5,3.75C366.73,370.79,367.43,376.46,368.4,382.06Z"/><path class="cls-2" d="M222,107.34c3.77-.55,6.78,1.1,9.35,3.72a35.89,35.89,0,0,1,9.57,17c1.4,5.89-1.27,8.78-7.22,7.74q-15.51-2.72-31-5.71a16.35,16.35,0,0,1-5.45-2.13,4.63,4.63,0,0,1-1.23-7.13C203,113.18,210.64,106.78,222,107.34Z"/><path class="cls-2" d="M246.42,447.14c.73-4.07,1.06-8.27,2.3-12.17,1.76-5.56,6.42-6.6,10.31-2.34A123.82,123.82,0,0,1,280.19,465c1.65,3.6.74,5.32-3.17,6.2a27.14,27.14,0,0,1-23.82-5.29c-4.37-3.45-5.63-8.47-6.1-13.72-.15-1.63,0-3.28,0-4.93Z"/><path class="cls-2" d="M330.16,447.42c0,13.82-7.5,22.09-22.38,25.09a14.19,14.19,0,0,1-10.67-1.82c-3.46-2.09-4.51-4.38-2.73-8,5.37-10.85,12.95-19.84,23.73-25.63,6.86-3.69,11.43-.82,12,7.05C330.23,445.22,330.16,446.32,330.16,447.42Z"/><path class="cls-2" d="M235.5,394.08c0,3.07.11,6.15,0,9.21-.13,2.67-1.58,3.47-4,2.4a9,9,0,0,1-1.93-1.25A72.8,72.8,0,0,1,213.32,386c-6.12-10-3.49-19.3,1.82-28.48,3.62-6.25,5.38-6.3,9.67-.37,7.24,10,10.28,21.42,10.72,33.64,0,1.09.09,2.19.14,3.28Z"/><path class="cls-2" d="M352.89,137c-11.15.38-18.21-8.93-14.82-19.63,1.58-5,7.34-8.93,12.95-8.75,7.33.22,13.54,3.37,19.12,7.78a49.31,49.31,0,0,1,7.44,7.36c2.35,2.86,2.09,4.8-1.31,6.26-5.58,2.4-11.44,4.16-17.24,6A40.09,40.09,0,0,1,352.89,137Z"/><path class="cls-2" d="M427.9,195.14a74.75,74.75,0,0,1,1.83-9.24c.93-2.88,3.12-4.12,6.23-2.67,11,5.1,20.39,11.77,23.08,24.6a32,32,0,0,1,.37,7.53c-.11,3.48-1.84,5-5.41,5.18C439.54,221.2,428.29,210.09,427.9,195.14Z"/><path class="cls-2" d="M408,314.69c-5.79-6.2-12.62-11.26-11.8-20.58.29-3.21,1.85-6.29,2.4-9.5,1.24-7.22,2.14-14.49,3.35-21.71.25-1.48,1.14-3.92,1.92-4a6.83,6.83,0,0,1,4.54,1.86,22.53,22.53,0,0,1,8,16.33,70.06,70.06,0,0,1-6.46,34.47C409.47,312.44,408.87,313.23,408,314.69Z"/><path class="cls-2" d="M421,262.34c-2.64-2-4.79-3.57-6.91-5.19-10.86-8.34-12.91-19.71-11.13-32.39.3-2.16.63-4.33,1.08-6.47,1-5,4.59-6.65,9-3.84,5.67,3.63,9.18,8.7,9.12,15.72q-.11,14.12-.34,28.23A26.58,26.58,0,0,1,421,262.34Z"/><path class="cls-2" d="M370.8,211c-.69,2.82-1,4.83-1.69,6.75-2.24,6.63-4.32,13.33-6.95,19.81-4.22,10.37-12.2,15.56-23.42,15.11-7.8-.32-15.57-1.33-23.62-2.06,1.27-7.24-.26-15.91,7.48-22.83.14,2.14.34,3.46.29,4.77-.26,6.38,2.53,10.95,8.14,13.87s11,2.47,16.27-.66c8.84-5.22,9.64-14.42,6.32-23.47-2.42-6.61-2.59-5.9,3.86-7.77C361.57,213.32,365.71,212.32,370.8,211Z"/><path class="cls-2" d="M402.8,196.23c.81-3.63,1.15-6.6,2.16-9.32,1.3-3.49,4.21-4.4,7.47-2.54a13.72,13.72,0,0,1,4.21,3.54c4.16,5.59,6.05,12.05,6.54,18.93.19,2.72-1.21,4.71-3.86,3.68-4.7-1.83-9.49-3.88-13.49-6.85C403.89,202.23,403.65,198.51,402.8,196.23Z"/><path class="cls-2" d="M350,230.28c0,8.15-5.08,13.38-13,13.29a6.27,6.27,0,0,1-2.82-.63c-6.83-3.81-7.18-15.47-.62-19.6a22.3,22.3,0,0,1,3.51-1.79C344.92,218.33,350,221.75,350,230.28Zm-16.66,2q-.15,5.15,5.16,5.24c3.46.07,5.76-2,5.84-5.19s-1.7-5.21-5.16-5.37C335.33,226.75,333.43,228.48,333.32,232.25Z"/><path class="cls-2" d="M266.75,353.72c2.78,6,5.61,12,8.27,18a2.84,2.84,0,0,1-.52,2.6,25.68,25.68,0,0,1-5.77,4.19c-2.45,1.15-5-.45-5.91-3.56-2.18-7.41-1-14.41,2.73-21Z"/><path class="cls-2" d="M315.89,354.35c2.89,5.81,4.58,11.35,4.25,17.28-.37,6.54-5,8.75-10.49,5.23-2.24-1.43-3.11-3.31-2.16-5.88a30.57,30.57,0,0,1,1.41-3.67C311.09,363.14,313.36,359,315.89,354.35Z"/><path class="cls-2" d="M417.66,168.39c1.29-2.94,2.45-6,3.93-8.81,1-2,3-2.47,4.63-.84,3.06,3.08,5.93,6.36,8.72,9.7,1.28,1.54.54,3.11-1.23,3.56a56.09,56.09,0,0,1-10.52,2C419.49,174.21,418.16,172.4,417.66,168.39Z"/><path class="cls-1" d="M255.63,287a6.76,6.76,0,0,1-4.51-6.33c-.09-2.18.09-4.38.21-6.56.37-6.33-1.29-9.23-7.23-11.3a94.09,94.09,0,0,0-14.2-4c-17-3.05-26.3-13.19-28.9-30-1.17-7.57-2.6-15.09-4-23.22,4.36,0,8.48-.36,12.52.07a81.22,81.22,0,0,1,25.79,7.32,29.91,29.91,0,0,0,12.07,2.44c7,.06,11.45,5.19,10.71,11.75-.78,7,.48,14.16.61,21.25,0,2.07-.14,4.57-1.25,6.14a14.1,14.1,0,0,0-2.35,10c.46,4.77,1.12,9.4-.72,14.23C253.54,280.89,255.08,283.94,255.63,287ZM207,212c-.32.46-.64.72-.66,1-.47,9.72,0,19.35,4.67,28.17,3.15,5.9,8.19,9.39,15,9.76a87.47,87.47,0,0,0,10.49-.16c5.9-.4,11.8-1,17.68-1.59,1.26-.13,3.08-.15,2.63-2.44-.67-3.44-1-6.95-2-10.32a17.23,17.23,0,0,0-2.91-5.37c-.26-.36-2.54,0-2.66.42-1.25,4.32-4.42,7.08-7.82,9.45-5.94,4.13-12.46,5.39-19.26,2.19-6.62-3.11-9.23-8.86-10.13-15.82-.63-4.8,1.39-8.66,4-12.64-1.7-.55-3-1-4.38-1.41C210.06,212.82,208.49,212.43,207,212Zm19.94,5.18c-4.51.51-9,3.81-9.3,7.53-.58,6.49,6.72,16.48,15.53,14.14,4-1.07,7.64-3.08,8.69-7.6.95-4.11-1-8.2-5.5-10.61C233.41,219.1,230.07,218.34,226.91,217.21Z"/><path class="cls-1" d="M167.64,144a23.59,23.59,0,0,1,17.51,12.39c1.53,2.82,1.59,6.18-.35,8.43-4.46,5.18-9.45,9.93-14.4,14.66-.46.43-2.75-.11-3.26-.85-2.42-3.45-5.08-6.91-6.59-10.78a31.65,31.65,0,0,1-1.34-18.41C160.07,145.48,162.15,144,167.64,144Z"/><path class="cls-1" d="M333.32,232.25c.11-3.77,2-5.5,5.84-5.32,3.46.16,5.25,2,5.16,5.37s-2.38,5.26-5.84,5.19S333.22,235.68,333.32,232.25Z"/><path class="cls-2" d="M207,212c1.52.4,3.09.79,4.64,1.23,1.35.4,2.68.86,4.38,1.41-2.56,4-4.58,7.84-4,12.64.9,7,3.51,12.71,10.13,15.82,6.8,3.2,13.32,1.94,19.26-2.19,3.4-2.37,6.57-5.13,7.82-9.45.12-.4,2.4-.78,2.66-.42a17.23,17.23,0,0,1,2.91,5.37c.91,3.37,1.29,6.88,2,10.32.45,2.29-1.37,2.31-2.63,2.44-5.88.63-11.78,1.19-17.68,1.59A87.47,87.47,0,0,1,226,251c-6.81-.37-11.85-3.86-15-9.76-4.7-8.82-5.14-18.45-4.67-28.17C206.33,212.75,206.65,212.49,207,212Z"/><path class="cls-2" d="M226.91,217.21c3.16,1.13,6.5,1.89,9.42,3.46,4.49,2.41,6.45,6.5,5.5,10.61-1.05,4.52-4.67,6.53-8.69,7.6-8.81,2.34-16.11-7.65-15.53-14.14C217.93,221,222.4,217.72,226.91,217.21Zm2.71,6.43c-3.12,0-5.18,1.8-5.26,4.64a5.45,5.45,0,0,0,5.44,5.41,5.52,5.52,0,0,0,5.4-5.48C235.28,225.43,233.12,223.65,229.62,223.64Z"/><path class="cls-1" d="M229.62,223.64c3.5,0,5.66,1.79,5.58,4.57a5.52,5.52,0,0,1-5.4,5.48,5.45,5.45,0,0,1-5.44-5.41C224.44,225.44,226.5,223.62,229.62,223.64Z"/></g></g></svg>