<svg xmlns="http://www.w3.org/2000/svg" viewBox="0 0 1393.15 268.85"><defs><style>.cls-1{fill:#a8a9a5;}</style></defs><g id="Capa_2" data-name="Capa 2"><g id="Capa_1-2" data-name="Capa 1"><path class="cls-1" d="M399.36.13c-1.7,7.76-3.44,15.51-5.09,23.28q-11.52,54-23,108Q363.7,167,356.2,202.52c-.49,2.35-1.2,3.19-3.79,3.17-19.42-.14-38.85-.1-58.27,0-1.79,0-2.15-.27-1.74-2.16q8.7-40.5,17.23-81.06c.06-.3.06-.61.15-1.43-.79,1-1.33,1.7-1.82,2.39q-28.12,40-56.21,80a4.59,4.59,0,0,1-4.3,2.26q-29.94-.13-59.89,0c-1.93,0-2.64-.57-3.14-2.36q-11.1-40-22.32-80c-.2-.73-.42-1.46-.79-2.71L156,145.51c-4.09,19.33-8.21,38.65-12.24,58-.35,1.71-1,2.16-2.71,2.15q-29.59-.09-59.2,0c-1.51,0-2.12,0-1.7-2Q94.68,136.12,109,68.52,116.29,34.33,123.52.13h77.55c1.3,1.2,1.39,2.91,1.81,4.44Q217.31,56.28,231.66,108c1,3.72,2.15,7.43,3.08,11.18a3.17,3.17,0,0,0,.86,2,66.64,66.64,0,0,0,5.15-7.09q22.78-32.46,45.61-64.88c11-15.68,22-31.41,33.08-47a6,6,0,0,1,1.91-2Z"/><path class="cls-1" d="M1042.52.13c2.72.82,5.49,1.48,8.14,2.48,14,5.26,21.88,15.77,25.26,30,2.69,11.3,2.29,22.71.76,34.11-.7,5.28-1.76,10.51-2.6,15.77-.2,1.26-.62,1.79-2,1.79q-29.94-.09-59.89,0c-1.57,0-1.7-.44-1.47-1.85,1.15-7.16,2.61-14.29,2.8-21.58.17-6.65.2-6.65-6.4-6.65q-53.87,0-107.72-.06a3.8,3.8,0,0,0-4,2.56c-3.07,6.72-4.71,13.85-6.22,21Q883,106.46,877,135.24a52.52,52.52,0,0,0-1.18,13.59c.09,1.64.59,2.34,2.49,2.34q56.07-.1,112.13,0a3,3,0,0,0,3.06-1.82c3.73-7,5.61-14.66,7.65-22.25.52-1.92.52-4.43,1.76-5.6s3.84-.36,5.83-.36c18.27,0,36.53,0,54.79-.06,1.94,0,2.44.24,1.91,2.39-3.39,13.64-7.06,27.16-13.56,39.74-7.34,14.21-17,26.32-31.07,34.44a66.7,66.7,0,0,1-22.36,7.87,17.15,17.15,0,0,1-2.78.1q-72,0-143.93,0c-15.54,0-31-9.52-36.79-25.27-3.71-10.09-4.29-20.51-3.47-31.07,1.18-15.3,5.27-30.08,8.35-45,2.69-13.07,5-26.23,8.62-39.1C833.05,48.64,840,33.38,852,20.78A67.42,67.42,0,0,1,889,.6c.45-.09.94,0,1.26-.47Z"/><path class="cls-1" d="M750.89.13q15.89,57.18,31.77,114.35Q795,158.94,807.43,203.4c.19.66.31,1.33.51,2.21h-2.36q-37.5,0-75,0c-1.71,0-2.49-.33-3-2.16Q712.35,147.69,696.93,92c-.14-.51-.34-1-.52-1.54-.87.35-1.16,1.22-1.63,1.89Q633.36,179,572,265.77a3.21,3.21,0,0,1-2.93,1.74q-38.31-.09-76.62,0c-.29,0-.59,0-1.23-.07L679.85.13Z"/><path class="cls-1" d="M1324.4.13c-1.67,7.61-3.38,15.21-5,22.82q-3.15,14.72-6.17,29.45c-.31,1.54-.86,2.05-2.54,2.05-25.07-.07-50.14,0-75.21-.1-1.76,0-2.48.38-2.86,2.21q-10.92,51.75-22,103.47Q1206,182,1201.3,204c-.27,1.28-.8,1.69-2.16,1.69q-29.82-.08-59.65,0c-1.7,0-1.83-.43-1.5-2q15.63-73.47,31.21-147c.41-1.93.1-2.39-2-2.38-24.84.08-49.68,0-74.51,0H1090c1.76-8.18,3.47-16.18,5.2-24.16Q1098.3,16,1101.4,1.73a10.5,10.5,0,0,0,.1-1.6Z"/><path class="cls-1" d="M107.27.13q-6,28.29-12.07,56.57-11.72,55-23.4,110c-2.58,12.14-5.2,24.28-7.72,36.44-.38,1.83-1,2.58-3.08,2.57-19.48-.11-39-.07-58.46-.06-.85,0-1.69.07-2.54.11v-1.39c5.92-32,13.33-63.68,20-95.53,4.8-23,9.78-46,14.65-69q3.95-18.6,7.91-37.21A4.46,4.46,0,0,1,43.65.13Z"/><path class="cls-1" d="M1393.13,1.06a169.66,169.66,0,0,0-3.94,18c-5.3,30.48-14.5,59.92-23.61,89.39q-5.57,18-10.94,36.06c-.49,1.61-1.19,2.09-2.86,2.08-11.37-.08-22.75-.1-34.12,0-2.05,0-2.21-.71-2-2.39,3-22.43,6.07-44.85,8.72-67.33,2.14-18.13,6.36-35.85,10-53.69,1.57-7.71,3.26-15.4,4.89-23.1q26.12,0,52.24,0C1392.07.17,1393.34-.58,1393.13,1.06Z"/><path class="cls-1" d="M1071.31,268.85c-1.7-.43-3.43-.78-5.1-1.31-8.62-2.7-14.65-8-16.21-17.22-1.72-10.14,1.2-18.65,9.88-24.72,4.82-3.37,10.34-4.75,16.11-5.25,7.24-.63,14.39-.23,21.19,2.61a17.77,17.77,0,0,1,10,9.63c-5.23.54-10.25,1-15.27,1.57-.81.09-1.25-.47-1.8-.88-5-3.78-12.89-4-17.84-.43a15.12,15.12,0,0,0-5.32,16.94c2,6,8.06,9.5,15,8.71a14.8,14.8,0,0,0,10.27-5.19c.53-.65,1.29-1.41,1-2.24s-1.37-.36-2.08-.37c-2.63,0-5.26-.07-7.89,0-1.22,0-1.64-.41-1.6-1.62.07-2.39.05-4.79,0-7.19,0-1.1.4-1.49,1.5-1.48q12.06,0,24.14,0c1.25,0,1.57.52,1.56,1.66q0,12,0,23.9c0,1.28-.54,1.54-1.67,1.52-3.33-.05-6.66-.13-10,0-2,.09-3-.32-2.57-2.49a14.68,14.68,0,0,0,0-2.24,36.54,36.54,0,0,1-6.26,3.74,61.87,61.87,0,0,1-8.66,2.34Z"/><path class="cls-1" d="M840.05,268.85c-2.4-.48-4.85-.81-7.21-1.48-6-1.69-10.17-5.3-11.56-11.68-.3-1.38-.08-1.75,1.32-1.76,4.18-.06,8.35-.21,12.52-.37,1.1,0,1.88.08,2.34,1.31a5,5,0,0,0,3.06,2.69,16.46,16.46,0,0,0,10.9.49c1.85-.54,3.44-1.68,3.44-3.88s-1.74-3.18-3.63-3.6c-4.89-1.09-9.81-2.07-14.73-3.08a29.1,29.1,0,0,1-5.51-1.73c-4.19-1.8-7.13-4.66-7.64-9.38a12.39,12.39,0,0,1,5.88-12.28c4-2.71,8.7-3.42,13.46-3.71a47.71,47.71,0,0,1,17.44,1.67,13.37,13.37,0,0,1,9.35,9.46c.42,1.46.36,2.06-1.42,2.1-4.17.11-8.34.42-12.5.73-1,.07-1.6-.12-2-1.08a4.3,4.3,0,0,0-3.14-2.51,15.94,15.94,0,0,0-8.69,0c-1.48.41-2.69,1.18-2.75,3s1.1,2.49,2.43,3c3.77,1.46,7.79,1.92,11.69,2.83,2.85.67,5.75,1.21,8.54,2.07,4.75,1.47,8.3,4.3,8.94,9.55a13.22,13.22,0,0,1-5.75,12.89c-3.72,2.72-8.09,3.72-12.58,4.3-.82.1-1.71-.13-2.45.45Z"/><path class="cls-1" d="M1359.12,158.17q-2.55,12.33-5.12,24.66c-1.48,7-3,14-4.43,21.06-.27,1.36-.74,1.75-2.09,1.75q-25.07-.06-50.14,0c-1.44,0-1.61-.39-1.33-1.7q4.79-22.17,9.48-44.36c.2-.93.4-1.61,1.73-1.61,17.1.07,34.2.05,51.3.07A3.3,3.3,0,0,1,1359.12,158.17Z"/><path class="cls-1" d="M674.05,240.35q-2.44,9.5-4.87,19a32.3,32.3,0,0,0-1.2,4.94c-.26,2.79-1.64,3.41-4.26,3.26-4.16-.25-8.35-.11-12.52,0a1.71,1.71,0,0,1-2-1.58q-5-20.92-10.16-41.81c-.37-1.53,0-2,1.6-2,3.94.1,7.89.08,11.83,0,1.49,0,2.14.33,2.39,2,1.32,8.38,2.8,16.74,4.23,25.1a15.24,15.24,0,0,0,.54,1.61c1.56-6.73,3-12.95,4.45-19.16.61-2.63,1.28-5.25,1.81-7.89.22-1.08.58-1.64,1.78-1.63,4.57.05,9.13.06,13.69,0,1.36,0,1.61.69,1.84,1.81,1.84,8.83,3.74,17.64,5.92,26.47l2.82-16.31c.59-3.42,1.23-6.83,1.74-10.26.18-1.23.6-1.73,1.88-1.71,4.18.06,8.36.05,12.53,0,1.23,0,1.65.29,1.32,1.62q-5.14,21.12-10.19,42.27c-.29,1.24-.91,1.5-2.09,1.49-4.56-.07-9.13-.13-13.68,0-1.72.06-2.24-.61-2.6-2.09-2-8.16-4-16.31-6.07-24.46a4.49,4.49,0,0,0-.23-.61Z"/><path class="cls-1" d="M1008.74,243.88c0,7.1-.06,14.19,0,21.29,0,1.8-.44,2.4-2.3,2.33-3.94-.14-7.89-.09-11.84,0-1.33,0-1.9-.24-1.89-1.76q.09-20.88,0-41.76c0-1.39.37-1.91,1.82-1.87,3.25.09,6.5.1,9.75,0a3.72,3.72,0,0,1,3.14,1.51c6.25,7,12.55,13.88,18.83,20.82a12.07,12.07,0,0,1,.82,1.1c1-.64.62-1.4.62-2,0-6.41.06-12.83,0-19.25,0-1.57.38-2.21,2.06-2.16,4,.1,8,.08,12.07,0,1.46,0,2,.36,2,1.94q-.08,20.76,0,41.53c0,1.55-.48,2-2,1.92-3.24-.1-6.5-.09-9.74,0a3.67,3.67,0,0,1-3.17-1.44c-6.26-7.16-12.59-14.26-18.89-21.38a10.31,10.31,0,0,1-.74-1.19Z"/><path class="cls-1" d="M794.08,267.46c-7.43,0-14.86,0-22.28,0-1.48,0-2-.36-2-1.92q.07-20.76,0-41.53c0-1.57.52-1.95,2-1.94q21.93.06,43.87,0c1.67,0,2.14.59,2.05,2.16a48.53,48.53,0,0,0,0,6c.12,1.7-.59,2-2.14,2-9-.06-18,0-26.92-.08-2,0-2.7.36-2.63,2.51.15,5,0,5,5,5,7.27,0,14.55.06,21.82,0,1.85,0,2.7.39,2.52,2.41a38.72,38.72,0,0,0,0,5.8c.11,1.64-.49,2.09-2.1,2.08-8.27-.07-16.55,0-24.83-.07-1.76,0-2.42.36-2.38,2.27.09,5.09,0,5.09,5.06,5.09,8.36,0,16.72,0,25.07,0,1.61,0,2.2.39,2.07,2.05a36.23,36.23,0,0,0,0,5.8c.16,1.88-.37,2.5-2.37,2.46C808.63,267.38,801.35,267.46,794.08,267.46Z"/><path class="cls-1" d="M897.38,222.12c7.12,0,14.24.1,21.35-.06,2.33-.05,3,.69,2.75,2.88a30.49,30.49,0,0,0,0,5.32c.13,1.69-.55,2.09-2.12,2.05-4-.1-7.9,0-11.84-.07-1.66-.05-2.07.52-2.06,2.11.07,10.28,0,20.56.08,30.84,0,1.83-.47,2.38-2.31,2.31-3.86-.14-7.74-.19-11.6,0-2.2.12-2.49-.73-2.47-2.63.08-10,0-20.1.08-30.15,0-1.87-.43-2.58-2.43-2.51-4,.15-8,0-12.07.07-1.28,0-1.79-.33-1.73-1.69.09-2.23.11-4.48,0-6.72-.07-1.49.52-1.8,1.88-1.79C882.38,222.15,889.88,222.12,897.38,222.12Z"/><path class="cls-1" d="M925,244.76c0-6.8.08-13.6,0-20.4,0-1.9.58-2.33,2.35-2.28,3.94.12,7.89.13,11.83,0,1.79-.06,2.2.53,2.18,2.23-.08,9.89,0,19.79-.08,29.68,0,1.89.43,2.51,2.41,2.47,6.26-.13,12.53,0,18.79-.09,1.62,0,2.16.45,2.08,2.08-.13,2.47-.09,4.95,0,7.42,0,1.17-.29,1.62-1.54,1.61q-18.22-.06-36.43,0c-1.53,0-1.54-.74-1.54-1.86C925.05,258.68,925,251.72,925,244.76Z"/><path class="cls-1" d="M984.51,244.92c0,6.87,0,13.75,0,20.62,0,1.51-.41,2-1.94,1.95-4.17-.09-8.35-.08-12.52,0-1.38,0-1.87-.34-1.86-1.8q.07-20.85,0-41.71c0-1.65.69-1.9,2.07-1.88,4.1.06,8.2.08,12.29,0,1.53,0,2,.45,2,2C984.47,231,984.51,238,984.51,244.92Z"/><path class="cls-1" d="M626,33.79c-2.34-15.27-10.28-26-25.23-31-3.6-1.22-7.35-1.65-11-2.61H415.62c-1.52,6.94-3.08,13.86-4.56,20.8q-19.44,91.35-38.89,182.7c-.31,1.45-.29,2,1.5,2q29.94-.09,59.89,0c1.33,0,1.81-.38,2.1-1.74,5-23.85,10.17-47.68,15.21-71.54.36-1.71.89-2.33,2.76-2.33,33,.07,66.08,0,99.11.09a78.05,78.05,0,0,0,18.17-1.88,4.9,4.9,0,0,0,3.11-2.08Q599.45,90.07,625,54a7.58,7.58,0,0,0,1.46-4.28A83.54,83.54,0,0,0,626,33.79ZM565.3,56.19a73.85,73.85,0,0,1-3.61,17.64c-.49,1.53-1.27,1.91-2.83,1.91-15.63-.07-31.26,0-46.89,0s-31.26,0-46.89,0c-1.67,0-2.26-.11-1.79-2.1,1.39-5.85,2.54-11.76,3.69-17.67.24-1.22.66-1.59,1.91-1.59q47.36.06,94.7,0C565.08,54.36,565.4,54.8,565.3,56.19Z"/><path class="cls-1" d="M763.28,264.21c-2.74-4.38-5.45-8.8-8.26-13.14-.87-1.34-.73-1.78.85-2.26a11.22,11.22,0,0,0,7.69-7.12c3.4-9.17-2.48-18.58-12.21-19.22-12.2-.8-24.42-.18-36.63-.36-1.23,0-1.59.46-1.59,1.64q0,21.1,0,42.19c0,1,.24,1.55,1.41,1.54q6.74-.08,13.46,0c1.11,0,1.48-.39,1.46-1.49-.05-2.78-.09-5.56,0-8.34.08-2.13-1-4.87.48-6.22s4-.19,6.06-.39a2.83,2.83,0,0,1,3.09,1.79c2.4,4.4,4.91,8.75,7.4,13.1.4.7.64,1.55,1.78,1.54,5.53,0,11.06,0,17,0C764.46,266.15,763.88,265.18,763.28,264.21ZM744.4,240.54a51,51,0,0,1-8.1.31c-.31,0-.62,0-.92,0-1.91-.16-4.62.89-5.53-.44-1.21-1.76-.29-4.47-.38-6.78,0-1,.58-1.11,1.36-1.1,4.48,0,9,0,13.43.11a3.73,3.73,0,0,1,3.89,3.77C748.24,238.74,747,240.16,744.4,240.54Z"/></g></g></svg>