<svg xmlns="http://www.w3.org/2000/svg" viewBox="0 0 573.7 527.71"><defs><style>.cls-1{fill:#a8a9a5;}</style></defs><g id="Capa_2" data-name="Capa 2"><g id="Capa_1-2" data-name="Capa 1"><path class="cls-1" d="M247.18,436.43l-34.71,77.11c-2,4.36-3.95,8.7-6.26,13.79-10.7-27.2-20.35-53.91-31.34-80.09a3.34,3.34,0,0,1-2-2.12c-3.58-8.61-7.08-17.24-10.4-26a3.26,3.26,0,0,1-.06-2.89c-8.47-21.95-16.69-44-25.46-65.85C91.78,237.88,50.88,123.73,9.8,9.66a15.68,15.68,0,0,1-.47-1.94c-.38-1,.1-1.29,1-1.12L155.47,301.54l52.76,107.24L292,201.05,375.8,408.77c18.69-38.1,37.11-75.65,55.52-113.21q70-142.87,140.06-285.76c.37-.74.76-1.47,1.15-2.21.94-.16,1.43.1,1,1.15q-15.33,42.6-30.67,85.2c-38,105.86-78.2,210.9-119,315.7-.6,1.53-1,3.14-1.47,4.72a58.25,58.25,0,0,1-6.11,19L380,527.71c-8.43-19.53-16.48-38.23-24.59-56.91-5.74-13.21-11.56-26.39-17.35-39.58-4.6-4.05-5.62-10-8-15.22-4.33-9.31-8.68-18.61-12.76-28-7.77-17.79-15.43-35.63-23.87-54.18-9.59,20.76-18,41-27.09,61C261,407.37,255.39,419.87,250,432.47,249.32,434,248.69,435.51,247.18,436.43Z"/><path class="cls-1" d="M208.47,306.47C156.25,203.9,104.55,102.36,52.86.82l1-.82L207.77,201.18c29.39-66.36,58.46-132,87.93-198.57L382.94,201.2,536.53.32l1.18.7L381.53,306.47C352.83,232.09,324.45,158.53,295.7,84,266.59,158.26,237.77,231.74,208.47,306.47Z"/><path class="cls-1" d="M423.24,416.3c4.2-10.48,8.55-20.9,12.53-31.46,1.28-3.42,2.89-4.75,6.73-4.86,38.6-1.2,77.18-.14,115.78.46,3.74.05,4.66.71,2.87,4.4q-14.86,30.74-29.33,61.66c-1.48,3.19-3.07,3.49-6,2.79-35.66-8.42-71.93-12.76-108.36-15.94C417.37,427,420.17,421.6,423.24,416.3Z"/><path class="cls-1" d="M162.43,416.27q6.23,15.48,12.44,31c-31,5.18-61.61,12-92,20.07Q43.62,477.72,5.13,490.68a12.35,12.35,0,0,1-5.13.86c3.61-2.92,7.15-5.92,10.84-8.73s7.72-5.8,11.74-8.46c25-16.55,52.06-28.72,80-39.13A620.19,620.19,0,0,1,162.43,416.27Z"/><path class="cls-1" d="M318.27,387.42q9.9,21.9,19.82,43.8c-22.42,0-44.77,1.69-67.12,3.24-7.94.55-15.86,1.3-23.79,2,5.69-14.19,11.69-28.24,18.3-42,3.8-2.59,8.26-2.15,12.49-2.73,11.19-1.54,22.36-3.17,33.55-4.69C313.75,386.68,316.12,385.79,318.27,387.42Z"/><path class="cls-1" d="M423.24,416.3c-1.45,5.85-5,11-5.82,17.05l-1.14,0a78.79,78.79,0,0,1,6.11-19Z"/></g></g></svg>