<svg xmlns="http://www.w3.org/2000/svg" viewBox="0 0 376.6 352.5"><defs><style>.cls-1{fill:#fff;}</style></defs><g id="Capa_2" data-name="Capa 2"><g id="Capa_1-2" data-name="Capa 1"><path class="cls-1" d="M161.07,214.21c-2.18,2.34-4.31,4.61-6.42,6.9l-66,71.29q-27.2,29.39-54.38,58.79a3.63,3.63,0,0,1-2.95,1.31c-9.8-.06-19.61,0-29.42,0H0L146.31,194.41,1,.16A12.14,12.14,0,0,1,2.31,0Q57.09,0,111.88,0a2.27,2.27,0,0,1,2,1.09Q160.45,63.37,207,125.63l1.33,1.73c2.58-2.78,5.06-5.43,7.53-8.1l58.32-63Q299.81,28.58,325.43.92a2.67,2.67,0,0,1,1.69-.86c10.48,0,21,0,31.46,0a4.61,4.61,0,0,1,.55.13c-.93,1-1.76,2-2.61,2.89q-30.66,33.12-61.31,66.23-35.49,38.34-71,76.66c-.91,1-.88,1.54-.1,2.57Q279.86,223,335.55,297.45l40,53.49c.3.41.56.83,1,1.53h-2.08q-54.07,0-108.15,0a3.25,3.25,0,0,1-3-1.47Q212.8,283.28,162.15,215.57C161.84,215.16,161.51,214.77,161.07,214.21ZM49.63,24.39c.51.71.8,1.13,1.11,1.54q14.55,19.49,29.12,39L166.72,181q54.42,72.78,108.83,145.59a3.36,3.36,0,0,0,3.08,1.52q23.72-.06,47.42,0H328c-.43-.63-.7-1.05-1-1.45L313.1,308.11,237,206.38Q169.43,116,101.84,25.6a2.69,2.69,0,0,0-2.44-1.24q-24,.06-48.05,0Z"/></g></g></svg>